{
.appVersion = "3314";
.formatVersion = 3;
DisplayStrings = (
"HOHHAVHHOH
HOHHAWHHOH
HOHHAYHHOH
HOHHATHHOH


HOHHAVAHHOH
HOHHVOHHOH
HOHHVJHHOH

HOHHWAHHOH
HOHHWOHHOH
HOHHWJHHOH

HOHHYAHHOH
HOHHYOHHOH
HOHHFJHHOH

HOHHKOHHOH

HOHHLVHHOH
HOHHLWHHOH
HOHHLYHHOH
HOHHLOHHOH

HOHHFAHHOH
HOHHFOHHOH
HOHHFJHHOH

HOHHTAHHOH
HOHHTOHHOH
HOHHTJHHOH

H.H.H.F.H.H.H
H.H.H.V.H.H.H
H.H.H.W.H.H.H
H.H.H.D.H.H.H
H.H.H.P.H.H.H
H.H.H.Y.H.H.H
H.H.H.J.H.H.H
H.H.H.O.H.H.H
H.H.H.e.H.H.H
H.H.H.o.H.H.H
H.H.H.v.H.H.H

HOHHPAHHOH
HOHHPOHHOH
HOHHPJHHOH

HOHHUAHHOH
HOHHUOHHOH
HOHHUJHHOH

HOHHXOHHOH
HOHHOXHHOH

HOHHAvHHOH
HOHHvAHHOH

nonnAynnon

nonnFannon
nonnFennon
nonnFonnon

nonnKvnnon
nonnKwnnon
nonnKynnon
nonnKannon
nonnKennon
nonnKonnon

nonnkonnon
nonnkennon
nonnkannon

nonnPannon
nonnPennon
nonnPonnon

nonnTannon
nonnTennon
nonnTinnon
nonnTonnon
nonnTrnnon
nonnTsnnon
nonnTunnon
nonnTynnon

nonnVannon
nonnVonnon
nonnVrnnon
nonnVunnon
nonnVynnon
nonnVsnnon
nonnVqnnon
nonnVcnnon
nonnVmnnon
nonnVjnnon
nonnVinnon
nonnVpnnon
nonnVdnnon
nonnVgnnon
nonnVznnon
nonnVxnnon

nonnWannon
nonnWonnon
nonnWrnnon
nonnWunnon
nonnWynnon
nonnWsnnon
nonnWqnnon
nonnWcnnon
nonnWmnnon
nonnWjnnon
nonnWinnon
nonnWpnnon
nonnWdnnon
nonnWgnnon
nonnWznnon
nonnWxnnon

nonnYannon
nonnYonnon
nonnYrnnon
nonnYunnon
nonnYynnon
nonnYsnnon
nonnYqnnon
nonnYcnnon
nonnYmnnon
nonnYjnnon
nonnYinnon
nonnYpnnon
nonnYdnnon
nonnYgnnon
nonnYznnon
nonnYxnnon

nonnotnnon
nonnojnnon
nonnfonnon








-H Ta Yg AT AV AW AY Av Aw Ay 
Fa Fe Fo 
Kv Kw Ky Ka Ke Ko LO ko ka ke
LV LY PA Pa Pe Po TA
KCKOP.F.V. 
Ta Te Ti To Tr Ts Tu Ty 
UA VA Va Ve Vo Vr Vu Vy 
WA WO Wa We Wr Wv Wy 


Albert Sans








THE QUICK CDGHBROWN FOX JUMPS OVER THE LAZY DOG
the quick brown fox jumps over the lazy dog
Spacing
nanbncndnenfngnhninjnknlnmnnonpnqnrnsntnunvnwnxonynzn
HAHBHCHDHEHFHGHHIHJHKOHLHMHNHOHPHQHRHSHTHUHVHWHXHYHZH
0102030405060708090AVA

lower case//lower case
aufkauf aufhalt aufbleib
verixt auflassen 
hoe auffassen
ﬁle aufißt raufjagen fıne

glyphs = (
{
color = 10;
glyphname = A;
kernLeft = KO_A;
kernRight = KO_A;
lastChange = "2024-07-30 18:04:06 +0000";
layers = (
{
anchors = (
{
name = ogonek;
pos = (656,0);
},
{
name = top;
pos = (440,700);
}
);
color = 5;
layerId = "58bebe4f-9ca5-4d90-881b-c2d59ecd3066";
shapes = (
{
closed = 1;
nodes = (
(14,0,l),
(140,210,l),
(578,210,l),
(634,0,l),
(656,0,l),
(471,700,l),
(412,700,l),
(-8,0,l)
);
},
{
closed = 1;
nodes = (
(422,680,l),
(454,680,l),
(574,230,l),
(152,230,l)
);
}
);
userData = {
com.hugojourdan.ColorFlow = {
"0" = 0;
"1" = 0;
"10" = 0;
"11" = 0;
"2" = 1;
"3" = 0;
"4" = 0;
"5" = 1;
"6" = 0;
"7" = 1;
"8" = 0;
"9" = 1;
};
com.hugojourdan.ColorFlow_Color_2 = "2";
com.hugojourdan.ColorFlow_Color_5 = "5";
com.hugojourdan.ColorFlow_Color_7 = "7";
com.hugojourdan.ColorFlow_Color_9 = "9";
};
width = 731.99653;
},
{
anchors = (
{
name = ogonek;
pos = (714,0);
},
{
name = top;
pos = (368,700);
}
);
associatedMasterId = "58bebe4f-9ca5-4d90-881b-c2d59ecd3066";
color = 5;
layerId = "CF7053F7-2E5B-491B-99EC-B5564217EF7A";
shapes = (
{
closed = 1;
nodes = (
(138,0,l),
(197,172,l),
(535,172,l),
(595,0,l),
(714,0,l),
(466,700,l),
(273,700,l),
(24,0,l)
);
},
{
closed = 1;
nodes = (
(348,603,l),
(384,603,l),
(501,269,l),
(231,269,l)
);
}
);
userData = {
com.hugojourdan.ColorFlow = {
"0" = 0;
"1" = 0;
"10" = 0;
"11" = 0;
"2" = 1;
"3" = 0;
"4" = 0;
"5" = 1;
"6" = 0;
"7" = 1;
"8" = 0;
"9" = 1;
};
com.hugojourdan.ColorFlow_Color_2 = "2";
com.hugojourdan.ColorFlow_Color_5 = "5";
com.hugojourdan.ColorFlow_Color_7 = "7";
com.hugojourdan.ColorFlow_Color_9 = "9";
};
width = 737.69079;
},
{
anchors = (
{
name = ogonek;
pos = (612,0);
},
{
name = top;
pos = (314,700);
}
);
associatedMasterId = "58bebe4f-9ca5-4d90-881b-c2d59ecd3066";
color = 5;
layerId = "25E9C8AE-8B73-40EF-9148-BC9EE8EDF956";
shapes = (
{
closed = 1;
nodes = (
(128,0,l),
(176,172,l),
(447,172,l),
(496,0,l),
(613,0,l),
(405,700,l),
(224,700,l),
(16,0,l)
);
},
{
closed = 1;
nodes = (
(298,603,l),
(325,603,l),
(420,269,l),
(203,269,l)
);
}
);
userData = {
com.hugojourdan.ColorFlow = {
"0" = 0;
"1" = 0;
"10" = 0;
"11" = 0;
"2" = 1;
"3" = 0;
"4" = 0;
"5" = 1;
"6" = 0;
"7" = 1;
"8" = 0;
"9" = 1;
};
com.hugojourdan.ColorFlow_Color_2 = "2";
com.hugojourdan.ColorFlow_Color_5 = "5";
com.hugojourdan.ColorFlow_Color_7 = "7";
com.hugojourdan.ColorFlow_Color_9 = "9";
};
width = 629.06743;
},
{
anchors = (
{
name = ogonek;
pos = (627,0);
},
{
name = top;
pos = (326,700);
}
);
associatedMasterId = "58bebe4f-9ca5-4d90-881b-c2d59ecd3066";
color = 5;
layerId = "D0A6557B-E6D6-4FE5-8DF7-C1335BA50FAC";
shapes = (
{
closed = 1;
nodes = (
(144,0,l),
(189,161,l),
(457,161,l),
(502,0,l),
(640,0,l),
(430,700,l),
(224,700,l),
(13,0,l)
);
},
{
closed = 1;
nodes = (
(310,586,l),
(337,586,l),
(424,275,l),
(222,275,l)
);
}
);
userData = {
com.hugojourdan.ColorFlow = {
"0" = 0;
"1" = 0;
"10" = 0;
"11" = 0;
"2" = 1;
"3" = 0;
"4" = 0;
"5" = 1;
"6" = 0;
"7" = 1;
"8" = 0;
"9" = 1;
};
com.hugojourdan.ColorFlow_Color_2 = "2";
com.hugojourdan.ColorFlow_Color_5 = "5";
com.hugojourdan.ColorFlow_Color_7 = "7";
com.hugojourdan.ColorFlow_Color_9 = "9";
};
width = 652.93408;
},
{
anchors = (
{
name = ogonek;
pos = (669,0);
},
{
name = top;
pos = (444,700);
}
);
color = 5;
layerId = "af347eb2-a668-4c91-abbe-f882010a0a43";
shapes = (
{
closed = 1;
nodes = (
(81,0,l),
(177,180,l),
(533,180,l),
(569,0,l),
(669,0,l),
(528,700,l),
(362,700,l),
(-14,0,l)
);
},
{
closed = 1;
nodes = (
(412,619,l),
(447,619,l),
(519,261,l),
(219,261,l)
);
}
);
userData = {
com.hugojourdan.ColorFlow = {
"0" = 0;
"1" = 0;
"10" = 0;
"11" = 0;
"2" = 1;
"3" = 0;
"4" = 0;
"5" = 1;
"6" = 0;
"7" = 1;
"8" = 0;
"9" = 1;
};
com.hugojourdan.ColorFlow_Color_2 = "2";
com.hugojourdan.ColorFlow_Color_5 = "5";
com.hugojourdan.ColorFlow_Color_7 = "7";
com.hugojourdan.ColorFlow_Color_9 = "9";
};
width = 739;
},
{
anchors = (
{
name = ogonek;
pos = (751,0);
},
{
name = top;
pos = (479,700);
}
);
color = 5;
layerId = "edd54720-fbeb-44cd-af84-4ff57ec79b05";
shapes = (
{
closed = 1;
nodes = (
(145,0,l),
(218,140,l),
(546,140,l),
(571,0,l),
(751,0,l),
(613,700,l),
(346,700,l),
(-26,0,l)
);
},
{
closed = 1;
nodes = (
(434,554,l),
(469,554,l),
(518,286,l),
(294,286,l)
);
}
);
userData = {
com.hugojourdan.ColorFlow = {
"0" = 0;
"1" = 0;
"10" = 0;
"11" = 0;
"2" = 1;
"3" = 0;
"4" = 0;
"5" = 1;
"6" = 0;
"7" = 1;
"8" = 0;
"9" = 1;
};
com.hugojourdan.ColorFlow_Color_2 = "2";
com.hugojourdan.ColorFlow_Color_5 = "5";
com.hugojourdan.ColorFlow_Color_7 = "7";
com.hugojourdan.ColorFlow_Color_9 = "9";
};
width = 809;
},
{
anchors = (
{
name = ogonek;
pos = (574,0);
},
{
name = top;
pos = (395,700);
}
);
color = 5;
layerId = "8D5D41BF-E921-4DFA-A794-BFB439395CD4";
shapes = (
{
closed = 1;
nodes = (
(77,0,l),
(161,180,l),
(451,180,l),
(475,0,l),
(574,0,l),
(473,700,l),
(319,700,l),
(-16,0,l)
);
},
{
closed = 1;
nodes = (
(368,619,l),
(393,619,l),
(442,261,l),
(198,261,l)
);
}
);
userData = {
com.hugojourdan.ColorFlow = {
"0" = 0;
"1" = 0;
"10" = 0;
"11" = 0;
"2" = 1;
"3" = 0;
"4" = 0;
"5" = 1;
"6" = 0;
"7" = 1;
"8" = 0;
"9" = 1;
};
com.hugojourdan.ColorFlow_Color_2 = "2";
com.hugojourdan.ColorFlow_Color_5 = "5";
com.hugojourdan.ColorFlow_Color_7 = "7";
com.hugojourdan.ColorFlow_Color_9 = "9";
};
width = 642;
},
{
anchors = (
{
name = ogonek;
pos = (617,1);
},
{
name = top;
pos = (433,700);
}
);
color = 5;
layerId = "126A7EFF-FBED-4747-9AEA-B121032D7D8F";
shapes = (
{
closed = 1;
nodes = (
(143,0,l),
(206,140,l),
(466,140,l),
(480,0,l),
(657,0,l),
(561,700,l),
(305,700,l),
(-25,0,l)
);
},
{
closed = 1;
nodes = (
(391,554,l),
(419,554,l),
(448,286,l),
(271,286,l)
);
}
);
userData = {
com.hugojourdan.ColorFlow = {
"0" = 0;
"1" = 0;
"10" = 0;
"11" = 0;
"2" = 1;
"3" = 0;
"4" = 0;
"5" = 1;
"6" = 0;
"7" = 1;
"8" = 0;
"9" = 1;
};
com.hugojourdan.ColorFlow_Color_2 = "2";
com.hugojourdan.ColorFlow_Color_5 = "5";
com.hugojourdan.ColorFlow_Color_7 = "7";
com.hugojourdan.ColorFlow_Color_9 = "9";
};
width = 716;
},
{
anchors = (
{
name = ogonek;
pos = (560,0);
},
{
name = top;
pos = (390,700);
}
);
color = 5;
layerId = "15C5E54C-51CA-433B-8F99-9031AB3E7AD6";
shapes = (
{
closed = 1;
nodes = (
(8,0,l),
(122,210,l),
(494,210,l),
(538,0,l),
(560,0,l),
(415,700,l),
(366,700,l),
(-14,0,l)
);
},
{
closed = 1;
nodes = (
(377,680,l),
(397,680,l),
(491,230,l),
(133,230,l)
);
}
);
userData = {
com.hugojourdan.ColorFlow = {
"0" = 0;
"1" = 0;
"10" = 0;
"11" = 0;
"2" = 1;
"3" = 0;
"4" = 0;
"5" = 1;
"6" = 0;
"7" = 1;
"8" = 0;
"9" = 1;
};
com.hugojourdan.ColorFlow_Color_2 = "2";
com.hugojourdan.ColorFlow_Color_5 = "5";
com.hugojourdan.ColorFlow_Color_7 = "7";
com.hugojourdan.ColorFlow_Color_9 = "9";
};
width = 630;
}
);
metricRight = "=|";
unicode = 65;
userData = {
KernOnName = A;
};
},
{
color = 10;
glyphname = AE;
kernLeft = KO_AE;
kernRight = KO_E;
lastChange = "2024-03-29 20:25:54 +0000";
layers = (
{
anchors = (
{
name = bottom;
pos = (454,0);
},
{
name = top;
pos = (571,700);
}
);
layerId = "58bebe4f-9ca5-4d90-881b-c2d59ecd3066";
shapes = (
{
closed = 1;
nodes = (
(15,0,l),
(186,210,l),
(478,210,l),
(443,0,l),
(818,0,l),
(822,20,l),
(469,20,l),
(524,350,l),
(787,350,l),
(790,370,l),
(527,370,l),
(579,680,l),
(932,680,l),
(935,700,l),
(558,700,l),
(-11,0,l)
);
},
{
closed = 1;
nodes = (
(554,662,l),
(482,230,l),
(203,230,l)
);
}
);
userData = {
com.hugojourdan.ColorFlow = {
"0" = 0;
"1" = 0;
"10" = 0;
"11" = 0;
"2" = 0;
"3" = 0;
"4" = 0;
"5" = 1;
"6" = 0;
"7" = 0;
"8" = 0;
"9" = 0;
};
com.hugojourdan.ColorFlow_Color_5 = "5";
};
width = 897;
},
{
anchors = (
{
name = bottom;
pos = (538,0);
},
{
name = top;
pos = (538,700);
}
);
associatedMasterId = "58bebe4f-9ca5-4d90-881b-c2d59ecd3066";
layerId = "76966EB6-FB6C-48F8-B3E2-3A04CFDF440F";
shapes = (
{
closed = 1;
nodes = (
(145,0,l),
(237,171,l),
(479,171,l),
(479,0,l),
(864,0,l),
(864,97,l),
(596,97,l),
(596,305,l),
(774,305,l),
(774,402,l),
(596,402,l),
(596,603,l),
(864,603,l),
(864,700,l),
(402,700,l),
(21,0,l)
);
},
{
closed = 1;
nodes = (
(479,619,l),
(479,268,l),
(290,268,l)
);
}
);
userData = {
com.hugojourdan.ColorFlow = {
"0" = 0;
"1" = 0;
"10" = 0;
"11" = 0;
"2" = 0;
"3" = 0;
"4" = 0;
"5" = 1;
"6" = 0;
"7" = 0;
"8" = 0;
"9" = 0;
};
com.hugojourdan.ColorFlow_Color_5 = "5";
};
width = 902.85455;
},
{
anchors = (
{
name = bottom;
pos = (456,0);
},
{
name = top;
pos = (456,700);
}
);
associatedMasterId = "58bebe4f-9ca5-4d90-881b-c2d59ecd3066";
layerId = "C0D2989F-CA52-4A6E-BCFD-FF5CC251714E";
shapes = (
{
closed = 1;
nodes = (
(134,0,l),
(207,171,l),
(399,171,l),
(399,0,l),
(730,0,l),
(730,97,l),
(515,97,l),
(515,305,l),
(653,305,l),
(653,402,l),
(515,402,l),
(515,603,l),
(730,603,l),
(730,700,l),
(324,700,l),
(13,0,l)
);
},
{
closed = 1;
nodes = (
(399,619,l),
(399,268,l),
(249,268,l)
);
}
);
userData = {
com.hugojourdan.ColorFlow = {
"0" = 0;
"1" = 0;
"10" = 0;
"11" = 0;
"2" = 0;
"3" = 0;
"4" = 0;
"5" = 1;
"6" = 0;
"7" = 0;
"8" = 0;
"9" = 0;
};
com.hugojourdan.ColorFlow_Color_5 = "5";
};
width = 758.86625;
},
{
anchors = (
{
name = bottom;
pos = (471,0);
},
{
name = top;
pos = (471,700);
}
);
associatedMasterId = "58bebe4f-9ca5-4d90-881b-c2d59ecd3066";
layerId = "5A165B1C-D1E4-44F9-B7FD-3753B10CBA13";
shapes = (
{
closed = 1;
nodes = (
(153,0,l),
(220,160,l),
(403,160,l),
(403,0,l),
(749,0,l),
(749,114,l),
(539,114,l),
(539,299,l),
(667,299,l),
(667,409,l),
(539,409,l),
(539,586,l),
(749,586,l),
(749,700,l),
(314,700,l),
(11,0,l)
);
},
{
closed = 1;
nodes = (
(403,602,l),
(403,274,l),
(268,274,l)
);
}
);
userData = {
com.hugojourdan.ColorFlow = {
"0" = 0;
"1" = 0;
"10" = 0;
"11" = 0;
"2" = 0;
"3" = 0;
"4" = 0;
"5" = 1;
"6" = 0;
"7" = 0;
"8" = 0;
"9" = 0;
};
com.hugojourdan.ColorFlow_Color_5 = "5";
};
width = 775.73267;
},
{
anchors = (
{
name = bottom;
pos = (489,0);
},
{
name = top;
pos = (606,700);
}
);
layerId = "af347eb2-a668-4c91-abbe-f882010a0a43";
shapes = (
{
closed = 1;
nodes = (
(87,0,l),
(218,179,l),
(470,179,l),
(440,0,l),
(822,0,l),
(836,81,l),
(551,81,l),
(590,314,l),
(785,314,l),
(798,395,l),
(603,395,l),
(641,619,l),
(926,619,l),
(939,700,l),
(495,700,l),
(-17,0,l)
);
},
{
closed = 1;
nodes = (
(545,629,l),
(484,260,l),
(277,260,l)
);
}
);
userData = {
com.hugojourdan.ColorFlow = {
"0" = 0;
"1" = 0;
"10" = 0;
"11" = 0;
"2" = 0;
"3" = 0;
"4" = 0;
"5" = 1;
"6" = 0;
"7" = 0;
"8" = 0;
"9" = 0;
};
com.hugojourdan.ColorFlow_Color_5 = "5";
};
width = 904;
},
{
anchors = (
{
name = bottom;
pos = (540,0);
},
{
name = top;
pos = (657,700);
}
);
layerId = "edd54720-fbeb-44cd-af84-4ff57ec79b05";
shapes = (
{
closed = 1;
nodes = (
(163,0,l),
(257,140,l),
(473,140,l),
(449,0,l),
(877,0,l),
(902,146,l),
(648,146,l),
(671,287,l),
(823,287,l),
(846,423,l),
(694,423,l),
(716,554,l),
(970,554,l),
(994,700,l),
(449,700,l),
(-27,0,l)
);
},
{
closed = 1;
nodes = (
(544,569,l),
(497,286,l),
(355,286,l)
);
}
);
userData = {
com.hugojourdan.ColorFlow = {
"0" = 0;
"1" = 0;
"10" = 0;
"11" = 0;
"2" = 0;
"3" = 0;
"4" = 0;
"5" = 1;
"6" = 0;
"7" = 0;
"8" = 0;
"9" = 0;
};
com.hugojourdan.ColorFlow_Color_5 = "5";
};
width = 952;
},
{
anchors = (
{
name = bottom;
pos = (414,0);
},
{
name = top;
pos = (531,700);
}
);
layerId = "8D5D41BF-E921-4DFA-A794-BFB439395CD4";
shapes = (
{
closed = 1;
nodes = (
(82,0,l),
(193,179,l),
(397,179,l),
(367,0,l),
(694,0,l),
(708,81,l),
(478,81,l),
(517,314,l),
(670,314,l),
(683,395,l),
(530,395,l),
(568,619,l),
(798,619,l),
(811,700,l),
(422,700,l),
(-19,0,l)
);
},
{
closed = 1;
nodes = (
(472,629,l),
(411,260,l),
(243,260,l)
);
}
);
userData = {
com.hugojourdan.ColorFlow = {
"0" = 0;
"1" = 0;
"10" = 0;
"11" = 0;
"2" = 0;
"3" = 0;
"4" = 0;
"5" = 1;
"6" = 0;
"7" = 0;
"8" = 0;
"9" = 0;
};
com.hugojourdan.ColorFlow_Color_5 = "5";
};
width = 772;
},
{
anchors = (
{
name = bottom;
pos = (467,0);
},
{
name = top;
pos = (584,700);
}
);
layerId = "126A7EFF-FBED-4747-9AEA-B121032D7D8F";
shapes = (
{
closed = 1;
nodes = (
(158,0,l),
(238,140,l),
(402,140,l),
(378,0,l),
(751,0,l),
(776,146,l),
(577,146,l),
(600,287,l),
(710,287,l),
(733,423,l),
(623,423,l),
(645,554,l),
(844,554,l),
(868,700,l),
(379,700,l),
(-26,0,l)
);
},
{
closed = 1;
nodes = (
(473,569,l),
(426,286,l),
(321,286,l)
);
}
);
userData = {
com.hugojourdan.ColorFlow = {
"0" = 0;
"1" = 0;
"10" = 0;
"11" = 0;
"2" = 0;
"3" = 0;
"4" = 0;
"5" = 1;
"6" = 0;
"7" = 0;
"8" = 0;
"9" = 0;
};
com.hugojourdan.ColorFlow_Color_5 = "5";
};
width = 823;
},
{
anchors = (
{
name = bottom;
pos = (380,0);
},
{
name = top;
pos = (497,700);
}
);
layerId = "15C5E54C-51CA-433B-8F99-9031AB3E7AD6";
shapes = (
{
closed = 1;
nodes = (
(8,0,l),
(158,210,l),
(405,210,l),
(370,0,l),
(687,0,l),
(691,20,l),
(396,20,l),
(451,350,l),
(671,350,l),
(674,370,l),
(454,370,l),
(506,680,l),
(801,680,l),
(804,700,l),
(482,700,l),
(-17,0,l)
);
},
{
closed = 1;
nodes = (
(481,662,l),
(409,230,l),
(173,230,l)
);
}
);
userData = {
com.hugojourdan.ColorFlow = {
"0" = 0;
"1" = 0;
"10" = 0;
"11" = 0;
"2" = 0;
"3" = 0;
"4" = 0;
"5" = 1;
"6" = 0;
"7" = 0;
"8" = 0;
"9" = 0;
};
com.hugojourdan.ColorFlow_Color_5 = "5";
};
width = 758;
}
);
unicode = 198;
},
{
color = 10;
glyphname = B;
kernLeft = KO_H;
kernRight = KO_B;
lastChange = "2024-03-29 20:25:54 +0000";
layers = (
{
layerId = "58bebe4f-9ca5-4d90-881b-c2d59ecd3066";
shapes = (
{
closed = 1;
nodes = (
(355,0,ls),
(507,0,o),
(592,82,o),
(609,185,cs),
(625,278,o),
(570,344,o),
(489,357,c),
(490,362,l),
(561,376,o),
(633,425,o),
(650,526,cs),
(666,621,o),
(619,700,o),
(472,700,cs),
(179,700,l),
(62,0,l)
);
},
{
closed = 1;
nodes = (
(143,350,l),
(412,350,ls),
(539,350,o),
(604,286,o),
(587,185,cs),
(570,83,o),
(486,20,o),
(359,20,cs),
(88,20,l)
);
},
{
closed = 1;
nodes = (
(198,680,l),
(468,680,ls),
(599,680,o),
(643,612,o),
(628,525,cs),
(612,432,o),
(540,370,o),
(422,370,cs),
(146,370,l)
);
}
);
userData = {
com.hugojourdan.ColorFlow = {
"0" = 0;
"1" = 0;
"10" = 0;
"11" = 0;
"2" = 0;
"3" = 0;
"4" = 0;
"5" = 1;
"6" = 0;
"7" = 0;
"8" = 0;
"9" = 0;
};
com.hugojourdan.ColorFlow_Color_5 = "5";
};
width = 686;
},
{
associatedMasterId = "58bebe4f-9ca5-4d90-881b-c2d59ecd3066";
layerId = "F7A10E08-764D-4D24-81DA-40E9AFA9B4AF";
shapes = (
{
closed = 1;
nodes = (
(400,0,ls),
(542,0,o),
(628,80,o),
(628,187,cs),
(628,292,o),
(570,341,o),
(484,353,c),
(484,361,l),
(556,378,o),
(611,425,o),
(611,517,cs),
(611,616,o),
(534,700,o),
(387,700,cs),
(80,700,l),
(80,0,l)
);
},
{
closed = 1;
nodes = (
(196,306,l),
(385,306,ls),
(461,306,o),
(512,269,o),
(512,200,cs),
(512,132,o),
(466,97,o),
(389,97,cs),
(196,97,l)
);
},
{
closed = 1;
nodes = (
(196,603,l),
(376,603,ls),
(450,603,o),
(494,566,o),
(494,502,cs),
(494,439,o),
(449,403,o),
(376,403,cs),
(196,403,l)
);
}
);
userData = {
com.hugojourdan.ColorFlow = {
"0" = 0;
"1" = 1;
"10" = 0;
"11" = 0;
"2" = 0;
"3" = 1;
"4" = 0;
"5" = 1;
"6" = 1;
"7" = 0;
"8" = 0;
"9" = 0;
};
com.hugojourdan.ColorFlow_Color_1 = "1";
com.hugojourdan.ColorFlow_Color_3 = "3";
com.hugojourdan.ColorFlow_Color_5 = "5";
com.hugojourdan.ColorFlow_Color_6 = "6";
};
width = 673.58182;
},
{
associatedMasterId = "58bebe4f-9ca5-4d90-881b-c2d59ecd3066";
layerId = "CA512988-D8EF-460B-B721-5B11B1B67425";
shapes = (
{
closed = 1;
nodes = (
(349,0,ls),
(468,0,o),
(539,80,o),
(539,187,cs),
(539,292,o),
(491,341,o),
(416,353,c),
(416,361,l),
(479,378,o),
(525,425,o),
(525,517,cs),
(525,616,o),
(459,700,o),
(338,700,cs),
(68,700,l),
(68,0,l)
);
},
{
closed = 1;
nodes = (
(184,306,l),
(327,306,ls),
(385,306,o),
(423,269,o),
(423,200,cs),
(423,132,o),
(388,97,o),
(330,97,cs),
(184,97,l)
);
},
{
closed = 1;
nodes = (
(184,603,l),
(318,603,ls),
(375,603,o),
(408,566,o),
(408,502,cs),
(408,439,o),
(374,403,o),
(318,403,cs),
(184,403,l)
);
}
);
userData = {
com.hugojourdan.ColorFlow = {
"0" = 0;
"1" = 0;
"10" = 0;
"11" = 0;
"2" = 0;
"3" = 0;
"4" = 0;
"5" = 1;
"6" = 0;
"7" = 0;
"8" = 0;
"9" = 0;
};
com.hugojourdan.ColorFlow_Color_5 = "5";
};
width = 575.87542;
},
{
associatedMasterId = "58bebe4f-9ca5-4d90-881b-c2d59ecd3066";
layerId = "9E86DC67-8483-472D-9988-C5ECE56AB928";
shapes = (
{
closed = 1;
nodes = (
(359,0,ls),
(481,0,o),
(550,79,o),
(550,189,cs),
(550,290,o),
(504,342,o),
(424,354,c),
(424,362,l),
(490,377,o),
(537,424,o),
(537,516,cs),
(537,620,o),
(469,700,o),
(349,700,cs),
(61,700,l),
(61,0,l)
);
},
{
closed = 1;
nodes = (
(197,300,l),
(328,300,ls),
(380,300,o),
(414,268,o),
(414,206,cs),
(414,145,o),
(383,114,o),
(330,114,cs),
(197,114,l)
);
},
{
closed = 1;
nodes = (
(197,586,l),
(318,586,ls),
(369,586,o),
(400,555,o),
(400,498,cs),
(400,441,o),
(368,410,o),
(317,410,cs),
(197,410,l)
);
}
);
userData = {
com.hugojourdan.ColorFlow = {
"0" = 0;
"1" = 0;
"10" = 0;
"11" = 0;
"2" = 0;
"3" = 0;
"4" = 0;
"5" = 1;
"6" = 0;
"7" = 0;
"8" = 0;
"9" = 0;
};
com.hugojourdan.ColorFlow_Color_5 = "5";
};
width = 582.51588;
},
{
layerId = "af347eb2-a668-4c91-abbe-f882010a0a43";
shapes = (
{
closed = 1;
nodes = (
(356,0,ls),
(499,0,o),
(597,80,o),
(614,187,cs),
(632,289,o),
(580,342,o),
(497,354,c),
(499,361,l),
(572,378,o),
(637,425,o),
(653,519,cs),
(669,617,o),
(609,700,o),
(462,700,cs),
(159,700,l),
(42,0,l)
);
},
{
closed = 1;
nodes = (
(192,315,l),
(397,315,ls),
(482,315,o),
(532,272,o),
(519,196,cs),
(507,122,o),
(448,81,o),
(361,81,cs),
(153,81,l)
);
},
{
closed = 1;
nodes = (
(243,619,l),
(441,619,ls),
(525,619,o),
(564,575,o),
(553,507,cs),
(541,438,o),
(486,396,o),
(404,396,cs),
(205,396,l)
);
}
);
userData = {
com.hugojourdan.ColorFlow = {
"0" = 0;
"1" = 0;
"10" = 0;
"11" = 0;
"2" = 0;
"3" = 0;
"4" = 0;
"5" = 1;
"6" = 0;
"7" = 0;
"8" = 0;
"9" = 0;
};
com.hugojourdan.ColorFlow_Color_5 = "5";
};
width = 675;
},
{
layerId = "edd54720-fbeb-44cd-af84-4ff57ec79b05";
shapes = (
{
closed = 1;
nodes = (
(387,0,ls),
(536,0,o),
(631,76,o),
(650,192,cs),
(666,286,o),
(621,344,o),
(523,355,c),
(524,363,l),
(608,375,o),
(673,422,o),
(688,515,cs),
(707,627,o),
(636,700,o),
(493,700,cs),
(132,700,l),
(15,0,l)
);
},
{
closed = 1;
nodes = (
(237,288,l),
(401,288,ls),
(457,288,o),
(488,265,o),
(479,217,cs),
(472,170,o),
(436,146,o),
(380,146,cs),
(214,146,l)
);
},
{
closed = 1;
nodes = (
(282,554,l),
(434,554,ls),
(488,554,o),
(516,535,o),
(508,489,cs),
(500,444,o),
(464,424,o),
(410,424,cs),
(260,424,l)
);
}
);
userData = {
com.hugojourdan.ColorFlow = {
"0" = 0;
"1" = 0;
"10" = 0;
"11" = 0;
"2" = 0;
"3" = 0;
"4" = 0;
"5" = 1;
"6" = 0;
"7" = 0;
"8" = 0;
"9" = 0;
};
com.hugojourdan.ColorFlow_Color_5 = "5";
};
width = 689;
},
{
layerId = "8D5D41BF-E921-4DFA-A794-BFB439395CD4";
shapes = (
{
closed = 1;
nodes = (
(307,0,ls),
(428,0,o),
(511,80,o),
(528,187,cs),
(546,289,o),
(504,342,o),
(433,354,c),
(435,361,l),
(498,378,o),
(554,425,o),
(570,519,cs),
(586,617,o),
(536,700,o),
(415,700,cs),
(149,700,l),
(32,0,l)
);
},
{
closed = 1;
nodes = (
(182,315,l),
(342,315,ls),
(409,315,o),
(446,272,o),
(433,196,cs),
(421,122,o),
(374,81,o),
(306,81,cs),
(143,81,l)
);
},
{
closed = 1;
nodes = (
(233,619,l),
(386,619,ls),
(452,619,o),
(481,575,o),
(470,507,cs),
(458,438,o),
(413,396,o),
(349,396,cs),
(195,396,l)
);
}
);
userData = {
com.hugojourdan.ColorFlow = {
"0" = 0;
"1" = 0;
"10" = 0;
"11" = 0;
"2" = 0;
"3" = 0;
"4" = 0;
"5" = 1;
"6" = 0;
"7" = 0;
"8" = 0;
"9" = 0;
};
com.hugojourdan.ColorFlow_Color_5 = "5";
};
width = 584;
},
{
layerId = "126A7EFF-FBED-4747-9AEA-B121032D7D8F";
shapes = (
{
closed = 1;
nodes = (
(339,0,ls),
(465,0,o),
(546,76,o),
(565,192,cs),
(581,286,o),
(546,344,o),
(460,355,c),
(461,363,l),
(535,375,o),
(591,422,o),
(606,515,cs),
(625,627,o),
(565,700,o),
(447,700,cs),
(125,700,l),
(8,0,l)
);
},
{
closed = 1;
nodes = (
(230,288,l),
(335,288,ls),
(378,288,o),
(402,265,o),
(393,217,cs),
(386,170,o),
(356,146,o),
(313,146,cs),
(207,146,l)
);
},
{
closed = 1;
nodes = (
(275,554,l),
(369,554,ls),
(410,554,o),
(433,535,o),
(425,489,cs),
(417,444,o),
(386,424,o),
(344,424,cs),
(253,424,l)
);
}
);
userData = {
com.hugojourdan.ColorFlow = {
"0" = 0;
"1" = 0;
"10" = 0;
"11" = 0;
"2" = 0;
"3" = 0;
"4" = 0;
"5" = 1;
"6" = 0;
"7" = 0;
"8" = 0;
"9" = 0;
};
com.hugojourdan.ColorFlow_Color_5 = "5";
};
width = 602;
},
{
layerId = "15C5E54C-51CA-433B-8F99-9031AB3E7AD6";
shapes = (
{
closed = 1;
nodes = (
(304,0,ls),
(431,0,o),
(504,82,o),
(521,185,cs),
(537,278,o),
(493,344,o),
(425,357,c),
(426,362,l),
(486,376,o),
(547,425,o),
(564,526,cs),
(580,621,o),
(543,700,o),
(421,700,cs),
(165,700,l),
(48,0,l)
);
},
{
closed = 1;
nodes = (
(129,350,l),
(358,350,ls),
(463,350,o),
(516,286,o),
(499,185,cs),
(482,83,o),
(410,20,o),
(304,20,cs),
(74,20,l)
);
},
{
closed = 1;
nodes = (
(184,680,l),
(413,680,ls),
(523,680,o),
(557,612,o),
(542,525,cs),
(526,432,o),
(465,370,o),
(367,370,cs),
(132,370,l)
);
}
);
userData = {
com.hugojourdan.ColorFlow = {
"0" = 0;
"1" = 0;
"10" = 0;
"11" = 0;
"2" = 0;
"3" = 0;
"4" = 0;
"5" = 1;
"6" = 0;
"7" = 0;
"8" = 0;
"9" = 0;
};
com.hugojourdan.ColorFlow_Color_5 = "5";
};
width = 589;
}
);
unicode = 66;
userData = {
KernOnName = B;
};
},
{
color = 10;
glyphname = C;
kernLeft = KO_O;
kernRight = KO_C;
lastChange = "2024-03-29 20:25:54 +0000";
layers = (
{
anchors = (
{
name = bottom;
pos = (350,0);
},
{
name = euroanchor;
pos = (232,350);
},
{
name = top;
pos = (467,700);
}
);
color = 5;
layerId = "58bebe4f-9ca5-4d90-881b-c2d59ecd3066";
shapes = (
{
closed = 1;
nodes = (
(517,-7,o),
(630,77,o),
(699,204,c),
(681,209,l),
(621,97,o),
(509,13,o),
(352,13,cs),
(183,13,o),
(67,141,o),
(102,350,cs),
(137,561,o),
(296,687,o),
(465,687,cs),
(620,687,o),
(701,609,o),
(726,500,c),
(746,505,l),
(716,627,o),
(632,707,o),
(468,707,cs),
(277,707,o),
(115,561,o),
(80,350,cs),
(45,141,o),
(158,-7,o),
(349,-7,cs)
);
}
);
userData = {
com.hugojourdan.ColorFlow = {
"0" = 0;
"1" = 0;
"10" = 0;
"11" = 0;
"2" = 1;
"3" = 0;
"4" = 0;
"5" = 1;
"6" = 0;
"7" = 1;
"8" = 0;
"9" = 1;
};
com.hugojourdan.ColorFlow_Color_2 = "2";
com.hugojourdan.ColorFlow_Color_5 = "5";
com.hugojourdan.ColorFlow_Color_7 = "7";
com.hugojourdan.ColorFlow_Color_9 = "9";
};
width = 756;
},
{
anchors = (
{
name = bottom;
pos = (397,1);
},
{
name = euroanchor;
pos = (178,350);
},
{
name = top;
pos = (399,700);
}
);
associatedMasterId = "58bebe4f-9ca5-4d90-881b-c2d59ecd3066";
color = 5;
layerId = "731FF275-725C-4CE5-BA87-A269D579294E";
shapes = (
{
closed = 1;
nodes = (
(538,-7,o),
(648,59,o),
(710,203,c),
(616,234,l),
(564,126,o),
(480,92,o),
(400,92,cs),
(263,92,o),
(161,194,o),
(161,350,cs),
(161,507,o),
(263,608,o),
(400,608,cs),
(478,608,o),
(560,573,o),
(607,485,c),
(701,518,l),
(643,640,o),
(534,707,o),
(397,707,cs),
(201,707,o),
(42,560,o),
(42,350,cs),
(42,141,o),
(201,-7,o),
(397,-7,cs)
);
}
);
userData = {
com.hugojourdan.ColorFlow = {
"0" = 0;
"1" = 0;
"10" = 0;
"11" = 0;
"2" = 1;
"3" = 0;
"4" = 0;
"5" = 1;
"6" = 0;
"7" = 1;
"8" = 0;
"9" = 1;
};
com.hugojourdan.ColorFlow_Color_2 = "2";
com.hugojourdan.ColorFlow_Color_5 = "5";
com.hugojourdan.ColorFlow_Color_7 = "7";
com.hugojourdan.ColorFlow_Color_9 = "9";
};
width = 739.56364;
},
{
anchors = (
{
name = bottom;
pos = (331,0);
},
{
name = euroanchor;
pos = (146,350);
},
{
name = top;
pos = (332,700);
}
);
associatedMasterId = "58bebe4f-9ca5-4d90-881b-c2d59ecd3066";
color = 5;
layerId = "BFEB5D55-F897-4DDE-A338-384A9FFFF892";
shapes = (
{
closed = 1;
nodes = (
(464,-7,o),
(550,59,o),
(597,203,c),
(504,234,l),
(467,126,o),
(403,92,o),
(333,92,cs),
(214,92,o),
(155,182,o),
(155,350,cs),
(155,519,o),
(214,608,o),
(333,608,cs),
(402,608,o),
(463,573,o),
(497,485,c),
(591,518,l),
(546,640,o),
(460,707,o),
(331,707,cs),
(147,707,o),
(36,572,o),
(36,350,cs),
(36,129,o),
(147,-7,o),
(331,-7,cs)
);
}
);
userData = {
com.hugojourdan.ColorFlow = {
"0" = 0;
"1" = 0;
"10" = 0;
"11" = 0;
"2" = 1;
"3" = 0;
"4" = 0;
"5" = 1;
"6" = 0;
"7" = 1;
"8" = 0;
"9" = 1;
};
com.hugojourdan.ColorFlow_Color_2 = "2";
com.hugojourdan.ColorFlow_Color_5 = "5";
com.hugojourdan.ColorFlow_Color_7 = "7";
com.hugojourdan.ColorFlow_Color_9 = "9";
};
width = 618.91683;
},
{
anchors = (
{
name = bottom;
pos = (326,0);
},
{
name = euroanchor;
pos = (140,350);
},
{
name = top;
pos = (326,700);
}
);
associatedMasterId = "58bebe4f-9ca5-4d90-881b-c2d59ecd3066";
color = 5;
layerId = "2639E6D6-219B-4FB4-B9AC-3B8F00E5F400";
shapes = (
{
closed = 1;
nodes = (
(464,-7,o),
(553,65,o),
(595,211,c),
(485,242,l),
(452,141,o),
(394,108,o),
(328,108,cs),
(221,108,o),
(169,194,o),
(169,350,cs),
(169,506,o),
(221,592,o),
(328,592,cs),
(393,592,o),
(448,558,o),
(477,475,c),
(590,508,l),
(549,635,o),
(461,707,o),
(326,707,cs),
(141,707,o),
(32,572,o),
(32,350,cs),
(32,128,o),
(141,-7,o),
(326,-7,cs)
);
}
);
userData = {
com.hugojourdan.ColorFlow = {
"0" = 0;
"1" = 0;
"10" = 0;
"11" = 0;
"2" = 1;
"3" = 0;
"4" = 0;
"5" = 1;
"6" = 0;
"7" = 1;
"8" = 0;
"9" = 1;
};
com.hugojourdan.ColorFlow_Color_2 = "2";
com.hugojourdan.ColorFlow_Color_5 = "5";
com.hugojourdan.ColorFlow_Color_7 = "7";
com.hugojourdan.ColorFlow_Color_9 = "9";
};
width = 614.28751;
},
{
anchors = (
{
name = bottom;
pos = (356,1);
},
{
name = euroanchor;
pos = (203,350);
},
{
name = top;
pos = (474,700);
}
);
color = 5;
layerId = "af347eb2-a668-4c91-abbe-f882010a0a43";
shapes = (
{
closed = 1;
nodes = (
(501,-7,o),
(622,63,o),
(705,207,c),
(630,230,l),
(561,119,o),
(465,76,o),
(371,76,cs),
(227,76,o),
(135,183,o),
(163,350,cs),
(191,518,o),
(319,624,o),
(463,624,cs),
(556,624,o),
(633,580,o),
(665,487,c),
(748,512,l),
(713,637,o),
(616,707,o),
(474,707,cs),
(279,707,o),
(99,560,o),
(64,350,cs),
(29,141,o),
(160,-7,o),
(355,-7,cs)
);
}
);
userData = {
com.hugojourdan.ColorFlow = {
"0" = 0;
"1" = 0;
"10" = 0;
"11" = 0;
"2" = 1;
"3" = 0;
"4" = 0;
"5" = 1;
"6" = 0;
"7" = 1;
"8" = 0;
"9" = 1;
};
com.hugojourdan.ColorFlow_Color_2 = "2";
com.hugojourdan.ColorFlow_Color_5 = "5";
com.hugojourdan.ColorFlow_Color_7 = "7";
com.hugojourdan.ColorFlow_Color_9 = "9";
};
width = 747;
},
{
anchors = (
{
name = bottom;
pos = (338,0);
},
{
name = euroanchor;
pos = (181,350);
},
{
name = top;
pos = (456,700);
}
);
color = 5;
layerId = "edd54720-fbeb-44cd-af84-4ff57ec79b05";
shapes = (
{
closed = 1;
nodes = (
(512,-7,o),
(649,86,o),
(713,249,c),
(566,265,l),
(518,173,o),
(442,139,o),
(361,139,cs),
(250,139,o),
(198,228,o),
(219,350,cs),
(239,470,o),
(321,561,o),
(432,561,cs),
(512,561,o),
(571,527,o),
(587,448,c),
(744,466,l),
(733,615,o),
(627,707,o),
(456,707,cs),
(248,707,o),
(80,559,o),
(45,350,cs),
(9,139,o),
(129,-7,o),
(337,-7,cs)
);
}
);
userData = {
com.hugojourdan.ColorFlow = {
"0" = 0;
"1" = 0;
"10" = 0;
"11" = 0;
"2" = 1;
"3" = 0;
"4" = 0;
"5" = 1;
"6" = 0;
"7" = 1;
"8" = 0;
"9" = 1;
};
com.hugojourdan.ColorFlow_Color_2 = "2";
com.hugojourdan.ColorFlow_Color_5 = "5";
com.hugojourdan.ColorFlow_Color_7 = "7";
com.hugojourdan.ColorFlow_Color_9 = "9";
};
width = 735;
},
{
anchors = (
{
name = bottom;
pos = (294,0);
},
{
name = euroanchor;
pos = (171,350);
},
{
name = top;
pos = (412,700);
}
);
color = 5;
layerId = "8D5D41BF-E921-4DFA-A794-BFB439395CD4";
shapes = (
{
closed = 1;
nodes = (
(432,-7,o),
(528,65,o),
(598,213,c),
(521,232,l),
(466,120,o),
(394,76,o),
(308,76,cs),
(181,76,o),
(130,171,o),
(161,350,cs),
(190,530,o),
(273,624,o),
(400,624,cs),
(484,624,o),
(539,579,o),
(558,485,c),
(641,506,l),
(620,635,o),
(548,707,o),
(412,707,cs),
(229,707,o),
(98,572,o),
(62,350,cs),
(24,129,o),
(110,-7,o),
(293,-7,cs)
);
}
);
userData = {
com.hugojourdan.ColorFlow = {
"0" = 0;
"1" = 0;
"10" = 0;
"11" = 0;
"2" = 1;
"3" = 0;
"4" = 0;
"5" = 1;
"6" = 0;
"7" = 1;
"8" = 0;
"9" = 1;
};
com.hugojourdan.ColorFlow_Color_2 = "2";
com.hugojourdan.ColorFlow_Color_5 = "5";
com.hugojourdan.ColorFlow_Color_7 = "7";
com.hugojourdan.ColorFlow_Color_9 = "9";
};
width = 636;
},
{
anchors = (
{
name = bottom;
pos = (278,0);
},
{
name = euroanchor;
pos = (151,350);
},
{
name = top;
pos = (395,700);
}
);
color = 5;
layerId = "126A7EFF-FBED-4747-9AEA-B121032D7D8F";
shapes = (
{
closed = 1;
nodes = (
(437,-7,o),
(548,88,o),
(600,253,c),
(455,264,l),
(418,172,o),
(363,139,o),
(303,139,cs),
(224,139,o),
(196,216,o),
(218,350,cs),
(240,482,o),
(295,561,o),
(374,561,cs),
(433,561,o),
(474,528,o),
(478,449,c),
(632,463,l),
(633,614,o),
(553,707,o),
(396,707,cs),
(213,707,o),
(81,571,o),
(44,350,cs),
(7,127,o),
(94,-7,o),
(277,-7,cs)
);
}
);
userData = {
com.hugojourdan.ColorFlow = {
"0" = 0;
"1" = 0;
"10" = 0;
"11" = 0;
"2" = 1;
"3" = 0;
"4" = 0;
"5" = 1;
"6" = 0;
"7" = 1;
"8" = 0;
"9" = 1;
};
com.hugojourdan.ColorFlow_Color_2 = "2";
com.hugojourdan.ColorFlow_Color_5 = "5";
com.hugojourdan.ColorFlow_Color_7 = "7";
com.hugojourdan.ColorFlow_Color_9 = "9";
};
width = 622;
},
{
anchors = (
{
name = bottom;
pos = (289,0);
},
{
name = euroanchor;
pos = (185,350);
},
{
name = top;
pos = (406,700);
}
);
color = 5;
layerId = "15C5E54C-51CA-433B-8F99-9031AB3E7AD6";
shapes = (
{
closed = 1;
nodes = (
(444,-7,o),
(530,76,o),
(588,204,c),
(569,209,l),
(518,98,o),
(435,13,o),
(291,13,cs),
(135,13,o),
(59,129,o),
(96,350,cs),
(133,573,o),
(247,687,o),
(404,687,cs),
(547,687,o),
(598,609,o),
(615,500,c),
(635,506,l),
(617,628,o),
(559,707,o),
(407,707,cs),
(230,707,o),
(111,573,o),
(74,350,cs),
(37,129,o),
(111,-7,o),
(288,-7,cs)
);
}
);
userData = {
com.hugojourdan.ColorFlow = {
"0" = 0;
"1" = 0;
"10" = 0;
"11" = 0;
"2" = 1;
"3" = 0;
"4" = 0;
"5" = 1;
"6" = 0;
"7" = 1;
"8" = 0;
"9" = 1;
};
com.hugojourdan.ColorFlow_Color_2 = "2";
com.hugojourdan.ColorFlow_Color_5 = "5";
com.hugojourdan.ColorFlow_Color_7 = "7";
com.hugojourdan.ColorFlow_Color_9 = "9";
};
width = 637;
}
);
unicode = 67;
userData = {
KernOnName = C;
};
},
{
color = 10;
glyphname = D;
kernLeft = KO_H;
kernRight = KO_O;
lastChange = "2024-03-29 20:25:54 +0000";
layers = (
{
anchors = (
{
name = center;
pos = (143,350);
},
{
name = top;
pos = (405,700);
}
);
layerId = "58bebe4f-9ca5-4d90-881b-c2d59ecd3066";
shapes = (
{
closed = 1;
nodes = (
(267,0,ls),
(512,0,o),
(661,129,o),
(698,350,cs),
(735,571,o),
(629,700,o),
(384,700,cs),
(179,700,l),
(62,0,l)
);
},
{
closed = 1;
nodes = (
(198,680,l),
(381,680,ls),
(616,680,o),
(710,554,o),
(676,350,cs),
(642,146,o),
(506,20,o),
(271,20,cs),
(88,20,l)
);
}
);
userData = {
com.hugojourdan.ColorFlow = {
"0" = 0;
"1" = 0;
"10" = 0;
"11" = 0;
"2" = 0;
"3" = 0;
"4" = 0;
"5" = 1;
"6" = 0;
"7" = 0;
"8" = 0;
"9" = 0;
};
com.hugojourdan.ColorFlow_Color_5 = "5";
};
width = 744;
},
{
anchors = (
{
name = center;
pos = (195,350);
},
{
name = top;
pos = (351,700);
}
);
associatedMasterId = "58bebe4f-9ca5-4d90-881b-c2d59ecd3066";
layerId = "B6A882FA-29F6-4769-B246-4A01ECEC073E";
shapes = (
{
closed = 1;
nodes = (
(329,0,ls),
(552,0,o),
(698,135,o),
(698,350,cs),
(698,566,o),
(552,700,o),
(329,700,cs),
(80,700,l),
(80,0,l)
);
},
{
closed = 1;
nodes = (
(196,603,l),
(328,603,ls),
(491,603,o),
(579,509,o),
(579,350,cs),
(579,192,o),
(491,97,o),
(328,97,cs),
(196,97,l)
);
}
);
userData = {
com.hugojourdan.ColorFlow = {
"0" = 0;
"1" = 0;
"10" = 0;
"11" = 0;
"2" = 0;
"3" = 0;
"4" = 0;
"5" = 1;
"6" = 0;
"7" = 0;
"8" = 0;
"9" = 0;
};
com.hugojourdan.ColorFlow_Color_5 = "5";
};
width = 740.96364;
},
{
anchors = (
{
name = center;
pos = (182,350);
},
{
name = top;
pos = (298,700);
}
);
associatedMasterId = "58bebe4f-9ca5-4d90-881b-c2d59ecd3066";
layerId = "2A9A96EF-6176-4E5C-86D7-70ABB9F0CC49";
shapes = (
{
closed = 1;
nodes = (
(285,0,ls),
(483,0,o),
(592,123,o),
(592,350,cs),
(592,578,o),
(483,700,o),
(285,700,cs),
(68,700,l),
(68,0,l)
);
},
{
closed = 1;
nodes = (
(184,603,l),
(282,603,ls),
(413,603,o),
(474,521,o),
(474,350,cs),
(474,180,o),
(413,97,o),
(282,97,cs),
(184,97,l)
);
}
);
userData = {
com.hugojourdan.ColorFlow = {
"0" = 0;
"1" = 0;
"10" = 0;
"11" = 0;
"2" = 0;
"3" = 0;
"4" = 0;
"5" = 1;
"6" = 0;
"7" = 0;
"8" = 0;
"9" = 0;
};
com.hugojourdan.ColorFlow_Color_5 = "5";
};
width = 628.24554;
},
{
anchors = (
{
name = center;
pos = (180,350);
},
{
name = top;
pos = (297,700);
}
);
associatedMasterId = "58bebe4f-9ca5-4d90-881b-c2d59ecd3066";
layerId = "F0EEAAF2-5EBA-4A8C-AAE9-79F236B78F47";
shapes = (
{
closed = 1;
nodes = (
(291,0,ls),
(489,0,o),
(598,126,o),
(598,350,cs),
(598,575,o),
(489,700,o),
(291,700,cs),
(61,700,l),
(61,0,l)
);
},
{
closed = 1;
nodes = (
(197,586,l),
(284,586,ls),
(405,586,o),
(459,510,o),
(459,350,cs),
(459,191,o),
(405,114,o),
(284,114,cs),
(197,114,l)
);
}
);
userData = {
com.hugojourdan.ColorFlow = {
"0" = 0;
"1" = 0;
"10" = 0;
"11" = 0;
"2" = 0;
"3" = 0;
"4" = 0;
"5" = 1;
"6" = 0;
"7" = 0;
"8" = 0;
"9" = 0;
};
com.hugojourdan.ColorFlow_Color_5 = "5";
};
width = 629.14685;
},
{
anchors = (
{
name = center;
pos = (198,350);
},
{
name = top;
pos = (421,700);
}
);
layerId = "af347eb2-a668-4c91-abbe-f882010a0a43";
shapes = (
{
closed = 1;
nodes = (
(282,0,ls),
(509,0,o),
(674,134,o),
(710,350,cs),
(746,567,o),
(626,700,o),
(399,700,cs),
(159,700,l),
(42,0,l)
);
},
{
closed = 1;
nodes = (
(243,619,l),
(386,619,ls),
(563,619,o),
(639,518,o),
(611,350,cs),
(583,183,o),
(473,81,o),
(296,81,cs),
(153,81,l)
);
}
);
userData = {
com.hugojourdan.ColorFlow = {
"0" = 0;
"1" = 0;
"10" = 0;
"11" = 0;
"2" = 0;
"3" = 0;
"4" = 0;
"5" = 1;
"6" = 0;
"7" = 0;
"8" = 0;
"9" = 0;
};
com.hugojourdan.ColorFlow_Color_5 = "5";
};
width = 741;
},
{
anchors = (
{
name = center;
pos = (218,350);
},
{
name = top;
pos = (419,700);
}
);
layerId = "edd54720-fbeb-44cd-af84-4ff57ec79b05";
shapes = (
{
closed = 1;
nodes = (
(301,0,ls),
(526,0,o),
(694,144,o),
(729,350,cs),
(764,558,o),
(643,700,o),
(418,700,cs),
(132,700,l),
(15,0,l)
);
},
{
closed = 1;
nodes = (
(282,554,l),
(383,554,ls),
(509,554,o),
(573,476,o),
(552,350,cs),
(531,224,o),
(441,146,o),
(315,146,cs),
(214,146,l)
);
}
);
userData = {
com.hugojourdan.ColorFlow = {
"0" = 0;
"1" = 0;
"10" = 0;
"11" = 0;
"2" = 0;
"3" = 0;
"4" = 0;
"5" = 1;
"6" = 0;
"7" = 0;
"8" = 0;
"9" = 0;
};
com.hugojourdan.ColorFlow_Color_5 = "5";
};
width = 740;
},
{
anchors = (
{
name = center;
pos = (188,350);
},
{
name = top;
pos = (371,700);
}
);
layerId = "8D5D41BF-E921-4DFA-A794-BFB439395CD4";
shapes = (
{
closed = 1;
nodes = (
(240,0,ls),
(441,0,o),
(568,122,o),
(606,350,cs),
(644,579,o),
(558,700,o),
(357,700,cs),
(149,700,l),
(32,0,l)
);
},
{
closed = 1;
nodes = (
(233,619,l),
(342,619,ls),
(487,619,o),
(537,530,o),
(507,350,cs),
(477,171,o),
(397,81,o),
(252,81,cs),
(143,81,l)
);
}
);
userData = {
com.hugojourdan.ColorFlow = {
"0" = 0;
"1" = 0;
"10" = 0;
"11" = 0;
"2" = 0;
"3" = 0;
"4" = 0;
"5" = 1;
"6" = 0;
"7" = 0;
"8" = 0;
"9" = 0;
};
com.hugojourdan.ColorFlow_Color_5 = "5";
};
width = 634;
},
{
anchors = (
{
name = center;
pos = (191,350);
},
{
name = top;
pos = (372,700);
}
);
layerId = "126A7EFF-FBED-4747-9AEA-B121032D7D8F";
shapes = (
{
closed = 1;
nodes = (
(261,0,ls),
(460,0,o),
(590,132,o),
(627,350,cs),
(664,570,o),
(577,700,o),
(378,700,cs),
(125,700,l),
(8,0,l)
);
},
{
closed = 1;
nodes = (
(275,554,l),
(342,554,ls),
(443,554,o),
(473,488,o),
(450,350,cs),
(427,212,o),
(375,146,o),
(274,146,cs),
(207,146,l)
);
}
);
userData = {
com.hugojourdan.ColorFlow = {
"0" = 0;
"1" = 0;
"10" = 0;
"11" = 0;
"2" = 0;
"3" = 0;
"4" = 0;
"5" = 1;
"6" = 0;
"7" = 0;
"8" = 0;
"9" = 0;
};
com.hugojourdan.ColorFlow_Color_5 = "5";
};
width = 637;
},
{
anchors = (
{
name = center;
pos = (129,350);
},
{
name = top;
pos = (353,700);
}
);
layerId = "15C5E54C-51CA-433B-8F99-9031AB3E7AD6";
shapes = (
{
closed = 1;
nodes = (
(218,0,ls),
(434,0,o),
(547,117,o),
(586,350,cs),
(625,583,o),
(551,700,o),
(335,700,cs),
(165,700,l),
(48,0,l)
);
},
{
closed = 1;
nodes = (
(184,680,l),
(332,680,ls),
(538,680,o),
(601,566,o),
(565,350,cs),
(529,134,o),
(428,20,o),
(222,20,cs),
(74,20,l)
);
}
);
userData = {
com.hugojourdan.ColorFlow = {
"0" = 0;
"1" = 0;
"10" = 0;
"11" = 0;
"2" = 0;
"3" = 0;
"4" = 0;
"5" = 1;
"6" = 0;
"7" = 0;
"8" = 0;
"9" = 0;
};
com.hugojourdan.ColorFlow_Color_5 = "5";
};
width = 626;
}
);
unicode = 68;
},
{
color = 10;
glyphname = E;
kernLeft = KO_H;
kernRight = KO_E;
lastChange = "2024-03-29 20:25:54 +0000";
layers = (
{
anchors = (
{
name = "#entry";
pos = (121,350);
},
{
name = bottom;
pos = (250,0);
},
{
name = ogonek;
pos = (446,0);
},
{
name = top;
pos = (396,700);
}
);
layerId = "58bebe4f-9ca5-4d90-881b-c2d59ecd3066";
shapes = (
{
closed = 1;
nodes = (
(516,0,l),
(520,20,l),
(88,20,l),
(143,350,l),
(472,350,l),
(475,370,l),
(146,370,l),
(198,680,l),
(630,680,l),
(633,700,l),
(179,700,l),
(62,0,l)
);
}
);
userData = {
com.hugojourdan.ColorFlow = {
"0" = 0;
"1" = 0;
"10" = 0;
"11" = 0;
"2" = 0;
"3" = 0;
"4" = 0;
"5" = 1;
"6" = 0;
"7" = 0;
"8" = 0;
"9" = 0;
};
com.hugojourdan.ColorFlow_Color_5 = "5";
};
width = 595;
},
{
anchors = (
{
name = "#entry";
pos = (80,350);
},
{
name = bottom;
pos = (308,0);
},
{
name = ogonek;
pos = (506,0);
},
{
name = top;
pos = (318,700);
}
);
associatedMasterId = "58bebe4f-9ca5-4d90-881b-c2d59ecd3066";
layerId = "25E89D2F-02F0-4399-95CA-89CA3BCFE347";
shapes = (
{
closed = 1;
nodes = (
(556,0,l),
(556,97,l),
(196,97,l),
(196,306,l),
(466,306,l),
(466,403,l),
(196,403,l),
(196,603,l),
(556,603,l),
(556,700,l),
(80,700,l),
(80,0,l)
);
}
);
userData = {
com.hugojourdan.ColorFlow = {
"0" = 0;
"1" = 0;
"10" = 0;
"11" = 0;
"2" = 0;
"3" = 0;
"4" = 0;
"5" = 1;
"6" = 0;
"7" = 0;
"8" = 0;
"9" = 0;
};
com.hugojourdan.ColorFlow_Color_5 = "5";
};
width = 594.76364;
},
{
anchors = (
{
name = "#entry";
pos = (68,350);
},
{
name = bottom;
pos = (264,0);
},
{
name = ogonek;
pos = (435,0);
},
{
name = top;
pos = (271,700);
}
);
associatedMasterId = "58bebe4f-9ca5-4d90-881b-c2d59ecd3066";
layerId = "2AB3FA96-95EA-4240-97E3-78C2F7A3A7BC";
shapes = (
{
closed = 1;
nodes = (
(477,0,l),
(477,97,l),
(184,97,l),
(184,306,l),
(402,306,l),
(402,403,l),
(184,403,l),
(184,603,l),
(477,603,l),
(477,700,l),
(68,700,l),
(68,0,l)
);
}
);
userData = {
com.hugojourdan.ColorFlow = {
"0" = 0;
"1" = 0;
"10" = 0;
"11" = 0;
"2" = 0;
"3" = 0;
"4" = 0;
"5" = 1;
"6" = 0;
"7" = 0;
"8" = 0;
"9" = 0;
};
com.hugojourdan.ColorFlow_Color_5 = "5";
};
width = 505.44554;
},
{
anchors = (
{
name = "#entry";
pos = (61,350);
},
{
name = bottom;
pos = (266,0);
},
{
name = ogonek;
pos = (445,0);
},
{
name = top;
pos = (271,700);
}
);
associatedMasterId = "58bebe4f-9ca5-4d90-881b-c2d59ecd3066";
layerId = "D70140C1-4A41-4AC8-9C0F-1F1714416C34";
shapes = (
{
closed = 1;
nodes = (
(486,0,l),
(486,114,l),
(197,114,l),
(197,300,l),
(412,300,l),
(412,410,l),
(197,410,l),
(197,586,l),
(486,586,l),
(486,700,l),
(61,700,l),
(61,0,l)
);
}
);
userData = {
com.hugojourdan.ColorFlow = {
"0" = 0;
"1" = 0;
"10" = 0;
"11" = 0;
"2" = 0;
"3" = 0;
"4" = 0;
"5" = 1;
"6" = 0;
"7" = 0;
"8" = 0;
"9" = 0;
};
com.hugojourdan.ColorFlow_Color_5 = "5";
};
width = 513.54685;
},
{
anchors = (
{
name = "#entry";
pos = (101,350);
},
{
name = bottom;
pos = (262,0);
},
{
name = ogonek;
pos = (459,0);
},
{
name = top;
pos = (393,700);
}
);
layerId = "af347eb2-a668-4c91-abbe-f882010a0a43";
shapes = (
{
closed = 1;
nodes = (
(513,0,l),
(527,81,l),
(153,81,l),
(192,315,l),
(473,315,l),
(486,396,l),
(205,396,l),
(243,619,l),
(617,619,l),
(630,700,l),
(159,700,l),
(42,0,l)
);
}
);
userData = {
com.hugojourdan.ColorFlow = {
"0" = 0;
"1" = 0;
"10" = 0;
"11" = 0;
"2" = 0;
"3" = 0;
"4" = 0;
"5" = 1;
"6" = 0;
"7" = 0;
"8" = 0;
"9" = 0;
};
com.hugojourdan.ColorFlow_Color_5 = "5";
};
width = 595;
},
{
anchors = (
{
name = "#entry";
pos = (74,350);
},
{
name = bottom;
pos = (268,1);
},
{
name = ogonek;
pos = (490,1);
},
{
name = top;
pos = (389,700);
}
);
layerId = "edd54720-fbeb-44cd-af84-4ff57ec79b05";
shapes = (
{
closed = 1;
nodes = (
(540,0,l),
(565,146,l),
(214,146,l),
(237,287,l),
(499,287,l),
(522,423,l),
(260,423,l),
(282,554,l),
(633,554,l),
(657,700,l),
(132,700,l),
(15,0,l)
);
}
);
userData = {
com.hugojourdan.ColorFlow = {
"0" = 0;
"1" = 0;
"10" = 0;
"11" = 0;
"2" = 0;
"3" = 0;
"4" = 0;
"5" = 1;
"6" = 0;
"7" = 0;
"8" = 0;
"9" = 0;
};
com.hugojourdan.ColorFlow_Color_5 = "5";
};
width = 615;
},
{
anchors = (
{
name = "#entry";
pos = (91,350);
},
{
name = bottom;
pos = (221,0);
},
{
name = ogonek;
pos = (389,0);
},
{
name = top;
pos = (348,700);
}
);
layerId = "8D5D41BF-E921-4DFA-A794-BFB439395CD4";
shapes = (
{
closed = 1;
nodes = (
(436,0,l),
(450,81,l),
(143,81,l),
(182,315,l),
(412,315,l),
(425,396,l),
(195,396,l),
(233,619,l),
(540,619,l),
(553,700,l),
(149,700,l),
(32,0,l)
);
}
);
userData = {
com.hugojourdan.ColorFlow = {
"0" = 0;
"1" = 0;
"10" = 0;
"11" = 0;
"2" = 0;
"3" = 0;
"4" = 0;
"5" = 1;
"6" = 0;
"7" = 0;
"8" = 0;
"9" = 0;
};
com.hugojourdan.ColorFlow_Color_5 = "5";
};
width = 513;
},
{
anchors = (
{
name = "#entry";
pos = (67,350);
},
{
name = bottom;
pos = (229,1);
},
{
name = ogonek;
pos = (423,1);
},
{
name = top;
pos = (346,700);
}
);
layerId = "126A7EFF-FBED-4747-9AEA-B121032D7D8F";
shapes = (
{
closed = 1;
nodes = (
(464,0,l),
(489,146,l),
(207,146,l),
(230,287,l),
(439,287,l),
(462,423,l),
(253,423,l),
(275,554,l),
(557,554,l),
(581,700,l),
(125,700,l),
(8,0,l)
);
}
);
userData = {
com.hugojourdan.ColorFlow = {
"0" = 0;
"1" = 0;
"10" = 0;
"11" = 0;
"2" = 0;
"3" = 0;
"4" = 0;
"5" = 1;
"6" = 0;
"7" = 0;
"8" = 0;
"9" = 0;
};
com.hugojourdan.ColorFlow_Color_5 = "5";
};
width = 536;
},
{
anchors = (
{
name = "#entry";
pos = (107,350);
},
{
name = bottom;
pos = (204,0);
},
{
name = ogonek;
pos = (367,0);
},
{
name = top;
pos = (345,700);
}
);
layerId = "15C5E54C-51CA-433B-8F99-9031AB3E7AD6";
shapes = (
{
closed = 1;
nodes = (
(434,0,l),
(438,20,l),
(74,20,l),
(129,350,l),
(408,350,l),
(411,370,l),
(132,370,l),
(184,680,l),
(548,680,l),
(551,700,l),
(165,700,l),
(48,0,l)
);
}
);
userData = {
com.hugojourdan.ColorFlow = {
"0" = 0;
"1" = 0;
"10" = 0;
"11" = 0;
"2" = 0;
"3" = 0;
"4" = 0;
"5" = 1;
"6" = 0;
"7" = 0;
"8" = 0;
"9" = 0;
};
com.hugojourdan.ColorFlow_Color_5 = "5";
};
width = 506;
}
);
unicode = 69;
userData = {
KernOnName = E;
};
},
{
color = 10;
glyphname = Schwa;
kernRight = KO_O;
lastChange = "2024-03-29 20:25:54 +0000";
layers = (
{
anchors = (
{
name = top;
pos = (460,706);
}
);
layerId = "58bebe4f-9ca5-4d90-881b-c2d59ecd3066";
shapes = (
{
closed = 1;
nodes = (
(534,-8,o),
(693,134,o),
(729,349,cs),
(764,559,o),
(654,706,o),
(460,706,cs),
(301,706,o),
(158,610,o),
(101,463,c),
(124,463,l),
(180,604,o),
(317,686,o),
(457,686,cs),
(628,686,o),
(740,560,o),
(705,351,cs),
(704,345,ls),
(668,130,o),
(512,12,o),
(338,12,cs),
(153,12,o),
(59,142,o),
(104,338,c),
(710,338,l),
(713,357,l),
(85,357,l),
(81,342,o),
(78,327,o),
(75,312,cs),
(42,110,o),
(152,-8,o),
(335,-8,cs)
);
}
);
userData = {
com.hugojourdan.ColorFlow = {
"0" = 0;
"1" = 0;
"10" = 0;
"11" = 0;
"2" = 0;
"3" = 0;
"4" = 0;
"5" = 1;
"6" = 0;
"7" = 0;
"8" = 0;
"9" = 0;
};
com.hugojourdan.ColorFlow_Color_5 = "5";
};
width = 775;
},
{
anchors = (
{
name = top;
pos = (375,709);
}
);
associatedMasterId = "58bebe4f-9ca5-4d90-881b-c2d59ecd3066";
layerId = "7864118B-93B7-4E46-AA13-3735973C98EB";
shapes = (
{
closed = 1;
nodes = (
(577,-7,o),
(710,140,o),
(710,351,cs),
(710,562,o),
(573,708,o),
(375,708,cs),
(216,708,o),
(100,623,o),
(52,487,c),
(187,487,l),
(217,560,o),
(284,602,o),
(375,602,cs),
(499,602,o),
(584,510,o),
(584,372,cs),
(584,307,ls),
(584,177,o),
(494,98,o),
(376,98,cs),
(254,98,o),
(170,173,o),
(166,286,c),
(605,286,l),
(605,393,l),
(48,393,l),
(45,369,o),
(44,346,o),
(44,326,cs),
(44,113,o),
(180,-7,o),
(376,-7,cs)
);
}
);
userData = {
com.hugojourdan.ColorFlow = {
"0" = 0;
"1" = 0;
"10" = 0;
"11" = 0;
"2" = 0;
"3" = 0;
"4" = 0;
"5" = 1;
"6" = 0;
"7" = 0;
"8" = 0;
"9" = 0;
};
com.hugojourdan.ColorFlow_Color_5 = "5";
};
width = 754.81818;
},
{
anchors = (
{
name = top;
pos = (314,709);
}
);
associatedMasterId = "58bebe4f-9ca5-4d90-881b-c2d59ecd3066";
layerId = "54C2C0E4-E03A-4837-8B7B-6D3A9B3EDBC4";
shapes = (
{
closed = 1;
nodes = (
(484,-7,o),
(596,140,o),
(596,351,cs),
(596,562,o),
(481,708,o),
(314,708,cs),
(179,708,o),
(80,623,o),
(43,487,c),
(176,487,l),
(199,560,o),
(245,602,o),
(315,602,cs),
(409,602,o),
(471,510,o),
(471,372,cs),
(471,307,ls),
(471,177,o),
(404,98,o),
(314,98,cs),
(221,98,o),
(162,173,o),
(159,286,c),
(490,286,l),
(490,393,l),
(39,393,l),
(36,369,o),
(35,346,o),
(35,326,cs),
(35,113,o),
(149,-7,o),
(315,-7,cs)
);
}
);
userData = {
com.hugojourdan.ColorFlow = {
"0" = 0;
"1" = 0;
"10" = 0;
"11" = 0;
"2" = 0;
"3" = 0;
"4" = 0;
"5" = 1;
"6" = 0;
"7" = 0;
"8" = 0;
"9" = 0;
};
com.hugojourdan.ColorFlow_Color_5 = "5";
};
width = 631.86498;
},
{
anchors = (
{
name = top;
pos = (313,711);
}
);
associatedMasterId = "58bebe4f-9ca5-4d90-881b-c2d59ecd3066";
layerId = "38C6FF0F-1EDF-43C4-A3D8-E3EA17D530E9";
shapes = (
{
closed = 1;
nodes = (
(486,-7,o),
(600,139,o),
(600,352,cs),
(600,566,o),
(484,710,o),
(313,710,cs),
(174,710,o),
(73,619,o),
(39,481,c),
(190,481,l),
(210,547,o),
(253,586,o),
(315,586,cs),
(398,586,o),
(457,505,o),
(457,377,cs),
(457,308,ls),
(457,188,o),
(393,117,o),
(313,117,cs),
(231,117,o),
(176,184,o),
(172,285,c),
(476,285,l),
(476,395,l),
(34,395,l),
(32,373,o),
(30,350,o),
(30,330,cs),
(30,116,o),
(145,-7,o),
(314,-7,cs)
);
}
);
userData = {
com.hugojourdan.ColorFlow = {
"0" = 0;
"1" = 0;
"10" = 0;
"11" = 0;
"2" = 0;
"3" = 0;
"4" = 0;
"5" = 1;
"6" = 0;
"7" = 0;
"8" = 0;
"9" = 0;
};
com.hugojourdan.ColorFlow_Color_5 = "5";
};
width = 630.93067;
},
{
anchors = (
{
name = top;
pos = (454,708);
}
);
layerId = "af347eb2-a668-4c91-abbe-f882010a0a43";
shapes = (
{
closed = 1;
nodes = (
(534,-7,o),
(691,139,o),
(727,351,cs),
(762,561,o),
(651,708,o),
(454,708,cs),
(295,708,o),
(162,621,o),
(94,483,c),
(206,483,l),
(252,569,o),
(338,619,o),
(439,619,cs),
(572,619,o),
(650,520,o),
(625,368,cs),
(616,314,ls),
(591,168,o),
(477,81,o),
(348,81,cs),
(214,81,o),
(137,166,o),
(158,296,c),
(631,296,l),
(646,386,l),
(75,386,l),
(69,364,o),
(65,343,o),
(61,323,cs),
(26,112,o),
(141,-7,o),
(333,-7,cs)
);
}
);
userData = {
com.hugojourdan.ColorFlow = {
"0" = 0;
"1" = 0;
"10" = 0;
"11" = 0;
"2" = 0;
"3" = 0;
"4" = 0;
"5" = 1;
"6" = 0;
"7" = 0;
"8" = 0;
"9" = 0;
};
com.hugojourdan.ColorFlow_Color_5 = "5";
};
width = 758;
},
{
anchors = (
{
name = top;
pos = (450,714);
}
);
layerId = "edd54720-fbeb-44cd-af84-4ff57ec79b05";
shapes = (
{
closed = 1;
nodes = (
(539,-8,o),
(702,136,o),
(738,353,cs),
(775,572,o),
(658,714,o),
(450,714,cs),
(279,714,o),
(138,612,o),
(75,468,c),
(265,468,l),
(296,523,o),
(357,556,o),
(426,556,cs),
(516,556,o),
(579,494,o),
(561,385,cs),
(548,309,ls),
(531,210,o),
(444,153,o),
(354,153,cs),
(264,153,o),
(206,206,o),
(215,284,c),
(567,284,l),
(586,400,l),
(57,400,l),
(52,380,o),
(46,358,o),
(43,339,cs),
(7,122,o),
(123,-8,o),
(330,-8,cs)
);
}
);
userData = {
com.hugojourdan.ColorFlow = {
"0" = 0;
"1" = 0;
"10" = 0;
"11" = 0;
"2" = 0;
"3" = 0;
"4" = 0;
"5" = 1;
"6" = 0;
"7" = 0;
"8" = 0;
"9" = 0;
};
com.hugojourdan.ColorFlow_Color_5 = "5";
};
width = 750;
},
{
anchors = (
{
name = top;
pos = (396,708);
}
);
layerId = "8D5D41BF-E921-4DFA-A794-BFB439395CD4";
shapes = (
{
closed = 1;
nodes = (
(445,-7,o),
(580,139,o),
(616,351,cs),
(651,561,o),
(562,708,o),
(396,708,cs),
(261,708,o),
(147,621,o),
(88,483,c),
(199,483,l),
(238,569,o),
(303,619,o),
(382,619,cs),
(486,619,o),
(540,520,o),
(515,368,cs),
(506,314,ls),
(481,168,o),
(391,81,o),
(290,81,cs),
(185,81,o),
(133,166,o),
(154,296,c),
(519,296,l),
(534,386,l),
(70,386,l),
(64,364,o),
(60,343,o),
(56,323,cs),
(21,112,o),
(113,-7,o),
(275,-7,cs)
);
}
);
userData = {
com.hugojourdan.ColorFlow = {
"0" = 0;
"1" = 0;
"10" = 0;
"11" = 0;
"2" = 0;
"3" = 0;
"4" = 0;
"5" = 1;
"6" = 0;
"7" = 0;
"8" = 0;
"9" = 0;
};
com.hugojourdan.ColorFlow_Color_5 = "5";
};
width = 642;
},
{
anchors = (
{
name = top;
pos = (396,714);
}
);
layerId = "126A7EFF-FBED-4747-9AEA-B121032D7D8F";
shapes = (
{
closed = 1;
nodes = (
(453,-8,o),
(594,136,o),
(630,353,cs),
(667,572,o),
(572,714,o),
(396,714,cs),
(249,714,o),
(127,612,o),
(73,468,c),
(258,468,l),
(282,523,o),
(325,556,o),
(373,556,cs),
(433,556,o),
(475,494,o),
(457,385,cs),
(444,309,ls),
(427,210,o),
(362,153,o),
(299,153,cs),
(239,153,o),
(202,206,o),
(211,284,c),
(460,284,l),
(479,400,l),
(55,400,l),
(50,380,o),
(44,358,o),
(41,339,cs),
(5,122,o),
(99,-8,o),
(276,-8,cs)
);
}
);
userData = {
com.hugojourdan.ColorFlow = {
"0" = 0;
"1" = 0;
"10" = 0;
"11" = 0;
"2" = 0;
"3" = 0;
"4" = 0;
"5" = 1;
"6" = 0;
"7" = 0;
"8" = 0;
"9" = 0;
};
com.hugojourdan.ColorFlow_Color_5 = "5";
};
width = 640;
},
{
anchors = (
{
name = top;
pos = (397,706);
}
);
layerId = "15C5E54C-51CA-433B-8F99-9031AB3E7AD6";
shapes = (
{
closed = 1;
nodes = (
(439,-8,o),
(575,134,o),
(611,349,cs),
(646,559,o),
(559,706,o),
(397,706,cs),
(264,706,o),
(143,610,o),
(91,463,c),
(113,463,l),
(164,604,o),
(277,686,o),
(394,686,cs),
(536,686,o),
(624,560,o),
(589,351,cs),
(588,345,ls),
(552,130,o),
(421,12,o),
(276,12,cs),
(122,12,o),
(50,142,o),
(93,338,c),
(592,338,l),
(595,357,l),
(75,357,l),
(71,342,o),
(68,327,o),
(65,312,cs),
(32,110,o),
(121,-8,o),
(273,-8,cs)
);
}
);
userData = {
com.hugojourdan.ColorFlow = {
"0" = 0;
"1" = 0;
"10" = 0;
"11" = 0;
"2" = 0;
"3" = 0;
"4" = 0;
"5" = 1;
"6" = 0;
"7" = 0;
"8" = 0;
"9" = 0;
};
com.hugojourdan.ColorFlow_Color_5 = "5";
};
width = 648;
}
);
unicode = 399;
},
{
color = 10;
glyphname = F;
kernLeft = KO_H;
kernRight = KO_F;
lastChange = "2024-03-29 20:25:54 +0000";
layers = (
{
layerId = "58bebe4f-9ca5-4d90-881b-c2d59ecd3066";
shapes = (
{
closed = 1;
nodes = (
(84,0,l),
(143,350,l),
(472,350,l),
(475,370,l),
(146,370,l),
(198,680,l),
(630,680,l),
(633,700,l),
(179,700,l),
(62,0,l)
);
}
);
userData = {
com.hugojourdan.ColorFlow = {
"0" = 0;
"1" = 0;
"10" = 0;
"11" = 0;
"2" = 0;
"3" = 0;
"4" = 0;
"5" = 1;
"6" = 0;
"7" = 0;
"8" = 0;
"9" = 0;
};
com.hugojourdan.ColorFlow_Color_5 = "5";
};
width = 588;
},
{
associatedMasterId = "58bebe4f-9ca5-4d90-881b-c2d59ecd3066";
layerId = "3B74F4BD-9BC8-40D9-8385-E0EF7CF2E9D1";
shapes = (
{
closed = 1;
nodes = (
(196,0,l),
(196,306,l),
(466,306,l),
(466,403,l),
(196,403,l),
(196,603,l),
(556,603,l),
(556,700,l),
(80,700,l),
(80,0,l)
);
}
);
userData = {
com.hugojourdan.ColorFlow = {
"0" = 0;
"1" = 0;
"10" = 0;
"11" = 0;
"2" = 0;
"3" = 0;
"4" = 0;
"5" = 1;
"6" = 0;
"7" = 0;
"8" = 0;
"9" = 0;
};
com.hugojourdan.ColorFlow_Color_5 = "5";
};
width = 582.83636;
},
{
associatedMasterId = "58bebe4f-9ca5-4d90-881b-c2d59ecd3066";
layerId = "4D567B33-DC11-4FFC-B5CC-CEE2756C33B8";
shapes = (
{
closed = 1;
nodes = (
(184,0,l),
(184,306,l),
(402,306,l),
(402,403,l),
(184,403,l),
(184,603,l),
(477,603,l),
(477,700,l),
(68,700,l),
(68,0,l)
);
}
);
userData = {
com.hugojourdan.ColorFlow = {
"0" = 0;
"1" = 0;
"10" = 0;
"11" = 0;
"2" = 0;
"3" = 0;
"4" = 0;
"5" = 1;
"6" = 0;
"7" = 0;
"8" = 0;
"9" = 0;
};
com.hugojourdan.ColorFlow_Color_5 = "5";
};
width = 494.09487;
},
{
associatedMasterId = "58bebe4f-9ca5-4d90-881b-c2d59ecd3066";
layerId = "0EC4F2B6-7B28-4401-AD24-EC34344E5ABB";
shapes = (
{
closed = 1;
nodes = (
(197,0,l),
(197,300,l),
(412,300,l),
(412,410,l),
(197,410,l),
(197,586,l),
(486,586,l),
(486,700,l),
(61,700,l),
(61,0,l)
);
}
);
userData = {
com.hugojourdan.ColorFlow = {
"0" = 0;
"1" = 0;
"10" = 0;
"11" = 0;
"2" = 0;
"3" = 0;
"4" = 0;
"5" = 1;
"6" = 0;
"7" = 0;
"8" = 0;
"9" = 0;
};
com.hugojourdan.ColorFlow_Color_5 = "5";
};
width = 502.4997;
},
{
layerId = "af347eb2-a668-4c91-abbe-f882010a0a43";
shapes = (
{
closed = 1;
nodes = (
(139,0,l),
(192,315,l),
(473,315,l),
(486,396,l),
(205,396,l),
(243,619,l),
(617,619,l),
(630,700,l),
(159,700,l),
(42,0,l)
);
}
);
userData = {
com.hugojourdan.ColorFlow = {
"0" = 0;
"1" = 0;
"10" = 0;
"11" = 0;
"2" = 0;
"3" = 0;
"4" = 0;
"5" = 1;
"6" = 0;
"7" = 0;
"8" = 0;
"9" = 0;
};
com.hugojourdan.ColorFlow_Color_5 = "5";
};
width = 585;
},
{
layerId = "edd54720-fbeb-44cd-af84-4ff57ec79b05";
shapes = (
{
closed = 1;
nodes = (
(189,0,l),
(237,287,l),
(499,287,l),
(522,423,l),
(260,423,l),
(282,554,l),
(633,554,l),
(657,700,l),
(132,700,l),
(15,0,l)
);
}
);
userData = {
com.hugojourdan.ColorFlow = {
"0" = 0;
"1" = 0;
"10" = 0;
"11" = 0;
"2" = 0;
"3" = 0;
"4" = 0;
"5" = 1;
"6" = 0;
"7" = 0;
"8" = 0;
"9" = 0;
};
com.hugojourdan.ColorFlow_Color_5 = "5";
};
width = 605;
},
{
layerId = "8D5D41BF-E921-4DFA-A794-BFB439395CD4";
shapes = (
{
closed = 1;
nodes = (
(129,0,l),
(182,315,l),
(412,315,l),
(425,396,l),
(195,396,l),
(233,619,l),
(540,619,l),
(553,700,l),
(149,700,l),
(32,0,l)
);
}
);
userData = {
com.hugojourdan.ColorFlow = {
"0" = 0;
"1" = 0;
"10" = 0;
"11" = 0;
"2" = 0;
"3" = 0;
"4" = 0;
"5" = 1;
"6" = 0;
"7" = 0;
"8" = 0;
"9" = 0;
};
com.hugojourdan.ColorFlow_Color_5 = "5";
};
width = 505;
},
{
layerId = "126A7EFF-FBED-4747-9AEA-B121032D7D8F";
shapes = (
{
closed = 1;
nodes = (
(182,0,l),
(230,287,l),
(439,287,l),
(462,423,l),
(253,423,l),
(275,554,l),
(557,554,l),
(581,700,l),
(125,700,l),
(8,0,l)
);
}
);
userData = {
com.hugojourdan.ColorFlow = {
"0" = 0;
"1" = 0;
"10" = 0;
"11" = 0;
"2" = 0;
"3" = 0;
"4" = 0;
"5" = 1;
"6" = 0;
"7" = 0;
"8" = 0;
"9" = 0;
};
com.hugojourdan.ColorFlow_Color_5 = "5";
};
width = 529;
},
{
layerId = "15C5E54C-51CA-433B-8F99-9031AB3E7AD6";
shapes = (
{
closed = 1;
nodes = (
(70,0,l),
(129,350,l),
(408,350,l),
(411,370,l),
(132,370,l),
(184,680,l),
(548,680,l),
(551,700,l),
(165,700,l),
(48,0,l)
);
}
);
userData = {
com.hugojourdan.ColorFlow = {
"0" = 0;
"1" = 0;
"10" = 0;
"11" = 0;
"2" = 0;
"3" = 0;
"4" = 0;
"5" = 1;
"6" = 0;
"7" = 0;
"8" = 0;
"9" = 0;
};
com.hugojourdan.ColorFlow_Color_5 = "5";
};
width = 500;
}
);
unicode = 70;
userData = {
KernOnName = F;
};
},
{
color = 10;
glyphname = G;
kernLeft = KO_O;
kernRight = KO_G;
lastChange = "2024-03-29 20:25:54 +0000";
layers = (
{
anchors = (
{
name = bottom;
pos = (371,0);
},
{
name = top;
pos = (488,700);
}
);
layerId = "58bebe4f-9ca5-4d90-881b-c2d59ecd3066";
shapes = (
{
closed = 1;
nodes = (
(515,-7,o),
(654,91,o),
(719,240,c),
(739,359,l),
(417,359,l),
(414,339,l),
(714,339,l),
(698,242,l),
(634,98,o),
(500,13,o),
(359,13,cs),
(184,13,o),
(66,141,o),
(101,350,cs),
(136,560,o),
(297,687,o),
(472,687,cs),
(612,687,o),
(701,609,o),
(726,502,c),
(745,509,l),
(714,629,o),
(623,707,o),
(475,707,cs),
(279,707,o),
(114,560,o),
(79,350,cs),
(44,140,o),
(160,-7,o),
(356,-7,cs)
);
}
);
userData = {
com.hugojourdan.ColorFlow = {
"0" = 0;
"1" = 0;
"10" = 0;
"11" = 0;
"2" = 0;
"3" = 0;
"4" = 0;
"5" = 1;
"6" = 0;
"7" = 0;
"8" = 0;
"9" = 0;
};
com.hugojourdan.ColorFlow_Color_5 = "5";
};
width = 780;
},
{
anchors = (
{
name = bottom;
pos = (391,0);
},
{
name = top;
pos = (391,700);
}
);
associatedMasterId = "58bebe4f-9ca5-4d90-881b-c2d59ecd3066";
layerId = "270CE3F6-3CE1-47A5-AF0E-BA5A74EFD0E5";
shapes = (
{
closed = 1;
nodes = (
(554,-7,o),
(679,89,o),
(727,213,c),
(727,387,l),
(406,387,l),
(406,291,l),
(609,291,l),
(609,220,l),
(574,144,o),
(491,92,o),
(398,92,cs),
(265,92,o),
(161,197,o),
(161,350,cs),
(161,503,o),
(268,608,o),
(401,608,cs),
(484,608,o),
(561,571,o),
(610,483,c),
(712,520,l),
(658,641,o),
(531,707,o),
(397,707,cs),
(201,707,o),
(42,559,o),
(42,350,cs),
(42,140,o),
(201,-7,o),
(398,-7,cs)
);
}
);
userData = {
com.hugojourdan.ColorFlow = {
"0" = 0;
"1" = 0;
"10" = 0;
"11" = 0;
"2" = 0;
"3" = 0;
"4" = 0;
"5" = 1;
"6" = 0;
"7" = 0;
"8" = 0;
"9" = 0;
};
com.hugojourdan.ColorFlow_Color_5 = "5";
};
width = 771.09091;
},
{
anchors = (
{
name = bottom;
pos = (327,0);
},
{
name = top;
pos = (327,700);
}
);
associatedMasterId = "58bebe4f-9ca5-4d90-881b-c2d59ecd3066";
layerId = "1C927953-EE46-4D03-95D3-C546FF0F9312";
shapes = (
{
closed = 1;
nodes = (
(473,-7,o),
(588,87,o),
(607,213,cs),
(607,387,l),
(338,387,l),
(338,291,l),
(490,291,l),
(490,220,ls),
(476,144,o),
(415,92,o),
(331,92,cs),
(212,92,o),
(155,185,o),
(155,350,cs),
(155,515,o),
(215,608,o),
(332,608,cs),
(409,608,o),
(465,571,o),
(496,483,c),
(597,520,l),
(560,641,o),
(456,707,o),
(333,707,cs),
(145,707,o),
(37,571,o),
(37,350,cs),
(37,128,o),
(145,-7,o),
(334,-7,cs)
);
}
);
userData = {
com.hugojourdan.ColorFlow = {
"0" = 0;
"1" = 0;
"10" = 0;
"11" = 0;
"2" = 0;
"3" = 0;
"4" = 0;
"5" = 1;
"6" = 0;
"7" = 0;
"8" = 0;
"9" = 0;
};
com.hugojourdan.ColorFlow_Color_5 = "5";
};
width = 645.13771;
},
{
anchors = (
{
name = bottom;
pos = (322,0);
},
{
name = top;
pos = (322,700);
}
);
associatedMasterId = "58bebe4f-9ca5-4d90-881b-c2d59ecd3066";
layerId = "5C544914-3927-4521-ADBC-E3C96C744718";
shapes = (
{
closed = 1;
nodes = (
(474,-7,o),
(584,87,o),
(604,209,cs),
(604,392,l),
(332,392,l),
(332,282,l),
(471,282,l),
(471,225,ls),
(458,158,o),
(406,109,o),
(330,109,cs),
(220,109,o),
(170,194,o),
(170,350,cs),
(170,503,o),
(222,591,o),
(329,591,cs),
(400,591,o),
(449,557,o),
(475,478,c),
(596,516,l),
(561,638,o),
(458,707,o),
(328,707,cs),
(139,707,o),
(32,571,o),
(32,350,cs),
(32,128,o),
(140,-7,o),
(330,-7,cs)
);
}
);
userData = {
com.hugojourdan.ColorFlow = {
"0" = 0;
"1" = 0;
"10" = 0;
"11" = 0;
"2" = 0;
"3" = 0;
"4" = 0;
"5" = 1;
"6" = 0;
"7" = 0;
"8" = 0;
"9" = 0;
};
com.hugojourdan.ColorFlow_Color_5 = "5";
};
width = 637.65794;
},
{
anchors = (
{
name = bottom;
pos = (355,0);
},
{
name = top;
pos = (472,700);
}
);
layerId = "af347eb2-a668-4c91-abbe-f882010a0a43";
shapes = (
{
closed = 1;
nodes = (
(513,-7,o),
(653,89,o),
(722,219,c),
(749,381,l),
(429,381,l),
(416,301,l),
(637,301,l),
(623,223,l),
(573,135,o),
(473,76,o),
(370,76,cs),
(229,76,o),
(135,186,o),
(163,350,cs),
(190,514,o),
(323,624,o),
(465,624,cs),
(559,624,o),
(633,580,o),
(665,486,c),
(756,518,l),
(723,639,o),
(611,707,o),
(475,707,cs),
(279,707,o),
(99,559,o),
(64,350,cs),
(29,140,o),
(160,-7,o),
(356,-7,cs)
);
}
);
userData = {
com.hugojourdan.ColorFlow = {
"0" = 0;
"1" = 0;
"10" = 0;
"11" = 0;
"2" = 0;
"3" = 0;
"4" = 0;
"5" = 1;
"6" = 0;
"7" = 0;
"8" = 0;
"9" = 0;
};
com.hugojourdan.ColorFlow_Color_5 = "5";
};
width = 775;
},
{
anchors = (
{
name = bottom;
pos = (334,1);
},
{
name = top;
pos = (451,700);
}
);
layerId = "edd54720-fbeb-44cd-af84-4ff57ec79b05";
shapes = (
{
closed = 1;
nodes = (
(514,-7,o),
(641,94,o),
(706,196,c),
(740,401,l),
(412,401,l),
(390,265,l),
(558,265,l),
(553,236,l),
(510,179,o),
(452,141,o),
(381,141,cs),
(260,141,o),
(200,223,o),
(222,350,cs),
(241,468,o),
(334,559,o),
(442,559,cs),
(513,559,o),
(560,531,o),
(582,470,c),
(752,508,l),
(729,631,o),
(615,707,o),
(460,707,cs),
(249,707,o),
(80,559,o),
(45,350,cs),
(10,141,o),
(131,-7,o),
(343,-7,cs)
);
}
);
userData = {
com.hugojourdan.ColorFlow = {
"0" = 0;
"1" = 0;
"10" = 0;
"11" = 0;
"2" = 0;
"3" = 0;
"4" = 0;
"5" = 1;
"6" = 0;
"7" = 0;
"8" = 0;
"9" = 0;
};
com.hugojourdan.ColorFlow_Color_5 = "5";
};
width = 747;
},
{
anchors = (
{
name = bottom;
pos = (294,0);
},
{
name = top;
pos = (411,700);
}
);
layerId = "8D5D41BF-E921-4DFA-A794-BFB439395CD4";
shapes = (
{
closed = 1;
nodes = (
(436,-7,o),
(565,86,o),
(606,219,c),
(633,381,l),
(365,381,l),
(352,301,l),
(522,301,l),
(508,223,l),
(479,134,o),
(401,76,o),
(308,76,cs),
(180,76,o),
(131,174,o),
(161,350,cs),
(190,526,o),
(274,624,o),
(401,624,cs),
(487,624,o),
(539,580,o),
(555,486,c),
(645,518,l),
(628,639,o),
(538,707,o),
(414,707,cs),
(227,707,o),
(99,571,o),
(62,350,cs),
(25,128,o),
(108,-7,o),
(295,-7,cs)
);
}
);
userData = {
com.hugojourdan.ColorFlow = {
"0" = 0;
"1" = 0;
"10" = 0;
"11" = 0;
"2" = 0;
"3" = 0;
"4" = 0;
"5" = 1;
"6" = 0;
"7" = 0;
"8" = 0;
"9" = 0;
};
com.hugojourdan.ColorFlow_Color_5 = "5";
};
width = 656;
},
{
anchors = (
{
name = bottom;
pos = (275,1);
},
{
name = top;
pos = (392,700);
}
);
layerId = "126A7EFF-FBED-4747-9AEA-B121032D7D8F";
shapes = (
{
closed = 1;
nodes = (
(437,-7,o),
(555,88,o),
(593,200,c),
(626,401,l),
(350,401,l),
(328,265,l),
(444,265,l),
(439,236,l),
(416,184,o),
(375,141,o),
(314,141,cs),
(223,141,o),
(198,211,o),
(221,350,cs),
(243,480,o),
(294,559,o),
(381,559,cs),
(438,559,o),
(469,528,o),
(476,470,c),
(642,508,l),
(632,633,o),
(542,707,o),
(401,707,cs),
(209,707,o),
(81,571,o),
(44,350,cs),
(7,129,o),
(91,-7,o),
(284,-7,cs)
);
}
);
userData = {
com.hugojourdan.ColorFlow = {
"0" = 0;
"1" = 0;
"10" = 0;
"11" = 0;
"2" = 0;
"3" = 0;
"4" = 0;
"5" = 1;
"6" = 0;
"7" = 0;
"8" = 0;
"9" = 0;
};
com.hugojourdan.ColorFlow_Color_5 = "5";
};
width = 632;
},
{
anchors = (
{
name = bottom;
pos = (307,0);
},
{
name = top;
pos = (424,700);
}
);
layerId = "15C5E54C-51CA-433B-8F99-9031AB3E7AD6";
shapes = (
{
closed = 1;
nodes = (
(438,-7,o),
(562,86,o),
(603,240,c),
(623,359,l),
(355,359,l),
(352,339,l),
(598,339,l),
(582,242,l),
(542,97,o),
(426,13,o),
(297,13,cs),
(135,13,o),
(58,129,o),
(96,350,cs),
(132,572,o),
(248,687,o),
(410,687,cs),
(536,687,o),
(598,609,o),
(613,502,c),
(632,509,l),
(614,629,o),
(548,707,o),
(413,707,cs),
(230,707,o),
(110,572,o),
(74,350,cs),
(36,128,o),
(111,-7,o),
(294,-7,cs)
);
}
);
userData = {
com.hugojourdan.ColorFlow = {
"0" = 0;
"1" = 0;
"10" = 0;
"11" = 0;
"2" = 0;
"3" = 0;
"4" = 0;
"5" = 1;
"6" = 0;
"7" = 0;
"8" = 0;
"9" = 0;
};
com.hugojourdan.ColorFlow_Color_5 = "5";
};
width = 658;
}
);
unicode = 71;
userData = {
KernOnName = G;
};
},
{
color = 10;
glyphname = H;
kernLeft = KO_H;
kernRight = KO_H;
lastChange = "2024-07-30 18:04:06 +0000";
layers = (
{
anchors = (
{
name = center;
pos = (420,535);
},
{
name = top;
pos = (447,700);
}
);
layerId = "58bebe4f-9ca5-4d90-881b-c2d59ecd3066";
shapes = (
{
closed = 1;
nodes = (
(84,0,l),
(143,350,l),
(636,350,l),
(577,0,l),
(599,0,l),
(716,700,l),
(694,700,l),
(639,370,l),
(146,370,l),
(201,700,l),
(179,700,l),
(62,0,l)
);
}
);
userData = {
com.hugojourdan.ColorFlow = {
"0" = 0;
"1" = 0;
"10" = 0;
"11" = 0;
"2" = 0;
"3" = 0;
"4" = 0;
"5" = 1;
"6" = 0;
"7" = 0;
"8" = 0;
"9" = 0;
};
com.hugojourdan.ColorFlow_Color_5 = "5";
};
width = 744.99596;
},
{
anchors = (
{
name = center;
pos = (362,551);
},
{
name = top;
pos = (362,700);
}
);
associatedMasterId = "58bebe4f-9ca5-4d90-881b-c2d59ecd3066";
layerId = "5B64408F-DAF5-4899-9C4F-3A730E26BE63";
shapes = (
{
closed = 1;
nodes = (
(196,0,l),
(196,306,l),
(529,306,l),
(529,0,l),
(645,0,l),
(645,700,l),
(529,700,l),
(529,403,l),
(196,403,l),
(196,700,l),
(80,700,l),
(80,0,l)
);
}
);
userData = {
com.hugojourdan.ColorFlow = {
"0" = 0;
"1" = 0;
"10" = 0;
"11" = 0;
"2" = 0;
"3" = 0;
"4" = 0;
"5" = 1;
"6" = 0;
"7" = 0;
"8" = 0;
"9" = 0;
};
com.hugojourdan.ColorFlow_Color_5 = "5";
};
width = 725.03636;
},
{
anchors = (
{
name = center;
pos = (309,551);
},
{
name = top;
pos = (309,700);
}
);
associatedMasterId = "58bebe4f-9ca5-4d90-881b-c2d59ecd3066";
layerId = "7C002C78-8084-4456-B7A4-507A28202258";
shapes = (
{
closed = 1;
nodes = (
(184,0,l),
(184,306,l),
(435,306,l),
(435,0,l),
(551,0,l),
(551,700,l),
(435,700,l),
(435,403,l),
(184,403,l),
(184,700,l),
(68,700,l),
(68,0,l)
);
}
);
userData = {
com.hugojourdan.ColorFlow = {
"0" = 0;
"1" = 0;
"10" = 0;
"11" = 0;
"2" = 0;
"3" = 0;
"4" = 0;
"5" = 1;
"6" = 0;
"7" = 0;
"8" = 0;
"9" = 0;
};
com.hugojourdan.ColorFlow_Color_5 = "5";
};
width = 618.97677;
},
{
anchors = (
{
name = center;
pos = (310,556);
},
{
name = top;
pos = (310,700);
}
);
associatedMasterId = "58bebe4f-9ca5-4d90-881b-c2d59ecd3066";
layerId = "80B78476-50FD-44EE-AA80-01BB5AC5AB32";
shapes = (
{
closed = 1;
nodes = (
(197,0,l),
(197,298,l),
(424,298,l),
(424,0,l),
(560,0,l),
(560,700,l),
(424,700,l),
(424,411,l),
(197,411,l),
(197,700,l),
(61,700,l),
(61,0,l)
);
}
);
userData = {
com.hugojourdan.ColorFlow = {
"0" = 0;
"1" = 0;
"10" = 0;
"11" = 0;
"2" = 0;
"3" = 0;
"4" = 0;
"5" = 1;
"6" = 0;
"7" = 0;
"8" = 0;
"9" = 0;
};
com.hugojourdan.ColorFlow_Color_5 = "5";
};
width = 621.41018;
},
{
anchors = (
{
name = center;
pos = (413,548);
},
{
name = top;
pos = (438,700);
}
);
layerId = "af347eb2-a668-4c91-abbe-f882010a0a43";
shapes = (
{
closed = 1;
nodes = (
(139,0,l),
(192,315,l),
(556,315,l),
(503,0,l),
(600,0,l),
(717,700,l),
(620,700,l),
(569,396,l),
(205,396,l),
(256,700,l),
(159,700,l),
(42,0,l)
);
}
);
userData = {
com.hugojourdan.ColorFlow = {
"0" = 0;
"1" = 0;
"10" = 0;
"11" = 0;
"2" = 0;
"3" = 0;
"4" = 0;
"5" = 1;
"6" = 0;
"7" = 0;
"8" = 0;
"9" = 0;
};
com.hugojourdan.ColorFlow_Color_5 = "5";
};
width = 726;
},
{
anchors = (
{
name = center;
pos = (416,564);
},
{
name = top;
pos = (438,700);
}
);
layerId = "edd54720-fbeb-44cd-af84-4ff57ec79b05";
shapes = (
{
closed = 1;
nodes = (
(189,0,l),
(236,282,l),
(500,282,l),
(453,0,l),
(627,0,l),
(744,700,l),
(570,700,l),
(525,428,l),
(261,428,l),
(306,700,l),
(132,700,l),
(15,0,l)
);
}
);
userData = {
com.hugojourdan.ColorFlow = {
"0" = 0;
"1" = 0;
"10" = 0;
"11" = 0;
"2" = 0;
"3" = 0;
"4" = 0;
"5" = 1;
"6" = 0;
"7" = 0;
"8" = 0;
"9" = 0;
};
com.hugojourdan.ColorFlow_Color_5 = "5";
};
width = 726;
},
{
anchors = (
{
name = center;
pos = (363,548);
},
{
name = top;
pos = (388,700);
}
);
layerId = "8D5D41BF-E921-4DFA-A794-BFB439395CD4";
shapes = (
{
closed = 1;
nodes = (
(129,0,l),
(182,315,l),
(464,315,l),
(411,0,l),
(508,0,l),
(625,700,l),
(528,700,l),
(477,396,l),
(195,396,l),
(246,700,l),
(149,700,l),
(32,0,l)
);
}
);
userData = {
com.hugojourdan.ColorFlow = {
"0" = 0;
"1" = 0;
"10" = 0;
"11" = 0;
"2" = 0;
"3" = 0;
"4" = 0;
"5" = 1;
"6" = 0;
"7" = 0;
"8" = 0;
"9" = 0;
};
com.hugojourdan.ColorFlow_Color_5 = "5";
};
width = 624;
},
{
anchors = (
{
name = center;
pos = (367,564);
},
{
name = top;
pos = (389,700);
}
);
layerId = "126A7EFF-FBED-4747-9AEA-B121032D7D8F";
shapes = (
{
closed = 1;
nodes = (
(182,0,l),
(229,282,l),
(411,282,l),
(364,0,l),
(538,0,l),
(655,700,l),
(481,700,l),
(436,428,l),
(254,428,l),
(299,700,l),
(125,700,l),
(8,0,l)
);
}
);
userData = {
com.hugojourdan.ColorFlow = {
"0" = 0;
"1" = 0;
"10" = 0;
"11" = 0;
"2" = 0;
"3" = 0;
"4" = 0;
"5" = 1;
"6" = 0;
"7" = 0;
"8" = 0;
"9" = 0;
};
com.hugojourdan.ColorFlow_Color_5 = "5";
};
width = 630;
},
{
anchors = (
{
name = center;
pos = (365,535);
},
{
name = top;
pos = (392,700);
}
);
layerId = "15C5E54C-51CA-433B-8F99-9031AB3E7AD6";
shapes = (
{
closed = 1;
nodes = (
(70,0,l),
(129,350,l),
(539,350,l),
(480,0,l),
(502,0,l),
(619,700,l),
(597,700,l),
(542,370,l),
(132,370,l),
(187,700,l),
(165,700,l),
(48,0,l)
);
}
);
userData = {
com.hugojourdan.ColorFlow = {
"0" = 0;
"1" = 0;
"10" = 0;
"11" = 0;
"2" = 0;
"3" = 0;
"4" = 0;
"5" = 1;
"6" = 0;
"7" = 0;
"8" = 0;
"9" = 0;
};
com.hugojourdan.ColorFlow_Color_5 = "5";
};
width = 634;
}
);
metricRight = "=|";
unicode = 72;
userData = {
KernOnName = H;
};
},
{
color = 10;
glyphname = I;
kernLeft = KO_H;
kernRight = KO_H;
lastChange = "2024-03-29 20:25:54 +0000";
layers = (
{
anchors = (
{
name = ogonek;
pos = (84,0);
},
{
name = top;
pos = (190,700);
}
);
layerId = "58bebe4f-9ca5-4d90-881b-c2d59ecd3066";
shapes = (
{
closed = 1;
nodes = (
(84,0,l),
(201,700,l),
(179,700,l),
(62,0,l)
);
}
);
userData = {
com.hugojourdan.ColorFlow = {
"0" = 0;
"1" = 0;
"10" = 0;
"11" = 0;
"2" = 0;
"3" = 0;
"4" = 0;
"5" = 1;
"6" = 0;
"7" = 0;
"8" = 0;
"9" = 0;
};
com.hugojourdan.ColorFlow_Color_5 = "5";
};
width = 230;
},
{
anchors = (
{
name = ogonek;
pos = (196,1);
},
{
name = top;
pos = (138,700);
}
);
associatedMasterId = "58bebe4f-9ca5-4d90-881b-c2d59ecd3066";
layerId = "B67D024D-00B0-4E1A-8511-50A4805DDEA6";
shapes = (
{
closed = 1;
nodes = (
(196,0,l),
(196,700,l),
(80,700,l),
(80,0,l)
);
}
);
userData = {
com.hugojourdan.ColorFlow = {
"0" = 0;
"1" = 0;
"10" = 0;
"11" = 0;
"2" = 0;
"3" = 0;
"4" = 0;
"5" = 1;
"6" = 0;
"7" = 0;
"8" = 0;
"9" = 0;
};
com.hugojourdan.ColorFlow_Color_5 = "5";
};
width = 276.43636;
},
{
anchors = (
{
name = ogonek;
pos = (185,1);
},
{
name = top;
pos = (129,700);
}
);
associatedMasterId = "58bebe4f-9ca5-4d90-881b-c2d59ecd3066";
layerId = "F91A3F3B-4327-480E-9F19-69E4196890F4";
shapes = (
{
closed = 1;
nodes = (
(184,0,l),
(184,700,l),
(68,700,l),
(68,0,l)
);
}
);
userData = {
com.hugojourdan.ColorFlow = {
"0" = 0;
"1" = 0;
"10" = 0;
"11" = 0;
"2" = 0;
"3" = 0;
"4" = 0;
"5" = 1;
"6" = 0;
"7" = 0;
"8" = 0;
"9" = 0;
};
com.hugojourdan.ColorFlow_Color_5 = "5";
};
width = 252.57677;
},
{
anchors = (
{
name = ogonek;
pos = (198,1);
},
{
name = top;
pos = (132,700);
}
);
associatedMasterId = "58bebe4f-9ca5-4d90-881b-c2d59ecd3066";
layerId = "31183671-F706-4CEC-A67D-1974DBC2A797";
shapes = (
{
closed = 1;
nodes = (
(197,0,l),
(197,700,l),
(61,700,l),
(61,0,l)
);
}
);
userData = {
com.hugojourdan.ColorFlow = {
"0" = 0;
"1" = 0;
"10" = 0;
"11" = 0;
"2" = 0;
"3" = 0;
"4" = 0;
"5" = 1;
"6" = 0;
"7" = 0;
"8" = 0;
"9" = 0;
};
com.hugojourdan.ColorFlow_Color_5 = "5";
};
width = 258.61018;
},
{
anchors = (
{
name = ogonek;
pos = (139,1);
},
{
name = top;
pos = (208,700);
}
);
layerId = "af347eb2-a668-4c91-abbe-f882010a0a43";
shapes = (
{
closed = 1;
nodes = (
(139,0,l),
(256,700,l),
(159,700,l),
(42,0,l)
);
}
);
userData = {
com.hugojourdan.ColorFlow = {
"0" = 0;
"1" = 0;
"10" = 0;
"11" = 0;
"2" = 0;
"3" = 0;
"4" = 0;
"5" = 1;
"6" = 0;
"7" = 0;
"8" = 0;
"9" = 0;
};
com.hugojourdan.ColorFlow_Color_5 = "5";
};
width = 265;
},
{
anchors = (
{
name = ogonek;
pos = (190,1);
},
{
name = top;
pos = (219,700);
}
);
layerId = "edd54720-fbeb-44cd-af84-4ff57ec79b05";
shapes = (
{
closed = 1;
nodes = (
(189,0,l),
(306,700,l),
(132,700,l),
(15,0,l)
);
}
);
userData = {
com.hugojourdan.ColorFlow = {
"0" = 0;
"1" = 0;
"10" = 0;
"11" = 0;
"2" = 0;
"3" = 0;
"4" = 0;
"5" = 1;
"6" = 0;
"7" = 0;
"8" = 0;
"9" = 0;
};
com.hugojourdan.ColorFlow_Color_5 = "5";
};
width = 288;
},
{
anchors = (
{
name = ogonek;
pos = (130,1);
},
{
name = top;
pos = (200,700);
}
);
layerId = "8D5D41BF-E921-4DFA-A794-BFB439395CD4";
shapes = (
{
closed = 1;
nodes = (
(129,0,l),
(246,700,l),
(149,700,l),
(32,0,l)
);
}
);
userData = {
com.hugojourdan.ColorFlow = {
"0" = 0;
"1" = 0;
"10" = 0;
"11" = 0;
"2" = 0;
"3" = 0;
"4" = 0;
"5" = 1;
"6" = 0;
"7" = 0;
"8" = 0;
"9" = 0;
};
com.hugojourdan.ColorFlow_Color_5 = "5";
};
width = 246;
},
{
anchors = (
{
name = ogonek;
pos = (183,1);
},
{
name = top;
pos = (214,700);
}
);
layerId = "126A7EFF-FBED-4747-9AEA-B121032D7D8F";
shapes = (
{
closed = 1;
nodes = (
(182,0,l),
(299,700,l),
(125,700,l),
(8,0,l)
);
}
);
userData = {
com.hugojourdan.ColorFlow = {
"0" = 0;
"1" = 0;
"10" = 0;
"11" = 0;
"2" = 0;
"3" = 0;
"4" = 0;
"5" = 1;
"6" = 0;
"7" = 0;
"8" = 0;
"9" = 0;
};
com.hugojourdan.ColorFlow_Color_5 = "5";
};
width = 274;
},
{
anchors = (
{
name = ogonek;
pos = (70,0);
},
{
name = top;
pos = (177,700);
}
);
layerId = "15C5E54C-51CA-433B-8F99-9031AB3E7AD6";
shapes = (
{
closed = 1;
nodes = (
(70,0,l),
(187,700,l),
(165,700,l),
(48,0,l)
);
}
);
userData = {
com.hugojourdan.ColorFlow = {
"0" = 0;
"1" = 0;
"10" = 0;
"11" = 0;
"2" = 0;
"3" = 0;
"4" = 0;
"5" = 1;
"6" = 0;
"7" = 0;
"8" = 0;
"9" = 0;
};
com.hugojourdan.ColorFlow_Color_5 = "5";
};
width = 201;
}
);
unicode = 73;
},
{
color = 10;
glyphname = J;
kernLeft = KO_J;
kernRight = KO_J;
lastChange = "2024-03-29 20:25:54 +0000";
layers = (
{
anchors = (
{
name = top;
pos = (422,700);
}
);
layerId = "58bebe4f-9ca5-4d90-881b-c2d59ecd3066";
shapes = (
{
closed = 1;
nodes = (
(259,-7,o),
(328,72,o),
(342,155,cs),
(433,700,l),
(411,700,l),
(320,155,ls),
(310,97,o),
(263,13,o),
(161,13,cs),
(66,13,o),
(39,73,o),
(42,151,c),
(22,147,l),
(19,49,o),
(63,-7,o),
(158,-7,cs)
);
}
);
userData = {
com.hugojourdan.ColorFlow = {
"0" = 0;
"1" = 0;
"10" = 0;
"11" = 0;
"2" = 0;
"3" = 0;
"4" = 0;
"5" = 1;
"6" = 0;
"7" = 0;
"8" = 0;
"9" = 0;
};
com.hugojourdan.ColorFlow_Color_5 = "5";
};
width = 456;
},
{
anchors = (
{
name = top;
pos = (369,700);
}
);
associatedMasterId = "58bebe4f-9ca5-4d90-881b-c2d59ecd3066";
layerId = "6AED5F86-468C-418F-B868-13309DBA5E51";
shapes = (
{
closed = 1;
nodes = (
(338,-7,o),
(427,73,o),
(427,201,cs),
(427,700,l),
(311,700,l),
(311,195,ls),
(311,137,o),
(277,90,o),
(217,90,cs),
(168,90,o),
(137,119,o),
(123,161,c),
(24,129,l),
(51,42,o),
(119,-7,o),
(217,-7,cs)
);
}
);
userData = {
com.hugojourdan.ColorFlow = {
"0" = 0;
"1" = 0;
"10" = 0;
"11" = 0;
"2" = 0;
"3" = 0;
"4" = 0;
"5" = 1;
"6" = 0;
"7" = 0;
"8" = 0;
"9" = 0;
};
com.hugojourdan.ColorFlow_Color_5 = "5";
};
width = 499.49091;
},
{
anchors = (
{
name = top;
pos = (315,700);
}
);
associatedMasterId = "58bebe4f-9ca5-4d90-881b-c2d59ecd3066";
layerId = "42286304-0AA1-4471-B211-8A4887369805";
shapes = (
{
closed = 1;
nodes = (
(304,-7,o),
(369,73,o),
(369,201,cs),
(369,700,l),
(252,700,l),
(252,195,ls),
(252,137,o),
(234,90,o),
(185,90,cs),
(141,90,o),
(124,119,o),
(114,161,c),
(15,129,l),
(37,42,o),
(87,-7,o),
(187,-7,cs)
);
}
);
userData = {
com.hugojourdan.ColorFlow = {
"0" = 0;
"1" = 0;
"10" = 0;
"11" = 0;
"2" = 0;
"3" = 0;
"4" = 0;
"5" = 1;
"6" = 0;
"7" = 0;
"8" = 0;
"9" = 0;
};
com.hugojourdan.ColorFlow_Color_5 = "5";
};
width = 430.54941;
},
{
anchors = (
{
name = top;
pos = (327,700);
}
);
associatedMasterId = "58bebe4f-9ca5-4d90-881b-c2d59ecd3066";
layerId = "1006BB2C-BB59-417D-9F1C-2063F1950ACA";
shapes = (
{
closed = 1;
nodes = (
(323,-7,o),
(390,74,o),
(390,210,cs),
(390,700,l),
(254,700,l),
(254,203,ls),
(254,147,o),
(237,107,o),
(195,107,cs),
(157,107,o),
(140,133,o),
(132,175,c),
(13,143,l),
(35,46,o),
(91,-7,o),
(200,-7,cs)
);
}
);
userData = {
com.hugojourdan.ColorFlow = {
"0" = 0;
"1" = 0;
"10" = 0;
"11" = 0;
"2" = 0;
"3" = 0;
"4" = 0;
"5" = 1;
"6" = 0;
"7" = 0;
"8" = 0;
"9" = 0;
};
com.hugojourdan.ColorFlow_Color_5 = "5";
};
width = 444.84515;
},
{
anchors = (
{
name = top;
pos = (449,700);
}
);
layerId = "af347eb2-a668-4c91-abbe-f882010a0a43";
shapes = (
{
closed = 1;
nodes = (
(297,-7,o),
(392,73,o),
(412,192,cs),
(497,700,l),
(400,700,l),
(314,187,ls),
(305,129,o),
(263,74,o),
(194,74,cs),
(126,74,o),
(102,121,o),
(103,178,c),
(15,159,l),
(14,54,o),
(74,-7,o),
(180,-7,cs)
);
}
);
userData = {
com.hugojourdan.ColorFlow = {
"0" = 0;
"1" = 0;
"10" = 0;
"11" = 0;
"2" = 0;
"3" = 0;
"4" = 0;
"5" = 1;
"6" = 0;
"7" = 0;
"8" = 0;
"9" = 0;
};
com.hugojourdan.ColorFlow_Color_5 = "5";
};
width = 499;
},
{
anchors = (
{
name = top;
pos = (484,700);
}
);
layerId = "edd54720-fbeb-44cd-af84-4ff57ec79b05";
shapes = (
{
closed = 1;
nodes = (
(354,-7,o),
(464,75,o),
(489,227,cs),
(568,700,l),
(394,700,l),
(314,218,ls),
(305,167,o),
(270,139,o),
(230,139,cs),
(191,139,o),
(165,164,o),
(171,219,c),
(10,199,l),
(-3,63,o),
(73,-7,o),
(214,-7,cs)
);
}
);
userData = {
com.hugojourdan.ColorFlow = {
"0" = 0;
"1" = 0;
"10" = 0;
"11" = 0;
"2" = 0;
"3" = 0;
"4" = 0;
"5" = 1;
"6" = 0;
"7" = 0;
"8" = 0;
"9" = 0;
};
com.hugojourdan.ColorFlow_Color_5 = "5";
};
width = 542;
},
{
anchors = (
{
name = top;
pos = (399,700);
}
);
layerId = "8D5D41BF-E921-4DFA-A794-BFB439395CD4";
shapes = (
{
closed = 1;
nodes = (
(268,-7,o),
(339,73,o),
(359,192,cs),
(444,700,l),
(347,700,l),
(261,187,ls),
(252,129,o),
(225,74,o),
(168,74,cs),
(107,74,o),
(97,120,o),
(101,177,c),
(13,164,l),
(6,55,o),
(47,-7,o),
(155,-7,cs)
);
}
);
userData = {
com.hugojourdan.ColorFlow = {
"0" = 0;
"1" = 0;
"10" = 0;
"11" = 0;
"2" = 0;
"3" = 0;
"4" = 0;
"5" = 1;
"6" = 0;
"7" = 0;
"8" = 0;
"9" = 0;
};
com.hugojourdan.ColorFlow_Color_5 = "5";
};
width = 437;
},
{
anchors = (
{
name = top;
pos = (434,700);
}
);
layerId = "126A7EFF-FBED-4747-9AEA-B121032D7D8F";
shapes = (
{
closed = 1;
nodes = (
(325,-7,o),
(412,75,o),
(437,227,cs),
(516,700,l),
(341,700,l),
(261,218,ls),
(252,164,o),
(232,139,o),
(204,139,cs),
(175,139,o),
(162,160,o),
(169,215,c),
(11,200,l),
(-3,64,o),
(53,-7,o),
(189,-7,cs)
);
}
);
userData = {
com.hugojourdan.ColorFlow = {
"0" = 0;
"1" = 0;
"10" = 0;
"11" = 0;
"2" = 0;
"3" = 0;
"4" = 0;
"5" = 1;
"6" = 0;
"7" = 0;
"8" = 0;
"9" = 0;
};
com.hugojourdan.ColorFlow_Color_5 = "5";
};
width = 484;
},
{
anchors = (
{
name = top;
pos = (364,700);
}
);
layerId = "15C5E54C-51CA-433B-8F99-9031AB3E7AD6";
shapes = (
{
closed = 1;
nodes = (
(218,-7,o),
(268,72,o),
(282,155,cs),
(373,700,l),
(351,700,l),
(260,155,ls),
(250,97,o),
(219,13,o),
(127,13,cs),
(41,13,o),
(30,72,o),
(35,147,c),
(14,143,l),
(8,49,o),
(35,-7,o),
(124,-7,cs)
);
}
);
userData = {
com.hugojourdan.ColorFlow = {
"0" = 0;
"1" = 0;
"10" = 0;
"11" = 0;
"2" = 0;
"3" = 0;
"4" = 0;
"5" = 1;
"6" = 0;
"7" = 0;
"8" = 0;
"9" = 0;
};
com.hugojourdan.ColorFlow_Color_5 = "5";
};
width = 383;
}
);
unicode = 74;
userData = {
KernOnName = J;
};
},
{
color = 10;
glyphname = K;
kernLeft = KO_H;
kernRight = KO_K;
lastChange = "2024-03-29 20:25:54 +0000";
layers = (
{
anchors = (
{
name = bottom;
pos = (273,0);
},
{
name = top;
pos = (390,700);
}
);
layerId = "58bebe4f-9ca5-4d90-881b-c2d59ecd3066";
shapes = (
{
closed = 1;
nodes = (
(84,0,l),
(143,350,l),
(207,350,l),
(524,0,l),
(554,0,l),
(228,360,l),
(671,700,l),
(641,700,l),
(210,370,l),
(146,370,l),
(201,700,l),
(179,700,l),
(62,0,l)
);
}
);
userData = {
com.hugojourdan.ColorFlow = {
"0" = 0;
"1" = 0;
"10" = 0;
"11" = 0;
"2" = 0;
"3" = 0;
"4" = 0;
"5" = 1;
"6" = 0;
"7" = 0;
"8" = 0;
"9" = 0;
};
com.hugojourdan.ColorFlow_Color_5 = "5";
};
width = 629;
},
{
anchors = (
{
name = bottom;
pos = (324,0);
},
{
name = top;
pos = (324,700);
}
);
associatedMasterId = "58bebe4f-9ca5-4d90-881b-c2d59ecd3066";
layerId = "08EF9968-A8EC-4980-9322-9F54F32F3020";
shapes = (
{
closed = 1;
nodes = (
(196,0,l),
(196,306,l),
(233,306,l),
(494,0,l),
(646,0,l),
(339,355,l),
(640,700,l),
(495,700,l),
(234,403,l),
(196,403,l),
(196,700,l),
(80,700,l),
(80,0,l)
);
}
);
userData = {
com.hugojourdan.ColorFlow = {
"0" = 0;
"1" = 0;
"10" = 0;
"11" = 0;
"2" = 0;
"3" = 0;
"4" = 0;
"5" = 1;
"6" = 0;
"7" = 0;
"8" = 0;
"9" = 0;
};
com.hugojourdan.ColorFlow_Color_5 = "5";
};
width = 668.21818;
},
{
anchors = (
{
name = bottom;
pos = (283,0);
},
{
name = top;
pos = (283,700);
}
);
associatedMasterId = "58bebe4f-9ca5-4d90-881b-c2d59ecd3066";
layerId = "6183DBB3-631F-46E1-831B-645C8E16AD8F";
shapes = (
{
closed = 1;
nodes = (
(184,0,l),
(184,306,l),
(216,306,l),
(421,0,l),
(563,0,l),
(315,355,l),
(557,700,l),
(421,700,l),
(216,403,l),
(184,403,l),
(184,700,l),
(68,700,l),
(68,0,l)
);
}
);
userData = {
com.hugojourdan.ColorFlow = {
"0" = 0;
"1" = 0;
"10" = 0;
"11" = 0;
"2" = 0;
"3" = 0;
"4" = 0;
"5" = 1;
"6" = 0;
"7" = 0;
"8" = 0;
"9" = 0;
};
com.hugojourdan.ColorFlow_Color_5 = "5";
};
width = 577.11179;
},
{
anchors = (
{
name = bottom;
pos = (292,0);
},
{
name = top;
pos = (292,700);
}
);
associatedMasterId = "58bebe4f-9ca5-4d90-881b-c2d59ecd3066";
layerId = "3107F848-95FA-4D2F-8A8C-29D6666D45E1";
shapes = (
{
closed = 1;
nodes = (
(197,0,l),
(197,298,l),
(232,298,l),
(423,0,l),
(587,0,l),
(347,356,l),
(579,700,l),
(423,700,l),
(232,411,l),
(197,411,l),
(197,700,l),
(61,700,l),
(61,0,l)
);
}
);
userData = {
com.hugojourdan.ColorFlow = {
"0" = 0;
"1" = 0;
"10" = 0;
"11" = 0;
"2" = 0;
"3" = 0;
"4" = 0;
"5" = 1;
"6" = 0;
"7" = 0;
"8" = 0;
"9" = 0;
};
com.hugojourdan.ColorFlow_Color_5 = "5";
};
width = 598.47952;
},
{
anchors = (
{
name = bottom;
pos = (279,0);
},
{
name = top;
pos = (396,700);
}
);
layerId = "af347eb2-a668-4c91-abbe-f882010a0a43";
shapes = (
{
closed = 1;
nodes = (
(139,0,l),
(192,315,l),
(233,315,l),
(464,0,l),
(591,0,l),
(330,356,l),
(704,700,l),
(582,700,l),
(247,396,l),
(205,396,l),
(256,700,l),
(159,700,l),
(42,0,l)
);
}
);
userData = {
com.hugojourdan.ColorFlow = {
"0" = 0;
"1" = 0;
"10" = 0;
"11" = 0;
"2" = 0;
"3" = 0;
"4" = 0;
"5" = 1;
"6" = 0;
"7" = 0;
"8" = 0;
"9" = 0;
};
com.hugojourdan.ColorFlow_Color_5 = "5";
};
width = 659;
},
{
anchors = (
{
name = bottom;
pos = (305,1);
},
{
name = top;
pos = (422,700);
}
);
layerId = "edd54720-fbeb-44cd-af84-4ff57ec79b05";
shapes = (
{
closed = 1;
nodes = (
(189,0,l),
(236,282,l),
(286,282,l),
(452,0,l),
(670,0,l),
(449,357,l),
(776,700,l),
(568,700,l),
(310,428,l),
(261,428,l),
(306,700,l),
(132,700,l),
(15,0,l)
);
}
);
userData = {
com.hugojourdan.ColorFlow = {
"0" = 0;
"1" = 0;
"10" = 0;
"11" = 0;
"2" = 0;
"3" = 0;
"4" = 0;
"5" = 1;
"6" = 0;
"7" = 0;
"8" = 0;
"9" = 0;
};
com.hugojourdan.ColorFlow_Color_5 = "5";
};
width = 727;
},
{
anchors = (
{
name = bottom;
pos = (239,0);
},
{
name = top;
pos = (356,700);
}
);
layerId = "8D5D41BF-E921-4DFA-A794-BFB439395CD4";
shapes = (
{
closed = 1;
nodes = (
(129,0,l),
(182,315,l),
(216,315,l),
(393,0,l),
(512,0,l),
(307,356,l),
(624,700,l),
(510,700,l),
(230,396,l),
(195,396,l),
(246,700,l),
(149,700,l),
(32,0,l)
);
}
);
userData = {
com.hugojourdan.ColorFlow = {
"0" = 0;
"1" = 0;
"10" = 0;
"11" = 0;
"2" = 0;
"3" = 0;
"4" = 0;
"5" = 1;
"6" = 0;
"7" = 0;
"8" = 0;
"9" = 0;
};
com.hugojourdan.ColorFlow_Color_5 = "5";
};
width = 578;
},
{
anchors = (
{
name = bottom;
pos = (269,1);
},
{
name = top;
pos = (386,700);
}
);
layerId = "126A7EFF-FBED-4747-9AEA-B121032D7D8F";
shapes = (
{
closed = 1;
nodes = (
(182,0,l),
(229,282,l),
(270,282,l),
(388,0,l),
(592,0,l),
(429,357,l),
(697,700,l),
(504,700,l),
(294,428,l),
(254,428,l),
(299,700,l),
(125,700,l),
(8,0,l)
);
}
);
userData = {
com.hugojourdan.ColorFlow = {
"0" = 0;
"1" = 0;
"10" = 0;
"11" = 0;
"2" = 0;
"3" = 0;
"4" = 0;
"5" = 1;
"6" = 0;
"7" = 0;
"8" = 0;
"9" = 0;
};
com.hugojourdan.ColorFlow_Color_5 = "5";
};
width = 650;
},
{
anchors = (
{
name = bottom;
pos = (224,0);
},
{
name = top;
pos = (341,700);
}
);
layerId = "15C5E54C-51CA-433B-8F99-9031AB3E7AD6";
shapes = (
{
closed = 1;
nodes = (
(70,0,l),
(129,350,l),
(175,350,l),
(445,0,l),
(473,0,l),
(195,360,l),
(590,700,l),
(562,700,l),
(178,370,l),
(132,370,l),
(187,700,l),
(165,700,l),
(48,0,l)
);
}
);
userData = {
com.hugojourdan.ColorFlow = {
"0" = 0;
"1" = 0;
"10" = 0;
"11" = 0;
"2" = 0;
"3" = 0;
"4" = 0;
"5" = 1;
"6" = 0;
"7" = 0;
"8" = 0;
"9" = 0;
};
com.hugojourdan.ColorFlow_Color_5 = "5";
};
width = 541;
}
);
unicode = 75;
userData = {
KernOnName = K;
};
},
{
color = 10;
glyphname = L;
kernLeft = KO_H;
kernRight = KO_L;
lastChange = "2024-03-29 20:25:54 +0000";
layers = (
{
anchors = (
{
name = middle;
pos = (72,1);
},
{
name = middleright;
pos = (342,360);
},
{
name = top;
pos = (191,700);
},
{
name = topright;
pos = (509,700);
}
);
layerId = "58bebe4f-9ca5-4d90-881b-c2d59ecd3066";
shapes = (
{
closed = 1;
nodes = (
(472,0,l),
(476,20,l),
(88,20,l),
(201,700,l),
(179,700,l),
(62,0,l)
);
}
);
userData = {
com.hugojourdan.ColorFlow = {
"0" = 0;
"1" = 0;
"10" = 0;
"11" = 0;
"2" = 0;
"3" = 0;
"4" = 0;
"5" = 1;
"6" = 0;
"7" = 0;
"8" = 0;
"9" = 0;
};
com.hugojourdan.ColorFlow_Color_5 = "5";
};
width = 545;
},
{
anchors = (
{
name = middle;
pos = (138,1);
},
{
name = middleright;
pos = (365,398);
},
{
name = top;
pos = (139,700);
},
{
name = topright;
pos = (482,701);
}
);
associatedMasterId = "58bebe4f-9ca5-4d90-881b-c2d59ecd3066";
layerId = "0A731F5D-2F65-4148-90DB-7BC9349717AF";
shapes = (
{
closed = 1;
nodes = (
(511,0,l),
(511,97,l),
(196,97,l),
(196,700,l),
(80,700,l),
(80,0,l)
);
}
);
userData = {
com.hugojourdan.ColorFlow = {
"0" = 0;
"1" = 0;
"10" = 0;
"11" = 0;
"2" = 0;
"3" = 0;
"4" = 0;
"5" = 1;
"6" = 0;
"7" = 0;
"8" = 0;
"9" = 0;
};
com.hugojourdan.ColorFlow_Color_5 = "5";
};
width = 537.8;
},
{
anchors = (
{
name = middle;
pos = (128,1);
},
{
name = middleright;
pos = (318,399);
},
{
name = top;
pos = (129,700);
},
{
name = topright;
pos = (423,701);
}
);
associatedMasterId = "58bebe4f-9ca5-4d90-881b-c2d59ecd3066";
layerId = "097D77AD-2B39-44C9-94C4-05D7C2FC30C9";
shapes = (
{
closed = 1;
nodes = (
(440,0,l),
(440,97,l),
(184,97,l),
(184,700,l),
(68,700,l),
(68,0,l)
);
}
);
userData = {
com.hugojourdan.ColorFlow = {
"0" = 0;
"1" = 0;
"10" = 0;
"11" = 0;
"2" = 0;
"3" = 0;
"4" = 0;
"5" = 1;
"6" = 0;
"7" = 0;
"8" = 0;
"9" = 0;
};
com.hugojourdan.ColorFlow_Color_5 = "5";
};
width = 456.8702;
},
{
anchors = (
{
name = middle;
pos = (131,1);
},
{
name = middleright;
pos = (335,407);
},
{
name = top;
pos = (131,700);
},
{
name = topright;
pos = (444,701);
}
);
associatedMasterId = "58bebe4f-9ca5-4d90-881b-c2d59ecd3066";
layerId = "2DF95BFD-EA19-4180-A820-F53742B6C39D";
shapes = (
{
closed = 1;
nodes = (
(449.003,0,l),
(449,114,l),
(197,114,l),
(197,700,l),
(61,700,l),
(61,0,l)
);
}
);
userData = {
com.hugojourdan.ColorFlow = {
"0" = 0;
"1" = 0;
"10" = 0;
"11" = 0;
"2" = 0;
"3" = 0;
"4" = 0;
"5" = 1;
"6" = 0;
"7" = 0;
"8" = 0;
"9" = 0;
};
com.hugojourdan.ColorFlow_Color_5 = "5";
};
width = 465.12327;
},
{
anchors = (
{
name = middle;
pos = (91,1);
},
{
name = middleright;
pos = (379,390);
},
{
name = top;
pos = (209,700);
},
{
name = topright;
pos = (546,701);
}
);
layerId = "af347eb2-a668-4c91-abbe-f882010a0a43";
shapes = (
{
closed = 1;
nodes = (
(468,0,l),
(482,81,l),
(153,81,l),
(256,700,l),
(159,700,l),
(42,0,l)
);
}
);
userData = {
com.hugojourdan.ColorFlow = {
"0" = 0;
"1" = 0;
"10" = 0;
"11" = 0;
"2" = 0;
"3" = 0;
"4" = 0;
"5" = 1;
"6" = 0;
"7" = 0;
"8" = 0;
"9" = 0;
};
com.hugojourdan.ColorFlow_Color_5 = "5";
};
width = 540;
},
{
anchors = (
{
name = middle;
pos = (100,1);
},
{
name = middleright;
pos = (433,423);
},
{
name = top;
pos = (217,700);
},
{
name = topright;
pos = (611,700);
}
);
layerId = "edd54720-fbeb-44cd-af84-4ff57ec79b05";
shapes = (
{
closed = 1;
nodes = (
(494,0,l),
(519,146,l),
(214,146,l),
(306,700,l),
(132,700,l),
(15,0,l)
);
}
);
userData = {
com.hugojourdan.ColorFlow = {
"0" = 0;
"1" = 0;
"10" = 0;
"11" = 0;
"2" = 0;
"3" = 0;
"4" = 0;
"5" = 1;
"6" = 0;
"7" = 0;
"8" = 0;
"9" = 0;
};
com.hugojourdan.ColorFlow_Color_5 = "5";
};
width = 559;
},
{
anchors = (
{
name = middle;
pos = (83,1);
},
{
name = middleright;
pos = (336,391);
},
{
name = top;
pos = (201,700);
},
{
name = topright;
pos = (491,701);
}
);
layerId = "8D5D41BF-E921-4DFA-A794-BFB439395CD4";
shapes = (
{
closed = 1;
nodes = (
(398,0,l),
(412,81,l),
(143,81,l),
(246,700,l),
(149,700,l),
(32,0,l)
);
}
);
userData = {
com.hugojourdan.ColorFlow = {
"0" = 0;
"1" = 0;
"10" = 0;
"11" = 0;
"2" = 0;
"3" = 0;
"4" = 0;
"5" = 1;
"6" = 0;
"7" = 0;
"8" = 0;
"9" = 0;
};
com.hugojourdan.ColorFlow_Color_5 = "5";
};
width = 467;
},
{
anchors = (
{
name = middle;
pos = (95,1);
},
{
name = middleright;
pos = (398,423);
},
{
name = top;
pos = (212,700);
},
{
name = topright;
pos = (562,700);
}
);
layerId = "126A7EFF-FBED-4747-9AEA-B121032D7D8F";
shapes = (
{
closed = 1;
nodes = (
(427,0,l),
(452,146,l),
(207,146,l),
(299,700,l),
(125,700,l),
(8,0,l)
);
}
);
userData = {
com.hugojourdan.ColorFlow = {
"0" = 0;
"1" = 0;
"10" = 0;
"11" = 0;
"2" = 0;
"3" = 0;
"4" = 0;
"5" = 1;
"6" = 0;
"7" = 0;
"8" = 0;
"9" = 0;
};
com.hugojourdan.ColorFlow_Color_5 = "5";
};
width = 491;
},
{
anchors = (
{
name = middle;
pos = (58,1);
},
{
name = middleright;
pos = (301,360);
},
{
name = top;
pos = (176,700);
},
{
name = topright;
pos = (459,700);
}
);
layerId = "15C5E54C-51CA-433B-8F99-9031AB3E7AD6";
shapes = (
{
closed = 1;
nodes = (
(398,0,l),
(402,20,l),
(74,20,l),
(187,700,l),
(165,700,l),
(48,0,l)
);
}
);
userData = {
com.hugojourdan.ColorFlow = {
"0" = 0;
"1" = 0;
"10" = 0;
"11" = 0;
"2" = 0;
"3" = 0;
"4" = 0;
"5" = 1;
"6" = 0;
"7" = 0;
"8" = 0;
"9" = 0;
};
com.hugojourdan.ColorFlow_Color_5 = "5";
};
width = 464;
}
);
unicode = 76;
},
{
color = 10;
glyphname = M;
kernLeft = KO_H;
kernRight = KO_H;
lastChange = "2024-07-30 18:04:06 +0000";
layers = (
{
layerId = "58bebe4f-9ca5-4d90-881b-c2d59ecd3066";
shapes = (
{
closed = 1;
nodes = (
(84,0,l),
(193,651,l),
(396,0,l),
(417,0,l),
(838,651,l),
(729,0,l),
(751,0,l),
(868,700,l),
(846,700,l),
(411,25,l),
(201,700,l),
(179,700,l),
(62,0,l)
);
}
);
userData = {
com.hugojourdan.ColorFlow = {
"0" = 0;
"1" = 0;
"10" = 0;
"11" = 0;
"2" = 0;
"3" = 0;
"4" = 0;
"5" = 1;
"6" = 0;
"7" = 0;
"8" = 0;
"9" = 0;
};
com.hugojourdan.ColorFlow_Color_5 = "5";
};
width = 897.00298;
},
{
associatedMasterId = "58bebe4f-9ca5-4d90-881b-c2d59ecd3066";
layerId = "4C552126-F361-42E5-8DCA-228C232FA67F";
shapes = (
{
closed = 1;
nodes = (
(196,0,l),
(196,476,l),
(403,0,l),
(491,0,l),
(698,476,l),
(698,0,l),
(814,0,l),
(814,700,l),
(686,700,l),
(447,153,l),
(209,700,l),
(80,700,l),
(80,0,l)
);
}
);
userData = {
com.hugojourdan.ColorFlow = {
"0" = 0;
"1" = 0;
"10" = 0;
"11" = 0;
"2" = 0;
"3" = 0;
"4" = 0;
"5" = 1;
"6" = 0;
"7" = 0;
"8" = 0;
"9" = 0;
};
com.hugojourdan.ColorFlow_Color_5 = "5";
};
width = 894;
},
{
associatedMasterId = "58bebe4f-9ca5-4d90-881b-c2d59ecd3066";
layerId = "6D365FC9-7364-4CAB-B90C-4B7249F3F57E";
shapes = (
{
closed = 1;
nodes = (
(184,0,l),
(184,460,l),
(338,0,l),
(426,0,l),
(579,460,l),
(579,0,l),
(696,0,l),
(696,700,l),
(559,700,l),
(381,183,l),
(204,700,l),
(68,700,l),
(68,0,l)
);
}
);
userData = {
com.hugojourdan.ColorFlow = {
"0" = 0;
"1" = 0;
"10" = 0;
"11" = 0;
"2" = 0;
"3" = 0;
"4" = 0;
"5" = 1;
"6" = 0;
"7" = 0;
"8" = 0;
"9" = 0;
};
com.hugojourdan.ColorFlow_Color_5 = "5";
};
width = 763.92233;
},
{
associatedMasterId = "58bebe4f-9ca5-4d90-881b-c2d59ecd3066";
layerId = "FB04667C-EFAE-4DCA-9793-476B8EF82BE7";
shapes = (
{
closed = 1;
nodes = (
(197,0,l),
(197,433,l),
(333,0,l),
(439,0,l),
(574,433,l),
(574,0,l),
(710,0,l),
(710,700,l),
(544,700,l),
(385,215,l),
(227,700,l),
(61,700,l),
(61,0,l)
);
}
);
userData = {
com.hugojourdan.ColorFlow = {
"0" = 0;
"1" = 0;
"10" = 0;
"11" = 0;
"2" = 0;
"3" = 0;
"4" = 0;
"5" = 1;
"6" = 0;
"7" = 0;
"8" = 0;
"9" = 0;
};
com.hugojourdan.ColorFlow_Color_5 = "5";
};
width = 771.26543;
},
{
layerId = "af347eb2-a668-4c91-abbe-f882010a0a43";
shapes = (
{
closed = 1;
nodes = (
(139,0,l),
(225,511,l),
(367,0,l),
(441,0,l),
(755,511,l),
(669,0,l),
(766,0,l),
(883,700,l),
(776,700,l),
(425,127,l),
(266,700,l),
(159,700,l),
(42,0,l)
);
}
);
userData = {
com.hugojourdan.ColorFlow = {
"0" = 0;
"1" = 0;
"10" = 0;
"11" = 0;
"2" = 0;
"3" = 0;
"4" = 0;
"5" = 1;
"6" = 0;
"7" = 0;
"8" = 0;
"9" = 0;
};
com.hugojourdan.ColorFlow_Color_5 = "5";
};
width = 892;
},
{
layerId = "edd54720-fbeb-44cd-af84-4ff57ec79b05";
shapes = (
{
closed = 1;
nodes = (
(189,0,l),
(256,401,l),
(342,0,l),
(484,0,l),
(704,401,l),
(637,0,l),
(811,0,l),
(928,700,l),
(722,700,l),
(451,225,l),
(338,700,l),
(132,700,l),
(15,0,l)
);
}
);
userData = {
com.hugojourdan.ColorFlow = {
"0" = 0;
"1" = 0;
"10" = 0;
"11" = 0;
"2" = 0;
"3" = 0;
"4" = 0;
"5" = 1;
"6" = 0;
"7" = 0;
"8" = 0;
"9" = 0;
};
com.hugojourdan.ColorFlow_Color_5 = "5";
};
width = 910;
},
{
layerId = "8D5D41BF-E921-4DFA-A794-BFB439395CD4";
shapes = (
{
closed = 1;
nodes = (
(129,0,l),
(212,496,l),
(305,0,l),
(378,0,l),
(636,496,l),
(553,0,l),
(650,0,l),
(767,700,l),
(654,700,l),
(366,153,l),
(262,700,l),
(149,700,l),
(32,0,l)
);
}
);
userData = {
com.hugojourdan.ColorFlow = {
"0" = 0;
"1" = 0;
"10" = 0;
"11" = 0;
"2" = 0;
"3" = 0;
"4" = 0;
"5" = 1;
"6" = 0;
"7" = 0;
"8" = 0;
"9" = 0;
};
com.hugojourdan.ColorFlow_Color_5 = "5";
};
width = 766;
},
{
layerId = "126A7EFF-FBED-4747-9AEA-B121032D7D8F";
shapes = (
{
closed = 1;
nodes = (
(182,0,l),
(245,378,l),
(282,0,l),
(423,0,l),
(586,378,l),
(523,0,l),
(697,0,l),
(814,700,l),
(589,700,l),
(399,281,l),
(351,700,l),
(125,700,l),
(8,0,l)
);
}
);
userData = {
com.hugojourdan.ColorFlow = {
"0" = 0;
"1" = 0;
"10" = 0;
"11" = 0;
"2" = 0;
"3" = 0;
"4" = 0;
"5" = 1;
"6" = 0;
"7" = 0;
"8" = 0;
"9" = 0;
};
com.hugojourdan.ColorFlow_Color_5 = "5";
};
width = 789;
},
{
layerId = "15C5E54C-51CA-433B-8F99-9031AB3E7AD6";
shapes = (
{
closed = 1;
nodes = (
(70,0,l),
(177,641,l),
(331,0,l),
(348,0,l),
(716,641,l),
(609,0,l),
(631,0,l),
(748,700,l),
(726,700,l),
(345,35,l),
(186,700,l),
(165,700,l),
(48,0,l)
);
}
);
userData = {
com.hugojourdan.ColorFlow = {
"0" = 0;
"1" = 0;
"10" = 0;
"11" = 0;
"2" = 0;
"3" = 0;
"4" = 0;
"5" = 1;
"6" = 0;
"7" = 0;
"8" = 0;
"9" = 0;
};
com.hugojourdan.ColorFlow_Color_5 = "5";
};
width = 763;
}
);
metricRight = "=|";
unicode = 77;
},
{
color = 10;
glyphname = N;
kernLeft = KO_H;
kernRight = KO_H;
lastChange = "2024-07-30 18:04:06 +0000";
layers = (
{
anchors = (
{
name = bottom;
pos = (327,0);
},
{
name = bottomright;
pos = (593,0);
},
{
name = top;
pos = (444,700);
}
);
layerId = "58bebe4f-9ca5-4d90-881b-c2d59ecd3066";
shapes = (
{
closed = 1;
nodes = (
(84,0,l),
(195,663,l),
(572,0,l),
(593,0,l),
(710,700,l),
(688,700,l),
(577,37,l),
(200,700,l),
(179,700,l),
(62,0,l)
);
}
);
userData = {
com.hugojourdan.ColorFlow = {
"0" = 0;
"1" = 0;
"10" = 0;
"11" = 0;
"2" = 0;
"3" = 0;
"4" = 0;
"5" = 1;
"6" = 0;
"7" = 0;
"8" = 0;
"9" = 0;
};
com.hugojourdan.ColorFlow_Color_5 = "5";
};
width = 738.99894;
},
{
anchors = (
{
name = bottom;
pos = (362,0);
},
{
name = bottomright;
pos = (644,0);
},
{
name = top;
pos = (362,700);
}
);
associatedMasterId = "58bebe4f-9ca5-4d90-881b-c2d59ecd3066";
layerId = "B344E4F9-5CF0-479D-8FE4-932094BAD4F8";
shapes = (
{
closed = 1;
nodes = (
(196,0,l),
(196,517,l),
(525,0,l),
(644,0,l),
(644,700,l),
(528,700,l),
(528,185,l),
(199,700,l),
(80,700,l),
(80,0,l)
);
}
);
userData = {
com.hugojourdan.ColorFlow = {
"0" = 0;
"1" = 0;
"10" = 0;
"11" = 0;
"2" = 0;
"3" = 0;
"4" = 0;
"5" = 1;
"6" = 0;
"7" = 0;
"8" = 0;
"9" = 0;
};
com.hugojourdan.ColorFlow_Color_5 = "5";
};
width = 724;
},
{
anchors = (
{
name = bottom;
pos = (309,0);
},
{
name = bottomright;
pos = (550,0);
},
{
name = top;
pos = (309,700);
}
);
associatedMasterId = "58bebe4f-9ca5-4d90-881b-c2d59ecd3066";
layerId = "3F1852E0-832E-4A37-B2CD-6BCB89D72603";
shapes = (
{
closed = 1;
nodes = (
(184,0,l),
(184,479,l),
(436,0,l),
(550,0,l),
(550,700,l),
(434,700,l),
(434,222,l),
(182,700,l),
(68,700,l),
(68,0,l)
);
}
);
userData = {
com.hugojourdan.ColorFlow = {
"0" = 0;
"1" = 0;
"10" = 0;
"11" = 0;
"2" = 0;
"3" = 0;
"4" = 0;
"5" = 1;
"6" = 0;
"7" = 0;
"8" = 0;
"9" = 0;
};
com.hugojourdan.ColorFlow_Color_5 = "5";
};
width = 617.94045;
},
{
anchors = (
{
name = bottom;
pos = (310,0);
},
{
name = bottomright;
pos = (559,0);
},
{
name = top;
pos = (310,700);
}
);
associatedMasterId = "58bebe4f-9ca5-4d90-881b-c2d59ecd3066";
layerId = "98457338-EA58-41DC-94D1-9BAE09456CC4";
shapes = (
{
closed = 1;
nodes = (
(197,0,l),
(197,447,l),
(425,0,l),
(559,0,l),
(559,700,l),
(423,700,l),
(423,253,l),
(195,700,l),
(61,700,l),
(61,0,l)
);
}
);
userData = {
com.hugojourdan.ColorFlow = {
"0" = 0;
"1" = 0;
"10" = 0;
"11" = 0;
"2" = 0;
"3" = 0;
"4" = 0;
"5" = 1;
"6" = 0;
"7" = 0;
"8" = 0;
"9" = 0;
};
com.hugojourdan.ColorFlow_Color_5 = "5";
};
width = 620.04718;
},
{
anchors = (
{
name = bottom;
pos = (320,0);
},
{
name = bottomright;
pos = (599,0);
},
{
name = top;
pos = (437,700);
}
);
layerId = "af347eb2-a668-4c91-abbe-f882010a0a43";
shapes = (
{
closed = 1;
nodes = (
(139,0,l),
(231,546,l),
(499,0,l),
(599,0,l),
(716,700,l),
(618,700,l),
(527,155,l),
(259,700,l),
(159,700,l),
(42,0,l)
);
}
);
userData = {
com.hugojourdan.ColorFlow = {
"0" = 0;
"1" = 0;
"10" = 0;
"11" = 0;
"2" = 0;
"3" = 0;
"4" = 0;
"5" = 1;
"6" = 0;
"7" = 0;
"8" = 0;
"9" = 0;
};
com.hugojourdan.ColorFlow_Color_5 = "5";
};
width = 725;
},
{
anchors = (
{
name = bottom;
pos = (320,1);
},
{
name = bottomright;
pos = (625,0);
},
{
name = top;
pos = (437,700);
}
);
layerId = "edd54720-fbeb-44cd-af84-4ff57ec79b05";
shapes = (
{
closed = 1;
nodes = (
(189,0,l),
(260,424,l),
(450,0,l),
(625,0,l),
(742,700,l),
(568,700,l),
(497,273,l),
(307,700,l),
(132,700,l),
(15,0,l)
);
}
);
userData = {
com.hugojourdan.ColorFlow = {
"0" = 0;
"1" = 0;
"10" = 0;
"11" = 0;
"2" = 0;
"3" = 0;
"4" = 0;
"5" = 1;
"6" = 0;
"7" = 0;
"8" = 0;
"9" = 0;
};
com.hugojourdan.ColorFlow_Color_5 = "5";
};
width = 724;
},
{
anchors = (
{
name = bottom;
pos = (269,0);
},
{
name = bottomright;
pos = (507,0);
},
{
name = top;
pos = (386,700);
}
);
layerId = "8D5D41BF-E921-4DFA-A794-BFB439395CD4";
shapes = (
{
closed = 1;
nodes = (
(129,0,l),
(215,514,l),
(412,0,l),
(507,0,l),
(624,700,l),
(526,700,l),
(441,187,l),
(245,700,l),
(149,700,l),
(32,0,l)
);
}
);
userData = {
com.hugojourdan.ColorFlow = {
"0" = 0;
"1" = 0;
"10" = 0;
"11" = 0;
"2" = 0;
"3" = 0;
"4" = 0;
"5" = 1;
"6" = 0;
"7" = 0;
"8" = 0;
"9" = 0;
};
com.hugojourdan.ColorFlow_Color_5 = "5";
};
width = 623;
},
{
anchors = (
{
name = bottom;
pos = (271,1);
},
{
name = bottomright;
pos = (536,0);
},
{
name = top;
pos = (388,700);
}
);
layerId = "126A7EFF-FBED-4747-9AEA-B121032D7D8F";
shapes = (
{
closed = 1;
nodes = (
(182,0,l),
(246,384,l),
(365,0,l),
(536,0,l),
(653,700,l),
(478,700,l),
(414,313,l),
(295,700,l),
(125,700,l),
(8,0,l)
);
}
);
userData = {
com.hugojourdan.ColorFlow = {
"0" = 0;
"1" = 0;
"10" = 0;
"11" = 0;
"2" = 0;
"3" = 0;
"4" = 0;
"5" = 1;
"6" = 0;
"7" = 0;
"8" = 0;
"9" = 0;
};
com.hugojourdan.ColorFlow_Color_5 = "5";
};
width = 628;
},
{
anchors = (
{
name = bottom;
pos = (272,0);
},
{
name = bottomright;
pos = (496,0);
},
{
name = top;
pos = (389,700);
}
);
layerId = "15C5E54C-51CA-433B-8F99-9031AB3E7AD6";
shapes = (
{
closed = 1;
nodes = (
(70,0,l),
(179,652,l),
(478,0,l),
(496,0,l),
(613,700,l),
(591,700,l),
(483,48,l),
(182,700,l),
(165,700,l),
(48,0,l)
);
}
);
userData = {
com.hugojourdan.ColorFlow = {
"0" = 0;
"1" = 0;
"10" = 0;
"11" = 0;
"2" = 0;
"3" = 0;
"4" = 0;
"5" = 1;
"6" = 0;
"7" = 0;
"8" = 0;
"9" = 0;
};
com.hugojourdan.ColorFlow_Color_5 = "5";
};
width = 628;
}
);
metricRight = "=|";
unicode = 78;
},
{
color = 10;
glyphname = O;
kernLeft = KO_O;
kernRight = KO_O;
lastChange = "2024-07-30 18:04:06 +0000";
layers = (
{
anchors = (
{
name = "#exit";
pos = (729,350);
},
{
name = center;
pos = (416,350);
},
{
name = ogonek;
pos = (406,0);
},
{
name = top;
pos = (473,700);
}
);
layerId = "58bebe4f-9ca5-4d90-881b-c2d59ecd3066";
shapes = (
{
closed = 1;
nodes = (
(552,-7,o),
(717,140,o),
(752,350,cs),
(787,560,o),
(671,707,o),
(475,707,cs),
(279,707,o),
(114,560,o),
(79,350,cs),
(44,140,o),
(160,-7,o),
(356,-7,cs)
);
},
{
closed = 1;
nodes = (
(184,13,o),
(67,140,o),
(102,350,cs),
(137,560,o),
(297,687,o),
(472,687,cs),
(646,687,o),
(764,560,o),
(729,350,cs),
(694,140,o),
(533,13,o),
(359,13,cs)
);
}
);
userData = {
com.hugojourdan.ColorFlow = {
"0" = 0;
"1" = 0;
"10" = 0;
"11" = 0;
"2" = 0;
"3" = 0;
"4" = 0;
"5" = 1;
"6" = 0;
"7" = 0;
"8" = 0;
"9" = 0;
};
com.hugojourdan.ColorFlow_Color_5 = "5";
};
width = 797.00298;
},
{
anchors = (
{
name = "#exit";
pos = (635,350);
},
{
name = center;
pos = (398,350);
},
{
name = ogonek;
pos = (448,0);
},
{
name = top;
pos = (398,700);
}
);
associatedMasterId = "58bebe4f-9ca5-4d90-881b-c2d59ecd3066";
layerId = "FC15D844-BD60-4FE8-B108-8022F9C0C603";
shapes = (
{
closed = 1;
nodes = (
(596,-7,o),
(753,140,o),
(753,350,cs),
(753,559,o),
(596,707,o),
(398,707,cs),
(202,707,o),
(42,559,o),
(42,350,cs),
(42,140,o),
(202,-7,o),
(398,-7,cs)
);
},
{
closed = 1;
nodes = (
(261,92,o),
(161,193,o),
(161,350,cs),
(161,508,o),
(261,608,o),
(398,608,cs),
(535,608,o),
(635,508,o),
(635,350,cs),
(635,193,o),
(535,92,o),
(398,92,cs)
);
}
);
userData = {
com.hugojourdan.ColorFlow = {
"0" = 0;
"1" = 0;
"10" = 0;
"11" = 0;
"2" = 0;
"3" = 0;
"4" = 0;
"5" = 1;
"6" = 0;
"7" = 0;
"8" = 0;
"9" = 0;
};
com.hugojourdan.ColorFlow_Color_5 = "5";
};
width = 795.27291;
},
{
anchors = (
{
name = "#exit";
pos = (512,350);
},
{
name = center;
pos = (334,350);
},
{
name = ogonek;
pos = (384,0);
},
{
name = top;
pos = (334,700);
}
);
associatedMasterId = "58bebe4f-9ca5-4d90-881b-c2d59ecd3066";
layerId = "6A848A0A-DCE1-4979-A4D1-A45B8EA1FB84";
shapes = (
{
closed = 1;
nodes = (
(523,-7,o),
(631,128,o),
(631,350,cs),
(631,571,o),
(524,707,o),
(334,707,cs),
(147,707,o),
(37,571,o),
(37,350,cs),
(37,128,o),
(147,-7,o),
(334,-7,cs)
);
},
{
closed = 1;
nodes = (
(214,92,o),
(155,181,o),
(155,350,cs),
(155,520,o),
(214,608,o),
(334,608,cs),
(454,608,o),
(512,520,o),
(512,350,cs),
(512,181,o),
(454,92,o),
(334,92,cs)
);
}
);
userData = {
com.hugojourdan.ColorFlow = {
"0" = 0;
"1" = 0;
"10" = 0;
"11" = 0;
"2" = 0;
"3" = 0;
"4" = 0;
"5" = 1;
"6" = 0;
"7" = 0;
"8" = 0;
"9" = 0;
};
com.hugojourdan.ColorFlow_Color_5 = "5";
};
width = 668.08455;
},
{
anchors = (
{
name = "#exit";
pos = (491,350);
},
{
name = center;
pos = (331,350);
},
{
name = ogonek;
pos = (382,0);
},
{
name = top;
pos = (331,700);
}
);
associatedMasterId = "58bebe4f-9ca5-4d90-881b-c2d59ecd3066";
layerId = "D754763B-135C-4AB5-A445-AE79AEBD3DA1";
shapes = (
{
closed = 1;
nodes = (
(521,-7,o),
(630,128,o),
(630,350,cs),
(630,571,o),
(522,707,o),
(331,707,cs),
(143,707,o),
(32,571,o),
(32,350,cs),
(32,128,o),
(143,-7,o),
(331,-7,cs)
);
},
{
closed = 1;
nodes = (
(221,109,o),
(170,194,o),
(170,350,cs),
(170,507,o),
(221,591,o),
(331,591,cs),
(441,591,o),
(491,507,o),
(491,350,cs),
(491,194,o),
(441,109,o),
(331,109,cs)
);
}
);
userData = {
com.hugojourdan.ColorFlow = {
"0" = 0;
"1" = 0;
"10" = 0;
"11" = 0;
"2" = 0;
"3" = 0;
"4" = 0;
"5" = 1;
"6" = 0;
"7" = 0;
"8" = 0;
"9" = 0;
};
com.hugojourdan.ColorFlow_Color_5 = "5";
};
width = 661.71535;
},
{
anchors = (
{
name = "#exit";
pos = (669,350);
},
{
name = center;
pos = (416,350);
},
{
name = ogonek;
pos = (407,0);
},
{
name = top;
pos = (474,700);
}
);
layerId = "af347eb2-a668-4c91-abbe-f882010a0a43";
shapes = (
{
closed = 1;
nodes = (
(554,-7,o),
(733,140,o),
(768,350,cs),
(803,559,o),
(673,707,o),
(475,707,cs),
(279,707,o),
(99,559,o),
(64,350,cs),
(29,140,o),
(160,-7,o),
(356,-7,cs)
);
},
{
closed = 1;
nodes = (
(225,76,o),
(135,182,o),
(163,350,cs),
(191,518,o),
(317,624,o),
(462,624,cs),
(607,624,o),
(697,518,o),
(669,350,cs),
(641,182,o),
(515,76,o),
(370,76,cs)
);
}
);
userData = {
com.hugojourdan.ColorFlow = {
"0" = 0;
"1" = 0;
"10" = 0;
"11" = 0;
"2" = 0;
"3" = 0;
"4" = 0;
"5" = 1;
"6" = 0;
"7" = 0;
"8" = 0;
"9" = 0;
};
com.hugojourdan.ColorFlow_Color_5 = "5";
};
width = 798;
},
{
anchors = (
{
name = "#exit";
pos = (588,350);
},
{
name = center;
pos = (405,350);
},
{
name = ogonek;
pos = (399,0);
},
{
name = top;
pos = (463,700);
}
);
layerId = "edd54720-fbeb-44cd-af84-4ff57ec79b05";
shapes = (
{
closed = 1;
nodes = (
(545,-7,o),
(730,140,o),
(765,350,cs),
(800,560,o),
(665,707,o),
(464,707,cs),
(266,707,o),
(80,560,o),
(45,350,cs),
(10,140,o),
(147,-7,o),
(345,-7,cs)
);
},
{
closed = 1;
nodes = (
(259,142,o),
(202,230,o),
(222,350,cs),
(242,471,o),
(329,558,o),
(440,558,cs),
(550,558,o),
(608,471,o),
(588,350,cs),
(568,230,o),
(480,142,o),
(370,142,cs)
);
}
);
userData = {
com.hugojourdan.ColorFlow = {
"0" = 0;
"1" = 0;
"10" = 0;
"11" = 0;
"2" = 0;
"3" = 0;
"4" = 0;
"5" = 1;
"6" = 0;
"7" = 0;
"8" = 0;
"9" = 0;
};
com.hugojourdan.ColorFlow_Color_5 = "5";
};
width = 776;
},
{
anchors = (
{
name = "#exit";
pos = (551,350);
},
{
name = center;
pos = (356,350);
},
{
name = ogonek;
pos = (349,0);
},
{
name = top;
pos = (414,700);
}
);
layerId = "8D5D41BF-E921-4DFA-A794-BFB439395CD4";
shapes = (
{
closed = 1;
nodes = (
(484,-7,o),
(612,128,o),
(650,350,cs),
(687,571,o),
(603,707,o),
(415,707,cs),
(228,707,o),
(99,571,o),
(62,350,cs),
(25,128,o),
(109,-7,o),
(296,-7,cs)
);
},
{
closed = 1;
nodes = (
(181,76,o),
(130,170,o),
(161,350,cs),
(190,530,o),
(273,624,o),
(402,624,cs),
(531,624,o),
(581,530,o),
(551,350,cs),
(520,170,o),
(439,76,o),
(310,76,cs)
);
}
);
userData = {
com.hugojourdan.ColorFlow = {
"0" = 0;
"1" = 0;
"10" = 0;
"11" = 0;
"2" = 0;
"3" = 0;
"4" = 0;
"5" = 1;
"6" = 0;
"7" = 0;
"8" = 0;
"9" = 0;
};
com.hugojourdan.ColorFlow_Color_5 = "5";
};
width = 678;
},
{
anchors = (
{
name = "#exit";
pos = (472,350);
},
{
name = center;
pos = (347,350);
},
{
name = ogonek;
pos = (341,0);
},
{
name = top;
pos = (404,700);
}
);
layerId = "126A7EFF-FBED-4747-9AEA-B121032D7D8F";
shapes = (
{
closed = 1;
nodes = (
(478,-7,o),
(611,128,o),
(649,350,cs),
(685,572,o),
(598,707,o),
(406,707,cs),
(216,707,o),
(81,572,o),
(44,350,cs),
(7,128,o),
(97,-7,o),
(287,-7,cs)
);
},
{
closed = 1;
nodes = (
(222,142,o),
(199,218,o),
(221,350,cs),
(243,483,o),
(292,558,o),
(382,558,cs),
(471,558,o),
(493,483,o),
(472,350,cs),
(449,218,o),
(401,142,o),
(312,142,cs)
);
}
);
userData = {
com.hugojourdan.ColorFlow = {
"0" = 0;
"1" = 0;
"10" = 0;
"11" = 0;
"2" = 0;
"3" = 0;
"4" = 0;
"5" = 1;
"6" = 0;
"7" = 0;
"8" = 0;
"9" = 0;
};
com.hugojourdan.ColorFlow_Color_5 = "5";
};
width = 659;
},
{
anchors = (
{
name = "#exit";
pos = (611,350);
},
{
name = center;
pos = (354,350);
},
{
name = ogonek;
pos = (353,0);
},
{
name = top;
pos = (411,700);
}
);
layerId = "15C5E54C-51CA-433B-8F99-9031AB3E7AD6";
shapes = (
{
closed = 1;
nodes = (
(478,-7,o),
(596,128,o),
(634,350,cs),
(671,572,o),
(597,707,o),
(413,707,cs),
(230,707,o),
(110,572,o),
(74,350,cs),
(36,128,o),
(111,-7,o),
(294,-7,cs)
);
},
{
closed = 1;
nodes = (
(135,13,o),
(59,128,o),
(96,350,cs),
(133,572,o),
(248,687,o),
(410,687,cs),
(572,687,o),
(648,572,o),
(611,350,cs),
(574,128,o),
(459,13,o),
(297,13,cs)
);
}
);
userData = {
com.hugojourdan.ColorFlow = {
"0" = 0;
"1" = 0;
"10" = 0;
"11" = 0;
"2" = 0;
"3" = 0;
"4" = 0;
"5" = 1;
"6" = 0;
"7" = 0;
"8" = 0;
"9" = 0;
};
com.hugojourdan.ColorFlow_Color_5 = "5";
};
width = 674;
}
);
metricRight = "=|";
unicode = 79;
userData = {
KernOnName = O;
};
},
{
color = 10;
glyphname = P;
kernLeft = KO_H;
kernRight = KO_P;
lastChange = "2024-03-29 20:25:54 +0000";
layers = (
{
layerId = "58bebe4f-9ca5-4d90-881b-c2d59ecd3066";
shapes = (
{
closed = 1;
nodes = (
(84,0,l),
(135,305,l),
(372,305,ls),
(519,305,o),
(610,375,o),
(631,503,cs),
(651,619,o),
(607,700,o),
(438,700,cs),
(179,700,l),
(62,0,l)
);
},
{
closed = 1;
nodes = (
(198,680,l),
(435,680,ls),
(585,680,o),
(627,611,o),
(609,503,cs),
(592,401,o),
(526,325,o),
(376,325,cs),
(139,325,l)
);
}
);
userData = {
com.hugojourdan.ColorFlow = {
"0" = 0;
"1" = 0;
"10" = 0;
"11" = 0;
"2" = 0;
"3" = 0;
"4" = 0;
"5" = 1;
"6" = 0;
"7" = 0;
"8" = 0;
"9" = 0;
};
com.hugojourdan.ColorFlow_Color_5 = "5";
};
width = 641;
},
{
associatedMasterId = "58bebe4f-9ca5-4d90-881b-c2d59ecd3066";
layerId = "2DCFA8E8-D693-442A-AEFA-2062C88399E9";
shapes = (
{
closed = 1;
nodes = (
(196,0,l),
(196,279,l),
(352,279,ls),
(533,279,o),
(598,390,o),
(598,489,cs),
(598,604,o),
(517,700,o),
(352,700,cs),
(80,700,l),
(80,0,l)
);
},
{
closed = 1;
nodes = (
(196,603,l),
(352,603,ls),
(440,603,o),
(480,562,o),
(480,489,cs),
(480,419,o),
(440,376,o),
(352,376,cs),
(196,376,l)
);
}
);
userData = {
com.hugojourdan.ColorFlow = {
"0" = 0;
"1" = 0;
"10" = 0;
"11" = 0;
"2" = 0;
"3" = 0;
"4" = 0;
"5" = 1;
"6" = 0;
"7" = 0;
"8" = 0;
"9" = 0;
};
com.hugojourdan.ColorFlow_Color_5 = "5";
};
width = 634.05455;
},
{
associatedMasterId = "58bebe4f-9ca5-4d90-881b-c2d59ecd3066";
layerId = "1A6DCA10-A926-4CCA-82D6-7A7EA23F1FA5";
shapes = (
{
closed = 1;
nodes = (
(184,0,l),
(184,279,l),
(308,279,ls),
(458,279,o),
(516,390,o),
(516,489,cs),
(516,604,o),
(447,700,o),
(308,700,cs),
(68,700,l),
(68,0,l)
);
},
{
closed = 1;
nodes = (
(184,603,l),
(301,603,ls),
(367,603,o),
(398,562,o),
(398,489,cs),
(398,419,o),
(367,376,o),
(301,376,cs),
(184,376,l)
);
}
);
userData = {
com.hugojourdan.ColorFlow = {
"0" = 0;
"1" = 0;
"10" = 0;
"11" = 0;
"2" = 0;
"3" = 0;
"4" = 0;
"5" = 1;
"6" = 0;
"7" = 0;
"8" = 0;
"9" = 0;
};
com.hugojourdan.ColorFlow_Color_5 = "5";
};
width = 542.34815;
},
{
associatedMasterId = "58bebe4f-9ca5-4d90-881b-c2d59ecd3066";
layerId = "F07EEB64-14A0-409E-969C-6714C313294C";
shapes = (
{
closed = 1;
nodes = (
(198,0,l),
(198,267,l),
(318,267,ls),
(468,267,o),
(531,379,o),
(531,483,cs),
(531,600,o),
(460,700,o),
(318,700,cs),
(61,700,l),
(61,0,l)
);
},
{
closed = 1;
nodes = (
(198,586,l),
(304,586,ls),
(363,586,o),
(392,548,o),
(392,483,cs),
(392,419,o),
(363,380,o),
(304,380,cs),
(198,380,l)
);
}
);
userData = {
com.hugojourdan.ColorFlow = {
"0" = 0;
"1" = 0;
"10" = 0;
"11" = 0;
"2" = 0;
"3" = 0;
"4" = 0;
"5" = 1;
"6" = 0;
"7" = 0;
"8" = 0;
"9" = 0;
};
com.hugojourdan.ColorFlow_Color_5 = "5";
};
width = 553.24315;
},
{
layerId = "af347eb2-a668-4c91-abbe-f882010a0a43";
shapes = (
{
closed = 1;
nodes = (
(139,0,l),
(187,285,l),
(358,285,ls),
(533,285,o),
(618,388,o),
(635,492,cs),
(655,607,o),
(593,700,o),
(427,700,cs),
(159,700,l),
(42,0,l)
);
},
{
closed = 1;
nodes = (
(243,619,l),
(414,619,ls),
(514,619,o),
(550,572,o),
(536,492,cs),
(524,416,o),
(471,366,o),
(371,366,cs),
(200,366,l)
);
}
);
userData = {
com.hugojourdan.ColorFlow = {
"0" = 0;
"1" = 0;
"10" = 0;
"11" = 0;
"2" = 0;
"3" = 0;
"4" = 0;
"5" = 1;
"6" = 0;
"7" = 0;
"8" = 0;
"9" = 0;
};
com.hugojourdan.ColorFlow_Color_5 = "5";
};
width = 634;
},
{
layerId = "edd54720-fbeb-44cd-af84-4ff57ec79b05";
shapes = (
{
closed = 1;
nodes = (
(189,0,l),
(230,243,l),
(378,243,ls),
(557,243,o),
(656,359,o),
(675,472,cs),
(696,594,o),
(627,700,o),
(454,700,cs),
(132,700,l),
(15,0,l)
);
},
{
closed = 1;
nodes = (
(282,554,l),
(419,554,ls),
(481,554,o),
(507,522,o),
(498,472,cs),
(489,419,o),
(453,389,o),
(391,389,cs),
(254,389,l)
);
}
);
userData = {
com.hugojourdan.ColorFlow = {
"0" = 0;
"1" = 0;
"10" = 0;
"11" = 0;
"2" = 0;
"3" = 0;
"4" = 0;
"5" = 1;
"6" = 0;
"7" = 0;
"8" = 0;
"9" = 0;
};
com.hugojourdan.ColorFlow_Color_5 = "5";
};
width = 662;
},
{
layerId = "8D5D41BF-E921-4DFA-A794-BFB439395CD4";
shapes = (
{
closed = 1;
nodes = (
(129,0,l),
(177,285,l),
(315,285,ls),
(461,285,o),
(538,388,o),
(555,492,cs),
(575,607,o),
(524,700,o),
(384,700,cs),
(149,700,l),
(32,0,l)
);
},
{
closed = 1;
nodes = (
(233,619,l),
(366,619,ls),
(443,619,o),
(470,572,o),
(456,492,cs),
(444,416,o),
(400,366,o),
(323,366,cs),
(190,366,l)
);
}
);
userData = {
com.hugojourdan.ColorFlow = {
"0" = 0;
"1" = 0;
"10" = 0;
"11" = 0;
"2" = 0;
"3" = 0;
"4" = 0;
"5" = 1;
"6" = 0;
"7" = 0;
"8" = 0;
"9" = 0;
};
com.hugojourdan.ColorFlow_Color_5 = "5";
};
width = 550;
},
{
layerId = "126A7EFF-FBED-4747-9AEA-B121032D7D8F";
shapes = (
{
closed = 1;
nodes = (
(184,0,l),
(225,243,l),
(338,243,ls),
(487,243,o),
(578,359,o),
(597,472,cs),
(618,594,o),
(561,700,o),
(414,700,cs),
(125,700,l),
(8,0,l)
);
},
{
closed = 1;
nodes = (
(277,554,l),
(361,554,ls),
(407,554,o),
(429,522,o),
(420,472,cs),
(411,419,o),
(379,389,o),
(333,389,cs),
(249,389,l)
);
}
);
userData = {
com.hugojourdan.ColorFlow = {
"0" = 0;
"1" = 0;
"10" = 0;
"11" = 0;
"2" = 0;
"3" = 0;
"4" = 0;
"5" = 1;
"6" = 0;
"7" = 0;
"8" = 0;
"9" = 0;
};
com.hugojourdan.ColorFlow_Color_5 = "5";
};
width = 583;
},
{
layerId = "15C5E54C-51CA-433B-8F99-9031AB3E7AD6";
shapes = (
{
closed = 1;
nodes = (
(70,0,l),
(121,305,l),
(322,305,ls),
(445,305,o),
(522,375,o),
(543,503,cs),
(563,619,o),
(529,700,o),
(388,700,cs),
(165,700,l),
(48,0,l)
);
},
{
closed = 1;
nodes = (
(184,680,l),
(382,680,ls),
(506,680,o),
(539,611,o),
(521,503,cs),
(504,401,o),
(447,325,o),
(323,325,cs),
(125,325,l)
);
}
);
userData = {
com.hugojourdan.ColorFlow = {
"0" = 0;
"1" = 0;
"10" = 0;
"11" = 0;
"2" = 0;
"3" = 0;
"4" = 0;
"5" = 1;
"6" = 0;
"7" = 0;
"8" = 0;
"9" = 0;
};
com.hugojourdan.ColorFlow_Color_5 = "5";
};
width = 545;
}
);
unicode = 80;
},
{
color = 10;
glyphname = Thorn;
kernLeft = KO_H;
kernRight = KO_O;
lastChange = "2024-03-29 20:25:54 +0000";
layers = (
{
layerId = "58bebe4f-9ca5-4d90-881b-c2d59ecd3066";
shapes = (
{
closed = 1;
nodes = (
(84,0,l),
(111,158,l),
(268,158,ls),
(415,158,o),
(503,221,o),
(525,350,cs),
(544,466,o),
(492,543,o),
(332,543,cs),
(175,543,l),
(201,700,l),
(179,700,l),
(62,0,l)
);
},
{
closed = 1;
nodes = (
(172,522,l),
(329,522,ls),
(479,522,o),
(521,458,o),
(503,350,cs),
(485,247,o),
(421,180,o),
(271,180,cs),
(114,180,l)
);
}
);
userData = {
com.hugojourdan.ColorFlow = {
"0" = 0;
"1" = 0;
"10" = 0;
"11" = 0;
"2" = 0;
"3" = 0;
"4" = 0;
"5" = 1;
"6" = 0;
"7" = 0;
"8" = 0;
"9" = 0;
};
com.hugojourdan.ColorFlow_Color_5 = "5";
};
width = 559;
},
{
associatedMasterId = "58bebe4f-9ca5-4d90-881b-c2d59ecd3066";
layerId = "729FC4C8-4DC7-40FA-A11A-41C42678D732";
shapes = (
{
closed = 1;
nodes = (
(196,0,l),
(196,143,l),
(322,143,ls),
(503,143,o),
(568,250,o),
(568,350,cs),
(568,464,o),
(487,559,o),
(322,559,cs),
(195,559,l),
(195,700,l),
(80,700,l),
(80,0,l)
);
},
{
closed = 1;
nodes = (
(196,468,l),
(321,468,ls),
(409,468,o),
(449,421,o),
(449,350,cs),
(449,280,o),
(409,233,o),
(321,233,cs),
(196,233,l)
);
}
);
userData = {
com.hugojourdan.ColorFlow = {
"0" = 0;
"1" = 0;
"10" = 0;
"11" = 0;
"2" = 0;
"3" = 0;
"4" = 0;
"5" = 1;
"6" = 0;
"7" = 0;
"8" = 0;
"9" = 0;
};
com.hugojourdan.ColorFlow_Color_5 = "5";
};
width = 602.69091;
},
{
associatedMasterId = "58bebe4f-9ca5-4d90-881b-c2d59ecd3066";
layerId = "12CA3377-AF8D-42C2-9717-9820454BDE7E";
shapes = (
{
closed = 1;
nodes = (
(184,0,l),
(184,143,l),
(280,143,ls),
(430,143,o),
(488,250,o),
(488,350,cs),
(488,464,o),
(419,559,o),
(280,559,cs),
(183,559,l),
(183,700,l),
(68,700,l),
(68,0,l)
);
},
{
closed = 1;
nodes = (
(184,468,l),
(271,468,ls),
(339,468,o),
(369,421,o),
(369,350,cs),
(369,280,o),
(339,233,o),
(271,233,cs),
(184,233,l)
);
}
);
userData = {
com.hugojourdan.ColorFlow = {
"0" = 0;
"1" = 0;
"10" = 0;
"11" = 0;
"2" = 0;
"3" = 0;
"4" = 0;
"5" = 1;
"6" = 0;
"7" = 0;
"8" = 0;
"9" = 0;
};
com.hugojourdan.ColorFlow_Color_5 = "5";
};
width = 513.98452;
},
{
associatedMasterId = "58bebe4f-9ca5-4d90-881b-c2d59ecd3066";
layerId = "0841F9F2-3034-427D-B000-E5BE3CCDE676";
shapes = (
{
closed = 1;
nodes = (
(198,0,l),
(198,139,l),
(286,139,ls),
(437,139,o),
(499,246,o),
(499,350,cs),
(499,469,o),
(428,563,o),
(286,563,cs),
(196,563,l),
(196,700,l),
(61,700,l),
(61,0,l)
);
},
{
closed = 1;
nodes = (
(198,457,l),
(273,457,ls),
(333,457,o),
(359,415,o),
(359,350,cs),
(359,286,o),
(333,244,o),
(273,244,cs),
(198,244,l)
);
}
);
userData = {
com.hugojourdan.ColorFlow = {
"0" = 0;
"1" = 0;
"10" = 0;
"11" = 0;
"2" = 0;
"3" = 0;
"4" = 0;
"5" = 1;
"6" = 0;
"7" = 0;
"8" = 0;
"9" = 0;
};
com.hugojourdan.ColorFlow_Color_5 = "5";
};
width = 521.60679;
},
{
layerId = "af347eb2-a668-4c91-abbe-f882010a0a43";
shapes = (
{
closed = 1;
nodes = (
(139,0,l),
(164,146,l),
(296,146,ls),
(471,146,o),
(554,245,o),
(572,350,cs),
(591,464,o),
(528,555,o),
(364,555,cs),
(231,555,l),
(255,700,l),
(159,700,l),
(42,0,l)
);
},
{
closed = 1;
nodes = (
(219,479,l),
(351,479,ls),
(451,479,o),
(486,429,o),
(473,350,cs),
(460,273,o),
(408,222,o),
(308,222,cs),
(176,222,l)
);
}
);
userData = {
com.hugojourdan.ColorFlow = {
"0" = 0;
"1" = 0;
"10" = 0;
"11" = 0;
"2" = 0;
"3" = 0;
"4" = 0;
"5" = 1;
"6" = 0;
"7" = 0;
"8" = 0;
"9" = 0;
};
com.hugojourdan.ColorFlow_Color_5 = "5";
};
width = 594;
},
{
layerId = "edd54720-fbeb-44cd-af84-4ff57ec79b05";
shapes = (
{
closed = 1;
nodes = (
(192,0,l),
(214,132,l),
(318,132,ls),
(497,132,o),
(595,237,o),
(614,351,cs),
(635,477,o),
(564,572,o),
(392,572,cs),
(286,572,l),
(307,700,l),
(132,700,l),
(15,0,l)
);
},
{
closed = 1;
nodes = (
(265,437,l),
(354,437,ls),
(421,437,o),
(444,403,o),
(435,351,cs),
(426,299,o),
(392,264,o),
(325,264,cs),
(236,264,l)
);
}
);
userData = {
com.hugojourdan.ColorFlow = {
"0" = 0;
"1" = 0;
"10" = 0;
"11" = 0;
"2" = 0;
"3" = 0;
"4" = 0;
"5" = 1;
"6" = 0;
"7" = 0;
"8" = 0;
"9" = 0;
};
com.hugojourdan.ColorFlow_Color_5 = "5";
};
width = 621;
},
{
layerId = "8D5D41BF-E921-4DFA-A794-BFB439395CD4";
shapes = (
{
closed = 1;
nodes = (
(129,0,l),
(154,146,l),
(256,146,ls),
(401,146,o),
(477,245,o),
(495,350,cs),
(514,464,o),
(463,555,o),
(324,555,cs),
(221,555,l),
(245,700,l),
(149,700,l),
(32,0,l)
);
},
{
closed = 1;
nodes = (
(209,479,l),
(304,479,ls),
(383,479,o),
(408,429,o),
(395,350,cs),
(382,273,o),
(340,222,o),
(261,222,cs),
(166,222,l)
);
}
);
userData = {
com.hugojourdan.ColorFlow = {
"0" = 0;
"1" = 0;
"10" = 0;
"11" = 0;
"2" = 0;
"3" = 0;
"4" = 0;
"5" = 1;
"6" = 0;
"7" = 0;
"8" = 0;
"9" = 0;
};
com.hugojourdan.ColorFlow_Color_5 = "5";
};
width = 513;
},
{
layerId = "126A7EFF-FBED-4747-9AEA-B121032D7D8F";
shapes = (
{
closed = 1;
nodes = (
(185,0,l),
(207,132,l),
(281,132,ls),
(431,132,o),
(520,237,o),
(539,351,cs),
(560,477,o),
(500,572,o),
(355,572,cs),
(279,572,l),
(300,700,l),
(125,700,l),
(8,0,l)
);
},
{
closed = 1;
nodes = (
(258,437,l),
(310,437,ls),
(355,437,o),
(368,403,o),
(359,351,cs),
(350,299,o),
(326,264,o),
(281,264,cs),
(229,264,l)
);
}
);
userData = {
com.hugojourdan.ColorFlow = {
"0" = 0;
"1" = 0;
"10" = 0;
"11" = 0;
"2" = 0;
"3" = 0;
"4" = 0;
"5" = 1;
"6" = 0;
"7" = 0;
"8" = 0;
"9" = 0;
};
com.hugojourdan.ColorFlow_Color_5 = "5";
};
width = 545;
},
{
layerId = "15C5E54C-51CA-433B-8F99-9031AB3E7AD6";
shapes = (
{
closed = 1;
nodes = (
(70,0,l),
(97,158,l),
(224,158,ls),
(346,158,o),
(421,221,o),
(443,350,cs),
(462,466,o),
(421,543,o),
(288,543,cs),
(161,543,l),
(187,700,l),
(165,700,l),
(48,0,l)
);
},
{
closed = 1;
nodes = (
(158,522,l),
(281,522,ls),
(406,522,o),
(439,458,o),
(421,350,cs),
(403,247,o),
(348,180,o),
(223,180,cs),
(100,180,l)
);
}
);
userData = {
com.hugojourdan.ColorFlow = {
"0" = 0;
"1" = 0;
"10" = 0;
"11" = 0;
"2" = 0;
"3" = 0;
"4" = 0;
"5" = 1;
"6" = 0;
"7" = 0;
"8" = 0;
"9" = 0;
};
com.hugojourdan.ColorFlow_Color_5 = "5";
};
width = 469;
}
);
unicode = 222;
},
{
color = 10;
glyphname = R;
kernLeft = KO_H;
kernRight = KO_R;
lastChange = "2024-03-29 20:25:54 +0000";
layers = (
{
anchors = (
{
name = bottom;
pos = (273,0);
},
{
name = top;
pos = (421,700);
}
);
layerId = "58bebe4f-9ca5-4d90-881b-c2d59ecd3066";
shapes = (
{
closed = 1;
nodes = (
(84,0,l),
(137,315,l),
(374,315,ls),
(521,315,o),
(611,382,o),
(632,508,cs),
(652,624,o),
(605,700,o),
(436,700,cs),
(179,700,l),
(62,0,l)
);
},
{
closed = 1;
nodes = (
(557,0,l),
(414,323,l),
(389,323,l),
(532,0,l)
);
},
{
closed = 1;
nodes = (
(198,680,l),
(433,680,ls),
(583,680,o),
(628,615,o),
(610,508,cs),
(593,406,o),
(520,335,o),
(377,335,cs),
(140,335,l)
);
}
);
userData = {
com.hugojourdan.ColorFlow = {
"0" = 0;
"1" = 0;
"10" = 0;
"11" = 0;
"2" = 0;
"3" = 0;
"4" = 0;
"5" = 1;
"6" = 0;
"7" = 0;
"8" = 0;
"9" = 0;
};
com.hugojourdan.ColorFlow_Color_5 = "5";
};
width = 654;
},
{
anchors = (
{
name = bottom;
pos = (332,0);
},
{
name = top;
pos = (322,700);
}
);
associatedMasterId = "58bebe4f-9ca5-4d90-881b-c2d59ecd3066";
layerId = "AD11D551-F1CF-47AC-A6B7-1D5380B47293";
shapes = (
{
closed = 1;
nodes = (
(196,0,l),
(196,289,l),
(352,289,ls),
(533,289,o),
(598,395,o),
(598,494,cs),
(598,609,o),
(517,700,o),
(352,700,cs),
(80,700,l),
(80,0,l)
);
},
{
closed = 1;
nodes = (
(613,0,l),
(422,326,l),
(298,326,l),
(482,0,l)
);
},
{
closed = 1;
nodes = (
(196,603,l),
(352,603,ls),
(440,603,o),
(480,565,o),
(480,494,cs),
(480,425,o),
(440,386,o),
(352,386,cs),
(196,386,l)
);
}
);
userData = {
com.hugojourdan.ColorFlow = {
"0" = 0;
"1" = 0;
"10" = 0;
"11" = 0;
"2" = 0;
"3" = 0;
"4" = 0;
"5" = 1;
"6" = 0;
"7" = 0;
"8" = 0;
"9" = 0;
};
com.hugojourdan.ColorFlow_Color_5 = "5";
};
width = 648.94545;
},
{
anchors = (
{
name = bottom;
pos = (286,0);
},
{
name = top;
pos = (279,700);
}
);
associatedMasterId = "58bebe4f-9ca5-4d90-881b-c2d59ecd3066";
layerId = "94C1154B-1069-4C82-8D12-393D1E9A02DC";
shapes = (
{
closed = 1;
nodes = (
(184,0,l),
(184,289,l),
(308,289,ls),
(458,289,o),
(516,395,o),
(516,494,cs),
(516,609,o),
(447,700,o),
(308,700,cs),
(68,700,l),
(68,0,l)
);
},
{
closed = 1;
nodes = (
(528,0,l),
(371,326,l),
(252,326,l),
(402,0,l)
);
},
{
closed = 1;
nodes = (
(184,603,l),
(301,603,ls),
(367,603,o),
(399,565,o),
(399,494,cs),
(399,425,o),
(367,386,o),
(301,386,cs),
(184,386,l)
);
}
);
userData = {
com.hugojourdan.ColorFlow = {
"0" = 0;
"1" = 0;
"10" = 0;
"11" = 0;
"2" = 0;
"3" = 0;
"4" = 0;
"5" = 1;
"6" = 0;
"7" = 0;
"8" = 0;
"9" = 0;
};
com.hugojourdan.ColorFlow_Color_5 = "5";
};
width = 556.02736;
},
{
anchors = (
{
name = bottom;
pos = (290,0);
},
{
name = top;
pos = (285,700);
}
);
associatedMasterId = "58bebe4f-9ca5-4d90-881b-c2d59ecd3066";
layerId = "1F1DDD7E-C5FB-4BD4-B0A2-0DF8BF83AF19";
shapes = (
{
closed = 1;
nodes = (
(197,0,l),
(197,277,l),
(318,277,ls),
(468,277,o),
(531,384,o),
(531,488,cs),
(531,605,o),
(460,700,o),
(318,700,cs),
(61,700,l),
(61,0,l)
);
},
{
closed = 1;
nodes = (
(542,0,l),
(387,322,l),
(249,322,l),
(396,0,l)
);
},
{
closed = 1;
nodes = (
(197,586,l),
(304,586,ls),
(363,586,o),
(393,552,o),
(393,488,cs),
(393,425,o),
(363,390,o),
(304,390,cs),
(197,390,l)
);
}
);
userData = {
com.hugojourdan.ColorFlow = {
"0" = 0;
"1" = 0;
"10" = 0;
"11" = 0;
"2" = 0;
"3" = 0;
"4" = 0;
"5" = 1;
"6" = 0;
"7" = 0;
"8" = 0;
"9" = 0;
};
com.hugojourdan.ColorFlow_Color_5 = "5";
};
width = 565.76503;
},
{
anchors = (
{
name = bottom;
pos = (286,0);
},
{
name = top;
pos = (400,700);
}
);
layerId = "af347eb2-a668-4c91-abbe-f882010a0a43";
shapes = (
{
closed = 1;
nodes = (
(139,0,l),
(189,295,l),
(360,295,ls),
(535,295,o),
(619,393,o),
(636,497,cs),
(656,612,o),
(593,700,o),
(427,700,cs),
(159,700,l),
(42,0,l)
);
},
{
closed = 1;
nodes = (
(567,0,l),
(429,326,l),
(325,326,l),
(457,0,l)
);
},
{
closed = 1;
nodes = (
(243,619,l),
(414,619,ls),
(514,619,o),
(550,575,o),
(537,497,cs),
(525,422,o),
(472,376,o),
(373,376,cs),
(202,376,l)
);
}
);
userData = {
com.hugojourdan.ColorFlow = {
"0" = 0;
"1" = 0;
"10" = 0;
"11" = 0;
"2" = 0;
"3" = 0;
"4" = 0;
"5" = 1;
"6" = 0;
"7" = 0;
"8" = 0;
"9" = 0;
};
com.hugojourdan.ColorFlow_Color_5 = "5";
};
width = 649;
},
{
anchors = (
{
name = bottom;
pos = (296,1);
},
{
name = top;
pos = (410,700);
}
);
layerId = "edd54720-fbeb-44cd-af84-4ff57ec79b05";
shapes = (
{
closed = 1;
nodes = (
(189,0,l),
(232,253,l),
(380,253,ls),
(559,253,o),
(657,364,o),
(676,477,cs),
(696,599,o),
(627,700,o),
(454,700,cs),
(132,700,l),
(15,0,l)
);
},
{
closed = 1;
nodes = (
(609,0,l),
(478,313,l),
(296,313,l),
(417,0,l)
);
},
{
closed = 1;
nodes = (
(282,554,l),
(419,554,ls),
(481,554,o),
(507,527,o),
(499,477,cs),
(490,424,o),
(455,399,o),
(393,399,cs),
(256,399,l)
);
}
);
userData = {
com.hugojourdan.ColorFlow = {
"0" = 0;
"1" = 0;
"10" = 0;
"11" = 0;
"2" = 0;
"3" = 0;
"4" = 0;
"5" = 1;
"6" = 0;
"7" = 0;
"8" = 0;
"9" = 0;
};
com.hugojourdan.ColorFlow_Color_5 = "5";
};
width = 674;
},
{
anchors = (
{
name = bottom;
pos = (243,0);
},
{
name = top;
pos = (359,700);
}
);
layerId = "8D5D41BF-E921-4DFA-A794-BFB439395CD4";
shapes = (
{
closed = 1;
nodes = (
(129,0,l),
(179,295,l),
(317,295,ls),
(463,295,o),
(539,393,o),
(556,497,cs),
(576,612,o),
(524,700,o),
(384,700,cs),
(149,700,l),
(32,0,l)
);
},
{
closed = 1;
nodes = (
(484,0,l),
(380,326,l),
(280,326,l),
(378,0,l)
);
},
{
closed = 1;
nodes = (
(233,619,l),
(366,619,ls),
(443,619,o),
(470,575,o),
(457,497,cs),
(445,422,o),
(401,376,o),
(325,376,cs),
(192,376,l)
);
}
);
userData = {
com.hugojourdan.ColorFlow = {
"0" = 0;
"1" = 0;
"10" = 0;
"11" = 0;
"2" = 0;
"3" = 0;
"4" = 0;
"5" = 1;
"6" = 0;
"7" = 0;
"8" = 0;
"9" = 0;
};
com.hugojourdan.ColorFlow_Color_5 = "5";
};
width = 562;
},
{
anchors = (
{
name = bottom;
pos = (257,1);
},
{
name = top;
pos = (372,700);
}
);
layerId = "126A7EFF-FBED-4747-9AEA-B121032D7D8F";
shapes = (
{
closed = 1;
nodes = (
(182,0,l),
(225,253,l),
(340,253,ls),
(489,253,o),
(579,364,o),
(598,477,cs),
(618,599,o),
(561,700,o),
(414,700,cs),
(125,700,l),
(8,0,l)
);
},
{
closed = 1;
nodes = (
(528,0,l),
(431,313,l),
(257,313,l),
(344,0,l)
);
},
{
closed = 1;
nodes = (
(275,554,l),
(361,554,ls),
(406,554,o),
(428,527,o),
(420,477,cs),
(411,424,o),
(380,399,o),
(335,399,cs),
(249,399,l)
);
}
);
userData = {
com.hugojourdan.ColorFlow = {
"0" = 0;
"1" = 0;
"10" = 0;
"11" = 0;
"2" = 0;
"3" = 0;
"4" = 0;
"5" = 1;
"6" = 0;
"7" = 0;
"8" = 0;
"9" = 0;
};
com.hugojourdan.ColorFlow_Color_5 = "5";
};
width = 592;
},
{
anchors = (
{
name = bottom;
pos = (229,0);
},
{
name = top;
pos = (374,700);
}
);
layerId = "15C5E54C-51CA-433B-8F99-9031AB3E7AD6";
shapes = (
{
closed = 1;
nodes = (
(70,0,l),
(123,315,l),
(324,315,ls),
(447,315,o),
(523,382,o),
(544,508,cs),
(564,624,o),
(528,700,o),
(387,700,cs),
(165,700,l),
(48,0,l)
);
},
{
closed = 1;
nodes = (
(468,0,l),
(358,323,l),
(334,323,l),
(444,0,l)
);
},
{
closed = 1;
nodes = (
(184,680,l),
(380,680,ls),
(505,680,o),
(540,615,o),
(522,508,cs),
(505,406,o),
(443,335,o),
(324,335,cs),
(126,335,l)
);
}
);
userData = {
com.hugojourdan.ColorFlow = {
"0" = 0;
"1" = 0;
"10" = 0;
"11" = 0;
"2" = 0;
"3" = 0;
"4" = 0;
"5" = 1;
"6" = 0;
"7" = 0;
"8" = 0;
"9" = 0;
};
com.hugojourdan.ColorFlow_Color_5 = "5";
};
width = 557;
}
);
unicode = 82;
userData = {
KernOnName = R;
};
},
{
color = 10;
glyphname = S;
kernLeft = KO_S;
kernRight = KO_S;
lastChange = "2024-03-29 20:25:54 +0000";
layers = (
{
anchors = (
{
name = bottom;
pos = (242,0);
},
{
name = center;
pos = (311,350);
},
{
name = top;
pos = (359,700);
}
);
layerId = "58bebe4f-9ca5-4d90-881b-c2d59ecd3066";
shapes = (
{
closed = 1;
nodes = (
(416,-7,o),
(491,76,o),
(507,170,cs),
(527,291,o),
(433,331,o),
(317,365,cs),
(209,397,o),
(116,424,o),
(133,527,cs),
(151,630,o),
(255,687,o),
(363,687,cs),
(485,687,o),
(530,624,o),
(540,571,c),
(561,576,l),
(552,639,o),
(495,707,o),
(366,707,cs),
(228,707,o),
(130,630,o),
(112,523,cs),
(92,407,o),
(190,378,o),
(304,345,cs),
(414,313,o),
(502,274,o),
(484,168,cs),
(469,77,o),
(389,14,o),
(254,14,cs),
(100,14,o),
(63,96,o),
(59,154,c),
(39,149,l),
(43,68,o),
(99,-7,o),
(252,-7,cs)
);
}
);
userData = {
com.hugojourdan.ColorFlow = {
"0" = 0;
"1" = 0;
"10" = 0;
"11" = 0;
"2" = 0;
"3" = 0;
"4" = 0;
"5" = 1;
"6" = 0;
"7" = 0;
"8" = 0;
"9" = 0;
};
com.hugojourdan.ColorFlow_Color_5 = "5";
};
width = 576;
},
{
anchors = (
{
name = bottom;
pos = (292,-7);
},
{
name = center;
pos = (290,350);
},
{
name = top;
pos = (288,700);
}
);
associatedMasterId = "58bebe4f-9ca5-4d90-881b-c2d59ecd3066";
layerId = "2421A87C-7432-4CE3-9EDD-3E4A5B20C669";
shapes = (
{
closed = 1;
nodes = (
(453,-7,o),
(533,86,o),
(533,201,cs),
(533,345,o),
(408,384,o),
(298,417,cs),
(225,439,o),
(166,458,o),
(166,518,cs),
(166,575,o),
(218,608,o),
(286,608,cs),
(350,608,o),
(400,574,o),
(413,530,c),
(520,567,l),
(488,658,o),
(402,707,o),
(285,707,cs),
(145,707,o),
(48,636,o),
(48,509,cs),
(48,384,o),
(151,347,o),
(260,315,cs),
(354,287,o),
(415,258,o),
(415,191,cs),
(415,137,o),
(374,92,o),
(289,92,cs),
(206,92,o),
(159,135,o),
(147,191,c),
(40,154,l),
(62,55,o),
(163,-7,o),
(293,-7,cs)
);
}
);
userData = {
com.hugojourdan.ColorFlow = {
"0" = 0;
"1" = 0;
"10" = 0;
"11" = 0;
"2" = 0;
"3" = 0;
"4" = 0;
"5" = 1;
"6" = 0;
"7" = 0;
"8" = 0;
"9" = 0;
};
com.hugojourdan.ColorFlow_Color_5 = "5";
};
width = 573.8;
},
{
anchors = (
{
name = bottom;
pos = (247,-7);
},
{
name = center;
pos = (244,350);
},
{
name = top;
pos = (245,700);
}
);
associatedMasterId = "58bebe4f-9ca5-4d90-881b-c2d59ecd3066";
layerId = "7D3313BE-5CF8-428C-A863-D7581BF491FB";
shapes = (
{
closed = 1;
nodes = (
(381,-7,o),
(455,76,o),
(455,198,cs),
(455,314,o),
(369,373,o),
(256,418,cs),
(195,441,o),
(154,469,o),
(154,521,cs),
(154,578,o),
(191,608,o),
(244,608,cs),
(292,608,o),
(325,580,o),
(336,532,c),
(443,567,l),
(418,657,o),
(344,707,o),
(241,707,cs),
(118,707,o),
(38,635,o),
(38,512,cs),
(38,411,o),
(111,356,o),
(220,315,cs),
(294,287,o),
(337,250,o),
(337,188,cs),
(337,130,o),
(304,92,o),
(244,92,cs),
(187,92,o),
(150,125,o),
(138,191,c),
(31,159,l),
(49,60,o),
(131,-7,o),
(249,-7,cs)
);
}
);
userData = {
com.hugojourdan.ColorFlow = {
"0" = 0;
"1" = 0;
"10" = 0;
"11" = 0;
"2" = 0;
"3" = 0;
"4" = 0;
"5" = 1;
"6" = 0;
"7" = 0;
"8" = 0;
"9" = 0;
};
com.hugojourdan.ColorFlow_Color_5 = "5";
};
width = 485.6351;
},
{
anchors = (
{
name = bottom;
pos = (251,-5);
},
{
name = center;
pos = (248,350);
},
{
name = top;
pos = (249,700);
}
);
associatedMasterId = "58bebe4f-9ca5-4d90-881b-c2d59ecd3066";
layerId = "B8C4D247-2BB2-4D43-B4C2-067F6C77E75A";
shapes = (
{
closed = 1;
nodes = (
(391,-7,o),
(467,77,o),
(467,198,cs),
(467,319,o),
(375,376,o),
(272,416,cs),
(209,442,o),
(170,467,o),
(170,516,cs),
(170,567,o),
(203,595,o),
(250,595,cs),
(291,595,o),
(322,570,o),
(331,524,c),
(454,555,l),
(431,653,o),
(354,707,o),
(245,707,cs),
(119,707,o),
(34,634,o),
(34,510,cs),
(34,403,o),
(112,350,o),
(216,309,cs),
(290,280,o),
(329,248,o),
(329,192,cs),
(329,139,o),
(300,106,o),
(245,106,cs),
(194,106,o),
(161,135,o),
(150,197,c),
(26,167,l),
(44,61,o),
(130,-7,o),
(253,-7,cs)
);
}
);
userData = {
com.hugojourdan.ColorFlow = {
"0" = 0;
"1" = 0;
"10" = 0;
"11" = 0;
"2" = 0;
"3" = 0;
"4" = 0;
"5" = 1;
"6" = 0;
"7" = 0;
"8" = 0;
"9" = 0;
};
com.hugojourdan.ColorFlow_Color_5 = "5";
};
width = 493.36164;
},
{
anchors = (
{
name = bottom;
pos = (249,-6);
},
{
name = center;
pos = (310,350);
},
{
name = top;
pos = (363,700);
}
);
layerId = "af347eb2-a668-4c91-abbe-f882010a0a43";
shapes = (
{
closed = 1;
nodes = (
(412,-7,o),
(504,84,o),
(523,195,cs),
(546,335,o),
(432,374,o),
(325,407,cs),
(248,431,o),
(186,452,o),
(197,520,cs),
(208,586,o),
(275,624,o),
(351,624,cs),
(426,624,o),
(472,582,o),
(478,537,c),
(573,565,l),
(558,653,o),
(484,707,o),
(364,707,cs),
(224,707,o),
(117,635,o),
(97,512,cs),
(76,389,o),
(173,354,o),
(279,321,cs),
(372,293,o),
(435,261,o),
(422,187,cs),
(412,125,o),
(358,76,o),
(263,76,cs),
(165,76,o),
(126,128,o),
(124,185,c),
(29,159,l),
(29,60,o),
(115,-7,o),
(252,-7,cs)
);
}
);
userData = {
com.hugojourdan.ColorFlow = {
"0" = 0;
"1" = 0;
"10" = 0;
"11" = 0;
"2" = 0;
"3" = 0;
"4" = 0;
"5" = 1;
"6" = 0;
"7" = 0;
"8" = 0;
"9" = 0;
};
com.hugojourdan.ColorFlow_Color_5 = "5";
};
width = 576;
},
{
anchors = (
{
name = bottom;
pos = (264,-2);
},
{
name = center;
pos = (319,350);
},
{
name = top;
pos = (379,700);
}
);
layerId = "edd54720-fbeb-44cd-af84-4ff57ec79b05";
shapes = (
{
closed = 1;
nodes = (
(444,-7,o),
(544,85,o),
(564,202,cs),
(589,350,o),
(458,388,o),
(354,420,cs),
(295,438,o),
(252,459,o),
(259,502,cs),
(266,542,o),
(311,568,o),
(359,568,cs),
(398,568,o),
(441,549,o),
(439,501,c),
(604,521,l),
(606,642,o),
(520,707,o),
(375,707,cs),
(226,707,o),
(104,635,o),
(82,502,cs),
(58,358,o),
(179,321,o),
(280,291,cs),
(348,271,o),
(396,254,o),
(387,204,cs),
(380,163,o),
(341,134,o),
(278,134,cs),
(223,134,o),
(180,155,o),
(183,218,c),
(16,198,l),
(4,64,o),
(104,-7,o),
(266,-7,cs)
);
}
);
userData = {
com.hugojourdan.ColorFlow = {
"0" = 0;
"1" = 0;
"10" = 0;
"11" = 0;
"2" = 0;
"3" = 0;
"4" = 0;
"5" = 1;
"6" = 0;
"7" = 0;
"8" = 0;
"9" = 0;
};
com.hugojourdan.ColorFlow_Color_5 = "5";
};
width = 598;
},
{
anchors = (
{
name = bottom;
pos = (208,-6);
},
{
name = center;
pos = (267,350);
},
{
name = top;
pos = (324,700);
}
);
layerId = "8D5D41BF-E921-4DFA-A794-BFB439395CD4";
shapes = (
{
closed = 1;
nodes = (
(342,-7,o),
(428,74,o),
(447,191,cs),
(466,305,o),
(393,364,o),
(286,408,cs),
(223,433,o),
(181,465,o),
(190,524,cs),
(201,587,o),
(252,624,o),
(313,624,cs),
(371,624,o),
(404,589,o),
(405,538,c),
(499,560,l),
(496,652,o),
(432,707,o),
(324,707,cs),
(203,707,o),
(111,634,o),
(92,515,cs),
(75,415,o),
(140,362,o),
(242,320,cs),
(317,292,o),
(358,251,o),
(346,183,cs),
(336,119,o),
(291,76,o),
(221,76,cs),
(151,76,o),
(117,116,o),
(118,184,c),
(25,163,l),
(19,62,o),
(88,-7,o),
(212,-7,cs)
);
}
);
userData = {
com.hugojourdan.ColorFlow = {
"0" = 0;
"1" = 0;
"10" = 0;
"11" = 0;
"2" = 0;
"3" = 0;
"4" = 0;
"5" = 1;
"6" = 0;
"7" = 0;
"8" = 0;
"9" = 0;
};
com.hugojourdan.ColorFlow_Color_5 = "5";
};
width = 497;
},
{
anchors = (
{
name = bottom;
pos = (225,-2);
},
{
name = center;
pos = (281,350);
},
{
name = top;
pos = (341,700);
}
);
layerId = "126A7EFF-FBED-4747-9AEA-B121032D7D8F";
shapes = (
{
closed = 1;
nodes = (
(376,-7,o),
(470,78,o),
(490,197,cs),
(513,333,o),
(414,381,o),
(340,413,cs),
(277,443,o),
(244,462,o),
(251,505,cs),
(258,544,o),
(287,568,o),
(322,568,cs),
(352,568,o),
(376,550,o),
(373,506,c),
(532,521,l),
(538,640,o),
(472,707,o),
(337,707,cs),
(204,707,o),
(99,631,o),
(78,506,cs),
(59,388,o),
(135,338,o),
(224,298,cs),
(295,264,o),
(323,245,o),
(315,198,cs),
(308,157,o),
(282,134,o),
(237,134,cs),
(195,134,o),
(172,157,o),
(176,215,c),
(15,200,l),
(-1,69,o),
(79,-7,o),
(226,-7,cs)
);
}
);
userData = {
com.hugojourdan.ColorFlow = {
"0" = 0;
"1" = 0;
"10" = 0;
"11" = 0;
"2" = 0;
"3" = 0;
"4" = 0;
"5" = 1;
"6" = 0;
"7" = 0;
"8" = 0;
"9" = 0;
};
com.hugojourdan.ColorFlow_Color_5 = "5";
};
width = 523;
},
{
anchors = (
{
name = bottom;
pos = (198,0);
},
{
name = center;
pos = (264,350);
},
{
name = top;
pos = (315,700);
}
);
layerId = "15C5E54C-51CA-433B-8F99-9031AB3E7AD6";
shapes = (
{
closed = 1;
nodes = (
(335,-7,o),
(408,63,o),
(425,164,cs),
(442,269,o),
(377,327,o),
(270,366,cs),
(177,399,o),
(109,446,o),
(124,533,cs),
(140,626,o),
(223,687,o),
(318,687,cs),
(413,687,o),
(455,639,o),
(462,571,c),
(482,575,l),
(478,652,o),
(425,707,o),
(320,707,cs),
(206,707,o),
(119,635,o),
(101,529,cs),
(85,434,o),
(154,381,o),
(259,344,cs),
(358,310,o),
(417,254,o),
(402,162,cs),
(387,70,o),
(319,14,o),
(208,14,cs),
(93,14,o),
(54,71,o),
(50,149,c),
(29,144,l),
(32,52,o),
(84,-7,o),
(206,-7,cs)
);
}
);
userData = {
com.hugojourdan.ColorFlow = {
"0" = 0;
"1" = 0;
"10" = 0;
"11" = 0;
"2" = 0;
"3" = 0;
"4" = 0;
"5" = 1;
"6" = 0;
"7" = 0;
"8" = 0;
"9" = 0;
};
com.hugojourdan.ColorFlow_Color_5 = "5";
};
width = 486;
}
);
unicode = 83;
userData = {
KernOnName = S;
};
},
{
color = 0;
glyphname = Germandbls;
kernLeft = KO_H;
lastChange = "2024-03-29 20:25:54 +0000";
layers = (
{
layerId = "58bebe4f-9ca5-4d90-881b-c2d59ecd3066";
shapes = (
{
closed = 1;
nodes = (
(531,-7,o),
(600,82,o),
(616,177,cs),
(637,305,o),
(551,370,o),
(351,370,c),
(653,680,l),
(656,700,l),
(179,700,l),
(62,0,l),
(84,0,l),
(198,680,l),
(628,680,l),
(325,370,l),
(322,350,l),
(349,350,ls),
(523,350,o),
(614,296,o),
(594,176,cs),
(580,95,o),
(520,13,o),
(378,13,cs),
(256,13,o),
(209,72,o),
(217,151,c),
(195,151,l),
(186,60,o),
(242,-7,o),
(376,-7,cs)
);
}
);
userData = {
com.hugojourdan.ColorFlow = {
"0" = 0;
"1" = 0;
"10" = 0;
"11" = 0;
"2" = 0;
"3" = 0;
"4" = 0;
"5" = 0;
"6" = 0;
"7" = 0;
"8" = 0;
"9" = 0;
};
};
width = 679;
},
{
associatedMasterId = "58bebe4f-9ca5-4d90-881b-c2d59ecd3066";
layerId = "E5AB17BD-D20D-4D96-85C9-5C79DE05FEB1";
shapes = (
{
closed = 1;
nodes = (
(544,-7,o),
(631,52,o),
(631,196,cs),
(631,346,o),
(536,402,o),
(402,402,c),
(571,630,l),
(571,700,l),
(80,700,l),
(80,0,l),
(191,0,l),
(191,603,l),
(436,603,l),
(275,377,l),
(275,307,l),
(375,307,ls),
(465,307,o),
(512,274,o),
(512,194,cs),
(512,118,o),
(469,90,o),
(423,90,cs),
(378,90,o),
(349,116,o),
(348,165,c),
(231,165,l),
(231,42,o),
(315,-7,o),
(425,-7,cs)
);
}
);
userData = {
com.hugojourdan.ColorFlow = {
"0" = 0;
"1" = 0;
"10" = 0;
"11" = 0;
"2" = 0;
"3" = 0;
"4" = 0;
"5" = 0;
"6" = 0;
"7" = 0;
"8" = 0;
"9" = 0;
};
};
width = 668.69091;
},
{
associatedMasterId = "58bebe4f-9ca5-4d90-881b-c2d59ecd3066";
layerId = "9846DD74-CB1F-4DF8-986A-CAC4EEC71AB2";
shapes = (
{
closed = 1;
nodes = (
(477,-8,o),
(543,51,o),
(543,195,cs),
(543,345,o),
(465,401,o),
(360,401,c),
(493,630,l),
(493,699,l),
(68,699,l),
(68,-1,l),
(182,-1,l),
(182,603,l),
(374,603,l),
(247,376,l),
(247,307,l),
(330,307,ls),
(396,307,o),
(429,270,o),
(429,196,cs),
(429,113,o),
(403,89,o),
(371,89,cs),
(337,89,o),
(319,115,o),
(318,164,c),
(208,164,l),
(208,42,o),
(280,-8,o),
(371,-8,cs)
);
}
);
userData = {
com.hugojourdan.ColorFlow = {
"0" = 0;
"1" = 0;
"10" = 0;
"11" = 0;
"2" = 0;
"3" = 0;
"4" = 0;
"5" = 0;
"6" = 0;
"7" = 0;
"8" = 0;
"9" = 0;
};
};
width = 572.53554;
},
{
associatedMasterId = "58bebe4f-9ca5-4d90-881b-c2d59ecd3066";
layerId = "3540375D-4F0C-455A-8C66-08AFB59DCDF9";
shapes = (
{
closed = 1;
nodes = (
(499,-7,o),
(560,68,o),
(560,203,cs),
(560,352,o),
(481,408,o),
(382,408,c),
(504,613,l),
(504,700,l),
(61,700,l),
(61,0,l),
(196,0,l),
(196,586,l),
(375,586,l),
(255,381,l),
(255,301,l),
(339,301,ls),
(400,301,o),
(430,267,o),
(430,202,cs),
(430,130,o),
(410,106,o),
(381,106,cs),
(350,106,o),
(335,130,o),
(333,174,c),
(209,174,l),
(209,44,o),
(287,-7,o),
(380,-7,cs)
);
}
);
userData = {
com.hugojourdan.ColorFlow = {
"0" = 0;
"1" = 0;
"10" = 0;
"11" = 0;
"2" = 0;
"3" = 0;
"4" = 0;
"5" = 0;
"6" = 0;
"7" = 0;
"8" = 0;
"9" = 0;
};
};
width = 585.42316;
},
{
layerId = "af347eb2-a668-4c91-abbe-f882010a0a43";
shapes = (
{
closed = 1;
nodes = (
(504,-7,o),
(597,56,o),
(619,192,cs),
(644,338,o),
(557,395,o),
(409,395,c),
(636,641,l),
(646,700,l),
(159,700,l),
(42,0,l),
(135,0,l),
(239,619,l),
(519,619,l),
(300,375,l),
(290,316,l),
(376,316,ls),
(483,316,o),
(534,278,o),
(519,190,cs),
(506,112,o),
(456,74,o),
(391,74,cs),
(331,74,o),
(302,106,o),
(309,162,c),
(211,162,l),
(193,45,o),
(265,-7,o),
(379,-7,cs)
);
}
);
userData = {
com.hugojourdan.ColorFlow = {
"0" = 0;
"1" = 0;
"10" = 0;
"11" = 0;
"2" = 0;
"3" = 0;
"4" = 0;
"5" = 0;
"6" = 0;
"7" = 0;
"8" = 0;
"9" = 0;
};
};
width = 670;
},
{
layerId = "edd54720-fbeb-44cd-af84-4ff57ec79b05";
shapes = (
{
closed = 1;
nodes = (
(559,-7,o),
(637,100,o),
(657,218,cs),
(681,364,o),
(599,422,o),
(499,422,c),
(651,582,l),
(670,700,l),
(132,700,l),
(15,0,l),
(189,0,l),
(282,555,l),
(481,555,l),
(322,390,l),
(306,290,l),
(411,290,ls),
(467,290,o),
(495,266,o),
(485,210,cs),
(477,162,o),
(457,139,o),
(429,139,cs),
(403,139,o),
(394,159,o),
(395,194,c),
(237,194,l),
(213,50,o),
(292,-7,o),
(405,-7,cs)
);
}
);
userData = {
com.hugojourdan.ColorFlow = {
"0" = 0;
"1" = 0;
"10" = 0;
"11" = 0;
"2" = 0;
"3" = 0;
"4" = 0;
"5" = 0;
"6" = 0;
"7" = 0;
"8" = 0;
"9" = 0;
};
};
width = 687;
},
{
layerId = "8D5D41BF-E921-4DFA-A794-BFB439395CD4";
shapes = (
{
closed = 1;
nodes = (
(437,-8,o),
(511,55,o),
(533,191,cs),
(558,337,o),
(488,394,o),
(370,394,c),
(560,640,l),
(570,699,l),
(149,699,l),
(32,-1,l),
(128,-1,l),
(232,618,l),
(457,618,l),
(272,374,l),
(262,315,l),
(334,315,ls),
(416,315,o),
(452,274,o),
(437,192,cs),
(424,108,o),
(390,73,o),
(341,73,cs),
(293,73,o),
(275,105,o),
(283,161,c),
(190,161,l),
(172,44,o),
(232,-8,o),
(327,-8,cs)
);
}
);
userData = {
com.hugojourdan.ColorFlow = {
"0" = 0;
"1" = 0;
"10" = 0;
"11" = 0;
"2" = 0;
"3" = 0;
"4" = 0;
"5" = 0;
"6" = 0;
"7" = 0;
"8" = 0;
"9" = 0;
};
};
width = 581;
},
{
layerId = "126A7EFF-FBED-4747-9AEA-B121032D7D8F";
shapes = (
{
closed = 1;
nodes = (
(502,-7,o),
(572,100,o),
(592,218,cs),
(616,364,o),
(547,422,o),
(454,422,c),
(583,582,l),
(602,700,l),
(125,700,l),
(8,0,l),
(182,0,l),
(275,555,l),
(429,555,l),
(294,390,l),
(278,290,l),
(365,290,ls),
(418,290,o),
(440,263,o),
(432,213,cs),
(423,162,o),
(405,139,o),
(381,139,cs),
(358,139,o),
(350,159,o),
(351,194,c),
(200,194,l),
(176,50,o),
(259,-7,o),
(356,-7,cs)
);
}
);
userData = {
com.hugojourdan.ColorFlow = {
"0" = 0;
"1" = 0;
"10" = 0;
"11" = 0;
"2" = 0;
"3" = 0;
"4" = 0;
"5" = 0;
"6" = 0;
"7" = 0;
"8" = 0;
"9" = 0;
};
};
width = 621;
},
{
layerId = "15C5E54C-51CA-433B-8F99-9031AB3E7AD6";
shapes = (
{
closed = 1;
nodes = (
(451,-7,o),
(514,82,o),
(530,177,cs),
(551,305,o),
(478,370,o),
(305,370,c),
(572,680,l),
(575,700,l),
(165,700,l),
(48,0,l),
(70,0,l),
(184,680,l),
(549,680,l),
(281,370,l),
(278,350,l),
(303,350,ls),
(453,350,o),
(529,296,o),
(509,176,cs),
(495,95,o),
(441,13,o),
(320,13,cs),
(215,13,o),
(178,72,o),
(188,151,c),
(166,151,l),
(155,60,o),
(202,-7,o),
(318,-7,cs)
);
}
);
userData = {
com.hugojourdan.ColorFlow = {
"0" = 0;
"1" = 0;
"10" = 0;
"11" = 0;
"2" = 0;
"3" = 0;
"4" = 0;
"5" = 0;
"6" = 0;
"7" = 0;
"8" = 0;
"9" = 0;
};
};
width = 585;
}
);
unicode = 7838;
},
{
color = 10;
glyphname = T;
kernLeft = KO_T;
kernRight = KO_T;
lastChange = "2024-07-30 18:04:06 +0000";
layers = (
{
anchors = (
{
name = bottom;
pos = (244,0);
},
{
name = top;
pos = (361,700);
}
);
layerId = "58bebe4f-9ca5-4d90-881b-c2d59ecd3066";
shapes = (
{
closed = 1;
nodes = (
(256,0,l),
(370,680,l),
(614,680,l),
(617,700,l),
(106,700,l),
(103,680,l),
(348,680,l),
(234,0,l)
);
}
);
userData = {
com.hugojourdan.ColorFlow = {
"0" = 0;
"1" = 0;
"10" = 0;
"11" = 0;
"2" = 0;
"3" = 0;
"4" = 0;
"5" = 1;
"6" = 0;
"7" = 0;
"8" = 0;
"9" = 0;
};
com.hugojourdan.ColorFlow_Color_5 = "5";
};
width = 572.99635;
},
{
anchors = (
{
name = bottom;
pos = (299,0);
},
{
name = top;
pos = (301,700);
}
);
associatedMasterId = "58bebe4f-9ca5-4d90-881b-c2d59ecd3066";
layerId = "04904F3F-FCF7-43F0-B0AE-9ADCA1452936";
shapes = (
{
closed = 1;
nodes = (
(359,0,l),
(359,603,l),
(574,603,l),
(574,700,l),
(27,700,l),
(27,603,l),
(243,603,l),
(243,0,l)
);
}
);
userData = {
com.hugojourdan.ColorFlow = {
"0" = 0;
"1" = 0;
"10" = 0;
"11" = 0;
"2" = 0;
"3" = 0;
"4" = 0;
"5" = 1;
"6" = 0;
"7" = 0;
"8" = 0;
"9" = 0;
};
com.hugojourdan.ColorFlow_Color_5 = "5";
};
width = 601.03626;
},
{
anchors = (
{
name = bottom;
pos = (251,0);
},
{
name = top;
pos = (252,700);
}
);
associatedMasterId = "58bebe4f-9ca5-4d90-881b-c2d59ecd3066";
layerId = "38E3D818-332D-4078-BD79-1ACB401F022F";
shapes = (
{
closed = 1;
nodes = (
(311,0,l),
(311,603,l),
(489,603,l),
(489,700,l),
(17,700,l),
(17,603,l),
(196,603,l),
(196,0,l)
);
}
);
userData = {
com.hugojourdan.ColorFlow = {
"0" = 0;
"1" = 0;
"10" = 0;
"11" = 0;
"2" = 0;
"3" = 0;
"4" = 0;
"5" = 1;
"6" = 0;
"7" = 0;
"8" = 0;
"9" = 0;
};
com.hugojourdan.ColorFlow_Color_5 = "5";
};
width = 506.22459;
},
{
anchors = (
{
name = bottom;
pos = (259,0);
},
{
name = top;
pos = (260,700);
}
);
associatedMasterId = "58bebe4f-9ca5-4d90-881b-c2d59ecd3066";
layerId = "EEC7AFB3-4666-414B-BD7D-394EC8ED71E5";
shapes = (
{
closed = 1;
nodes = (
(330,0,l),
(330,586,l),
(508,586,l),
(508,700,l),
(16,700,l),
(16,586,l),
(195,586,l),
(195,0,l)
);
}
);
userData = {
com.hugojourdan.ColorFlow = {
"0" = 0;
"1" = 0;
"10" = 0;
"11" = 0;
"2" = 0;
"3" = 0;
"4" = 0;
"5" = 1;
"6" = 0;
"7" = 0;
"8" = 0;
"9" = 0;
};
com.hugojourdan.ColorFlow_Color_5 = "5";
};
width = 524.37591;
},
{
anchors = (
{
name = bottom;
pos = (257,0);
},
{
name = top;
pos = (374,700);
}
);
layerId = "af347eb2-a668-4c91-abbe-f882010a0a43";
shapes = (
{
closed = 1;
nodes = (
(306,0,l),
(410,619,l),
(630,619,l),
(643,700,l),
(105,700,l),
(92,619,l),
(313,619,l),
(209,0,l)
);
}
);
userData = {
com.hugojourdan.ColorFlow = {
"0" = 0;
"1" = 0;
"10" = 0;
"11" = 0;
"2" = 0;
"3" = 0;
"4" = 0;
"5" = 1;
"6" = 0;
"7" = 0;
"8" = 0;
"9" = 0;
};
com.hugojourdan.ColorFlow_Color_5 = "5";
};
width = 598;
},
{
anchors = (
{
name = bottom;
pos = (285,1);
},
{
name = top;
pos = (402,700);
}
);
layerId = "edd54720-fbeb-44cd-af84-4ff57ec79b05";
shapes = (
{
closed = 1;
nodes = (
(373,0,l),
(466,554,l),
(683,554,l),
(707,700,l),
(98,700,l),
(74,554,l),
(292,554,l),
(199,0,l)
);
}
);
userData = {
com.hugojourdan.ColorFlow = {
"0" = 0;
"1" = 0;
"10" = 0;
"11" = 0;
"2" = 0;
"3" = 0;
"4" = 0;
"5" = 1;
"6" = 0;
"7" = 0;
"8" = 0;
"9" = 0;
};
com.hugojourdan.ColorFlow_Color_5 = "5";
};
width = 655;
},
{
anchors = (
{
name = bottom;
pos = (216,0);
},
{
name = top;
pos = (333,700);
}
);
layerId = "8D5D41BF-E921-4DFA-A794-BFB439395CD4";
shapes = (
{
closed = 1;
nodes = (
(265,0,l),
(369,619,l),
(552,619,l),
(565,700,l),
(102,700,l),
(89,619,l),
(272,619,l),
(168,0,l)
);
}
);
userData = {
com.hugojourdan.ColorFlow = {
"0" = 0;
"1" = 0;
"10" = 0;
"11" = 0;
"2" = 0;
"3" = 0;
"4" = 0;
"5" = 1;
"6" = 0;
"7" = 0;
"8" = 0;
"9" = 0;
};
com.hugojourdan.ColorFlow_Color_5 = "5";
};
width = 517;
},
{
anchors = (
{
name = bottom;
pos = (246,1);
},
{
name = top;
pos = (363,700);
}
);
layerId = "126A7EFF-FBED-4747-9AEA-B121032D7D8F";
shapes = (
{
closed = 1;
nodes = (
(334,0,l),
(427,554,l),
(605,554,l),
(629,700,l),
(97,700,l),
(73,554,l),
(252,554,l),
(159,0,l)
);
}
);
userData = {
com.hugojourdan.ColorFlow = {
"0" = 0;
"1" = 0;
"10" = 0;
"11" = 0;
"2" = 0;
"3" = 0;
"4" = 0;
"5" = 1;
"6" = 0;
"7" = 0;
"8" = 0;
"9" = 0;
};
com.hugojourdan.ColorFlow_Color_5 = "5";
};
width = 576;
},
{
anchors = (
{
name = bottom;
pos = (201,0);
},
{
name = top;
pos = (318,700);
}
);
layerId = "15C5E54C-51CA-433B-8F99-9031AB3E7AD6";
shapes = (
{
closed = 1;
nodes = (
(213,0,l),
(327,680,l),
(534,680,l),
(537,700,l),
(99,700,l),
(96,680,l),
(305,680,l),
(191,0,l)
);
}
);
userData = {
com.hugojourdan.ColorFlow = {
"0" = 0;
"1" = 0;
"10" = 0;
"11" = 0;
"2" = 0;
"3" = 0;
"4" = 0;
"5" = 1;
"6" = 0;
"7" = 0;
"8" = 0;
"9" = 0;
};
com.hugojourdan.ColorFlow_Color_5 = "5";
};
width = 486;
}
);
metricRight = "=|";
unicode = 84;
userData = {
KernOnName = T;
};
},
{
color = 10;
glyphname = U;
kernLeft = KO_U;
kernRight = KO_U;
lastChange = "2024-07-30 18:04:06 +0000";
layers = (
{
anchors = (
{
name = ogonek;
pos = (374,0);
},
{
name = top;
pos = (427,700);
}
);
layerId = "58bebe4f-9ca5-4d90-881b-c2d59ecd3066";
shapes = (
{
closed = 1;
nodes = (
(450,-7,o),
(590,73,o),
(623,265,cs),
(695,700,l),
(673,700,l),
(601,265,ls),
(570,80,o),
(438,13,o),
(315,13,cs),
(192,13,o),
(84,80,o),
(115,265,cs),
(187,700,l),
(165,700,l),
(93,265,ls),
(60,73,o),
(174,-7,o),
(312,-7,cs)
);
}
);
userData = {
com.hugojourdan.ColorFlow = {
"0" = 0;
"1" = 0;
"10" = 0;
"11" = 0;
"2" = 0;
"3" = 0;
"4" = 0;
"5" = 1;
"6" = 0;
"7" = 0;
"8" = 0;
"9" = 0;
};
com.hugojourdan.ColorFlow_Color_5 = "5";
};
width = 710.00046;
},
{
anchors = (
{
name = ogonek;
pos = (423,0);
},
{
name = top;
pos = (350,700);
}
);
associatedMasterId = "58bebe4f-9ca5-4d90-881b-c2d59ecd3066";
layerId = "C3D8615F-62AC-4FC7-87F5-F496C8B6578E";
shapes = (
{
closed = 1;
nodes = (
(496,-7,o),
(633,77,o),
(633,256,cs),
(633,700,l),
(517,700,l),
(517,254,ls),
(517,146,o),
(447,92,o),
(351,92,cs),
(255,92,o),
(184,146,o),
(184,254,cs),
(184,700,l),
(68,700,l),
(68,256,ls),
(68,77,o),
(206,-7,o),
(351,-7,cs)
);
}
);
userData = {
com.hugojourdan.ColorFlow = {
"0" = 0;
"1" = 0;
"10" = 0;
"11" = 0;
"2" = 0;
"3" = 0;
"4" = 0;
"5" = 1;
"6" = 0;
"7" = 0;
"8" = 0;
"9" = 0;
};
com.hugojourdan.ColorFlow_Color_5 = "5";
};
width = 701.03636;
},
{
anchors = (
{
name = ogonek;
pos = (360,0);
},
{
name = top;
pos = (297,700);
}
);
associatedMasterId = "58bebe4f-9ca5-4d90-881b-c2d59ecd3066";
layerId = "7E78ACC2-38BC-4E74-9166-674FA6753276";
shapes = (
{
closed = 1;
nodes = (
(435,-7,o),
(539,77,o),
(539,256,cs),
(539,700,l),
(423,700,l),
(423,254,ls),
(423,146,o),
(376,92,o),
(299,92,cs),
(222,92,o),
(174,146,o),
(174,254,cs),
(174,700,l),
(57,700,l),
(57,256,ls),
(57,77,o),
(163,-7,o),
(299,-7,cs)
);
}
);
userData = {
com.hugojourdan.ColorFlow = {
"0" = 0;
"1" = 0;
"10" = 0;
"11" = 0;
"2" = 0;
"3" = 0;
"4" = 0;
"5" = 1;
"6" = 0;
"7" = 0;
"8" = 0;
"9" = 0;
};
com.hugojourdan.ColorFlow_Color_5 = "5";
};
width = 596;
},
{
anchors = (
{
name = ogonek;
pos = (364,1);
},
{
name = top;
pos = (298,700);
}
);
associatedMasterId = "58bebe4f-9ca5-4d90-881b-c2d59ecd3066";
layerId = "7AF851F9-13F3-44EA-A5BD-2FE9336F70B2";
shapes = (
{
closed = 1;
nodes = (
(442,-7,o),
(548,82,o),
(548,266,cs),
(548,700,l),
(412,700,l),
(412,259,ls),
(412,160,o),
(371,109,o),
(300,109,cs),
(228,109,o),
(187,160,o),
(187,259,cs),
(187,700,l),
(51,700,l),
(51,266,ls),
(51,82,o),
(158,-7,o),
(300,-7,cs)
);
}
);
userData = {
com.hugojourdan.ColorFlow = {
"0" = 0;
"1" = 0;
"10" = 0;
"11" = 0;
"2" = 0;
"3" = 0;
"4" = 0;
"5" = 1;
"6" = 0;
"7" = 0;
"8" = 0;
"9" = 0;
};
com.hugojourdan.ColorFlow_Color_5 = "5";
};
width = 598.83573;
},
{
anchors = (
{
name = ogonek;
pos = (379,0);
},
{
name = top;
pos = (424,700);
}
);
layerId = "af347eb2-a668-4c91-abbe-f882010a0a43";
shapes = (
{
closed = 1;
nodes = (
(451,-7,o),
(600,76,o),
(630,257,cs),
(704,700,l),
(607,700,l),
(533,255,ls),
(512,132,o),
(424,76,o),
(322,76,cs),
(220,76,o),
(149,132,o),
(170,255,cs),
(244,700,l),
(147,700,l),
(73,257,ls),
(43,76,o),
(165,-7,o),
(308,-7,cs)
);
}
);
userData = {
com.hugojourdan.ColorFlow = {
"0" = 0;
"1" = 0;
"10" = 0;
"11" = 0;
"2" = 0;
"3" = 0;
"4" = 0;
"5" = 1;
"6" = 0;
"7" = 0;
"8" = 0;
"9" = 0;
};
com.hugojourdan.ColorFlow_Color_5 = "5";
};
width = 701;
},
{
anchors = (
{
name = ogonek;
pos = (389,2);
},
{
name = top;
pos = (423,700);
}
);
layerId = "edd54720-fbeb-44cd-af84-4ff57ec79b05";
shapes = (
{
closed = 1;
nodes = (
(470,-7,o),
(629,90,o),
(662,284,cs),
(731,700,l),
(557,700,l),
(485,268,ls),
(471,187,o),
(413,142,o),
(333,142,cs),
(253,142,o),
(209,187,o),
(223,268,cs),
(295,700,l),
(121,700,l),
(52,284,ls),
(19,90,o),
(146,-7,o),
(308,-7,cs)
);
}
);
userData = {
com.hugojourdan.ColorFlow = {
"0" = 0;
"1" = 0;
"10" = 0;
"11" = 0;
"2" = 0;
"3" = 0;
"4" = 0;
"5" = 1;
"6" = 0;
"7" = 0;
"8" = 0;
"9" = 0;
};
com.hugojourdan.ColorFlow_Color_5 = "5";
};
width = 702;
},
{
anchors = (
{
name = ogonek;
pos = (319,0);
},
{
name = top;
pos = (375,700);
}
);
layerId = "8D5D41BF-E921-4DFA-A794-BFB439395CD4";
shapes = (
{
closed = 1;
nodes = (
(392,-7,o),
(509,76,o),
(539,257,cs),
(613,700,l),
(516,700,l),
(442,255,ls),
(421,132,o),
(356,76,o),
(273,76,cs),
(190,76,o),
(141,132,o),
(162,255,cs),
(236,700,l),
(139,700,l),
(65,257,ls),
(35,76,o),
(126,-7,o),
(259,-7,cs)
);
}
);
userData = {
com.hugojourdan.ColorFlow = {
"0" = 0;
"1" = 0;
"10" = 0;
"11" = 0;
"2" = 0;
"3" = 0;
"4" = 0;
"5" = 1;
"6" = 0;
"7" = 0;
"8" = 0;
"9" = 0;
};
com.hugojourdan.ColorFlow_Color_5 = "5";
};
width = 602;
},
{
anchors = (
{
name = ogonek;
pos = (332,2);
},
{
name = top;
pos = (376,700);
}
);
layerId = "126A7EFF-FBED-4747-9AEA-B121032D7D8F";
shapes = (
{
closed = 1;
nodes = (
(415,-7,o),
(541,90,o),
(574,284,cs),
(643,700,l),
(469,700,l),
(397,268,ls),
(383,187,o),
(347,142,o),
(286,142,cs),
(225,142,o),
(204,187,o),
(218,268,cs),
(290,700,l),
(116,700,l),
(47,284,ls),
(14,90,o),
(108,-7,o),
(261,-7,cs)
);
}
);
userData = {
com.hugojourdan.ColorFlow = {
"0" = 0;
"1" = 0;
"10" = 0;
"11" = 0;
"2" = 0;
"3" = 0;
"4" = 0;
"5" = 1;
"6" = 0;
"7" = 0;
"8" = 0;
"9" = 0;
};
com.hugojourdan.ColorFlow_Color_5 = "5";
};
width = 609;
},
{
anchors = (
{
name = ogonek;
pos = (310,0);
},
{
name = top;
pos = (374,700);
}
);
layerId = "15C5E54C-51CA-433B-8F99-9031AB3E7AD6";
shapes = (
{
closed = 1;
nodes = (
(380,-7,o),
(496,73,o),
(529,265,cs),
(601,700,l),
(579,700,l),
(507,265,ls),
(476,80,o),
(367,13,o),
(262,13,cs),
(157,13,o),
(71,80,o),
(102,265,cs),
(174,700,l),
(152,700,l),
(80,265,ls),
(47,73,o),
(137,-7,o),
(259,-7,cs)
);
}
);
userData = {
com.hugojourdan.ColorFlow = {
"0" = 0;
"1" = 0;
"10" = 0;
"11" = 0;
"2" = 0;
"3" = 0;
"4" = 0;
"5" = 1;
"6" = 0;
"7" = 0;
"8" = 0;
"9" = 0;
};
com.hugojourdan.ColorFlow_Color_5 = "5";
};
width = 603;
}
);
metricRight = "=|";
unicode = 85;
userData = {
KernOnName = U;
};
},
{
color = 10;
glyphname = V;
kernLeft = KO_V;
kernRight = KO_V;
lastChange = "2024-07-30 18:04:06 +0000";
layers = (
{
layerId = "58bebe4f-9ca5-4d90-881b-c2d59ecd3066";
shapes = (
{
closed = 1;
nodes = (
(315,0,l),
(731,700,l),
(706,700,l),
(309,30,l),
(135,700,l),
(110,700,l),
(293,0,l)
);
}
);
userData = {
com.hugojourdan.ColorFlow = {
"0" = 0;
"1" = 0;
"10" = 0;
"11" = 0;
"2" = 0;
"3" = 0;
"4" = 0;
"5" = 1;
"6" = 0;
"7" = 0;
"8" = 0;
"9" = 0;
};
com.hugojourdan.ColorFlow_Color_5 = "5";
};
width = 691.00496;
},
{
associatedMasterId = "58bebe4f-9ca5-4d90-881b-c2d59ecd3066";
layerId = "D59A702E-BC3C-4E02-B39D-F1D747B287D0";
shapes = (
{
closed = 1;
nodes = (
(415,0,l),
(676,700,l),
(558,700,l),
(353,119,l),
(147,700,l),
(24,700,l),
(285,0,l)
);
}
);
userData = {
com.hugojourdan.ColorFlow = {
"0" = 0;
"1" = 0;
"10" = 0;
"11" = 0;
"2" = 0;
"3" = 0;
"4" = 0;
"5" = 1;
"6" = 0;
"7" = 0;
"8" = 0;
"9" = 0;
};
com.hugojourdan.ColorFlow_Color_5 = "5";
};
width = 699.56357;
},
{
associatedMasterId = "58bebe4f-9ca5-4d90-881b-c2d59ecd3066";
layerId = "A1ADAD1B-9A63-4087-AB67-166C4C5E2D0A";
shapes = (
{
closed = 1;
nodes = (
(360,0,l),
(573,700,l),
(458,700,l),
(298,130,l),
(137,700,l),
(16,700,l),
(229,0,l)
);
}
);
userData = {
com.hugojourdan.ColorFlow = {
"0" = 0;
"1" = 0;
"10" = 0;
"11" = 0;
"2" = 0;
"3" = 0;
"4" = 0;
"5" = 1;
"6" = 0;
"7" = 0;
"8" = 0;
"9" = 0;
};
com.hugojourdan.ColorFlow_Color_5 = "5";
};
width = 589.19869;
},
{
associatedMasterId = "58bebe4f-9ca5-4d90-881b-c2d59ecd3066";
layerId = "8E1D3A78-72B3-46DF-BB8A-1CF8FD906222";
shapes = (
{
closed = 1;
nodes = (
(381,0,l),
(590,700,l),
(454,700,l),
(305,148,l),
(156,700,l),
(14,700,l),
(223,0,l)
);
}
);
userData = {
com.hugojourdan.ColorFlow = {
"0" = 0;
"1" = 0;
"10" = 0;
"11" = 0;
"2" = 0;
"3" = 0;
"4" = 0;
"5" = 1;
"6" = 0;
"7" = 0;
"8" = 0;
"9" = 0;
};
com.hugojourdan.ColorFlow_Color_5 = "5";
};
width = 603.79767;
},
{
layerId = "af347eb2-a668-4c91-abbe-f882010a0a43";
shapes = (
{
closed = 1;
nodes = (
(363,0,l),
(748,700,l),
(648,700,l),
(328,101,l),
(206,700,l),
(103,700,l),
(255,0,l)
);
}
);
userData = {
com.hugojourdan.ColorFlow = {
"0" = 0;
"1" = 0;
"10" = 0;
"11" = 0;
"2" = 0;
"3" = 0;
"4" = 0;
"5" = 1;
"6" = 0;
"7" = 0;
"8" = 0;
"9" = 0;
};
com.hugojourdan.ColorFlow_Color_5 = "5";
};
width = 701;
},
{
layerId = "edd54720-fbeb-44cd-af84-4ff57ec79b05";
shapes = (
{
closed = 1;
nodes = (
(435,0,l),
(800,700,l),
(621,700,l),
(363,176,l),
(278,700,l),
(91,700,l),
(222,0,l)
);
}
);
userData = {
com.hugojourdan.ColorFlow = {
"0" = 0;
"1" = 0;
"10" = 0;
"11" = 0;
"2" = 0;
"3" = 0;
"4" = 0;
"5" = 1;
"6" = 0;
"7" = 0;
"8" = 0;
"9" = 0;
};
com.hugojourdan.ColorFlow_Color_5 = "5";
};
width = 741;
},
{
layerId = "8D5D41BF-E921-4DFA-A794-BFB439395CD4";
shapes = (
{
closed = 1;
nodes = (
(313,0,l),
(651,700,l),
(554,700,l),
(281,112,l),
(202,700,l),
(101,700,l),
(206,0,l)
);
}
);
userData = {
com.hugojourdan.ColorFlow = {
"0" = 0;
"1" = 0;
"10" = 0;
"11" = 0;
"2" = 0;
"3" = 0;
"4" = 0;
"5" = 1;
"6" = 0;
"7" = 0;
"8" = 0;
"9" = 0;
};
com.hugojourdan.ColorFlow_Color_5 = "5";
};
width = 602;
},
{
layerId = "126A7EFF-FBED-4747-9AEA-B121032D7D8F";
shapes = (
{
closed = 1;
nodes = (
(389,0,l),
(707,700,l),
(532,700,l),
(317,182,l),
(276,700,l),
(92,700,l),
(177,0,l)
);
}
);
userData = {
com.hugojourdan.ColorFlow = {
"0" = 0;
"1" = 0;
"10" = 0;
"11" = 0;
"2" = 0;
"3" = 0;
"4" = 0;
"5" = 1;
"6" = 0;
"7" = 0;
"8" = 0;
"9" = 0;
};
com.hugojourdan.ColorFlow_Color_5 = "5";
};
width = 649;
},
{
layerId = "15C5E54C-51CA-433B-8F99-9031AB3E7AD6";
shapes = (
{
closed = 1;
nodes = (
(259,0,l),
(630,700,l),
(606,700,l),
(257,40,l),
(127,700,l),
(103,700,l),
(241,0,l)
);
}
);
userData = {
com.hugojourdan.ColorFlow = {
"0" = 0;
"1" = 0;
"10" = 0;
"11" = 0;
"2" = 0;
"3" = 0;
"4" = 0;
"5" = 1;
"6" = 0;
"7" = 0;
"8" = 0;
"9" = 0;
};
com.hugojourdan.ColorFlow_Color_5 = "5";
};
width = 583;
}
);
metricRight = "=|";
unicode = 86;
userData = {
KernOnName = V;
};
},
{
color = 10;
glyphname = W;
kernLeft = KO_W;
kernRight = KO_W;
lastChange = "2024-07-30 18:04:06 +0000";
layers = (
{
anchors = (
{
name = bottom;
pos = (426,0);
},
{
name = top;
pos = (543,700);
}
);
layerId = "58bebe4f-9ca5-4d90-881b-c2d59ecd3066";
shapes = (
{
closed = 1;
nodes = (
(219,0,l),
(538,664,l),
(635,0,l),
(656,0,l),
(972,700,l),
(949,700,l),
(652,41,l),
(556,700,l),
(532,700,l),
(216,41,l),
(139,700,l),
(115,700,l),
(198,0,l)
);
}
);
userData = {
com.hugojourdan.ColorFlow = {
"0" = 0;
"1" = 0;
"10" = 0;
"11" = 0;
"2" = 0;
"3" = 0;
"4" = 0;
"5" = 1;
"6" = 0;
"7" = 0;
"8" = 0;
"9" = 0;
};
com.hugojourdan.ColorFlow_Color_5 = "5";
};
width = 937.00298;
},
{
anchors = (
{
name = bottom;
pos = (509,0);
},
{
name = top;
pos = (509,700);
}
);
associatedMasterId = "58bebe4f-9ca5-4d90-881b-c2d59ecd3066";
layerId = "32354485-A7BA-4A4C-ACAD-0D9C5DF521BE";
shapes = (
{
closed = 1;
nodes = (
(359,0,l),
(508,526,l),
(657,0,l),
(788,0,l),
(989,700,l),
(865,700,l),
(723,135,l),
(573,700,l),
(442,700,l),
(293,133,l),
(150,700,l),
(27,700,l),
(227,0,l)
);
}
);
userData = {
com.hugojourdan.ColorFlow = {
"0" = 0;
"1" = 0;
"10" = 0;
"11" = 0;
"2" = 0;
"3" = 0;
"4" = 0;
"5" = 1;
"6" = 0;
"7" = 0;
"8" = 0;
"9" = 0;
};
com.hugojourdan.ColorFlow_Color_5 = "5";
};
width = 1016.01806;
},
{
anchors = (
{
name = bottom;
pos = (426,0);
},
{
name = top;
pos = (426,700);
}
);
associatedMasterId = "58bebe4f-9ca5-4d90-881b-c2d59ecd3066";
layerId = "BC4ACF09-E730-42C9-9CD5-701C92E93136";
shapes = (
{
closed = 1;
nodes = (
(312,0,l),
(426,520,l),
(539,0,l),
(671,0,l),
(832,700,l),
(711,700,l),
(604,141,l),
(488,700,l),
(363,700,l),
(247,139,l),
(139,700,l),
(19,700,l),
(180,0,l)
);
}
);
userData = {
com.hugojourdan.ColorFlow = {
"0" = 0;
"1" = 0;
"10" = 0;
"11" = 0;
"2" = 0;
"3" = 0;
"4" = 0;
"5" = 1;
"6" = 0;
"7" = 0;
"8" = 0;
"9" = 0;
};
com.hugojourdan.ColorFlow_Color_5 = "5";
};
width = 851.11171;
},
{
anchors = (
{
name = bottom;
pos = (431,0);
},
{
name = top;
pos = (431,700);
}
);
associatedMasterId = "58bebe4f-9ca5-4d90-881b-c2d59ecd3066";
layerId = "357535DA-B117-4C45-B521-A51227B668AB";
shapes = (
{
closed = 1;
nodes = (
(330,0,l),
(431,497,l),
(531,0,l),
(691,0,l),
(845,700,l),
(702,700,l),
(610,163,l),
(505,700,l),
(358,700,l),
(252,161,l),
(158.995,700,l),
(16,700,l),
(171,0,l)
);
}
);
userData = {
com.hugojourdan.ColorFlow = {
"0" = 0;
"1" = 0;
"10" = 0;
"11" = 0;
"2" = 0;
"3" = 0;
"4" = 0;
"5" = 1;
"6" = 0;
"7" = 0;
"8" = 0;
"9" = 0;
};
com.hugojourdan.ColorFlow_Color_5 = "5";
};
width = 861;
},
{
anchors = (
{
name = bottom;
pos = (460,0);
},
{
name = top;
pos = (577,700);
}
);
layerId = "af347eb2-a668-4c91-abbe-f882010a0a43";
shapes = (
{
closed = 1;
nodes = (
(298,0,l),
(552,554,l),
(620,0,l),
(729,0,l),
(1047,700,l),
(943,700,l),
(694,115,l),
(630,700,l),
(522,700,l),
(263,114,l),
(209,700,l),
(105,700,l),
(189,0,l)
);
}
);
userData = {
com.hugojourdan.ColorFlow = {
"0" = 0;
"1" = 0;
"10" = 0;
"11" = 0;
"2" = 0;
"3" = 0;
"4" = 0;
"5" = 1;
"6" = 0;
"7" = 0;
"8" = 0;
"9" = 0;
};
com.hugojourdan.ColorFlow_Color_5 = "5";
};
width = 1002;
},
{
anchors = (
{
name = bottom;
pos = (480,0);
},
{
name = top;
pos = (597,700);
}
);
layerId = "edd54720-fbeb-44cd-af84-4ff57ec79b05";
shapes = (
{
closed = 1;
nodes = (
(368,0,l),
(555,453,l),
(590,0,l),
(804,0,l),
(1100,700,l),
(910,700,l),
(730,206,l),
(695,700,l),
(501,700,l),
(298,205,l),
(282,700,l),
(93,700,l),
(155,0,l)
);
}
);
userData = {
com.hugojourdan.ColorFlow = {
"0" = 0;
"1" = 0;
"10" = 0;
"11" = 0;
"2" = 0;
"3" = 0;
"4" = 0;
"5" = 1;
"6" = 0;
"7" = 0;
"8" = 0;
"9" = 0;
};
com.hugojourdan.ColorFlow_Color_5 = "5";
};
width = 1043;
},
{
anchors = (
{
name = bottom;
pos = (384,0);
},
{
name = top;
pos = (501,700);
}
);
layerId = "8D5D41BF-E921-4DFA-A794-BFB439395CD4";
shapes = (
{
closed = 1;
nodes = (
(258,0,l),
(476,547,l),
(509,0,l),
(618,0,l),
(899,700,l),
(798,700,l),
(583,122,l),
(553,700,l),
(449,700,l),
(225,121,l),
(204,700,l),
(103,700,l),
(150,0,l)
);
}
);
userData = {
com.hugojourdan.ColorFlow = {
"0" = 0;
"1" = 0;
"10" = 0;
"11" = 0;
"2" = 0;
"3" = 0;
"4" = 0;
"5" = 1;
"6" = 0;
"7" = 0;
"8" = 0;
"9" = 0;
};
com.hugojourdan.ColorFlow_Color_5 = "5";
};
width = 852;
},
{
anchors = (
{
name = bottom;
pos = (407,0);
},
{
name = top;
pos = (524,700);
}
);
layerId = "126A7EFF-FBED-4747-9AEA-B121032D7D8F";
shapes = (
{
closed = 1;
nodes = (
(331,0,l),
(482,453,l),
(482,0,l),
(695,0,l),
(954,700,l),
(767,700,l),
(621,206,l),
(620,700,l),
(431,700,l),
(261,205,l),
(280,700,l),
(94,700,l),
(118,0,l)
);
}
);
userData = {
com.hugojourdan.ColorFlow = {
"0" = 0;
"1" = 0;
"10" = 0;
"11" = 0;
"2" = 0;
"3" = 0;
"4" = 0;
"5" = 1;
"6" = 0;
"7" = 0;
"8" = 0;
"9" = 0;
};
com.hugojourdan.ColorFlow_Color_5 = "5";
};
width = 898;
},
{
anchors = (
{
name = bottom;
pos = (353,0);
},
{
name = top;
pos = (470,700);
}
);
layerId = "15C5E54C-51CA-433B-8F99-9031AB3E7AD6";
shapes = (
{
closed = 1;
nodes = (
(182,0,l),
(462,652,l),
(524,0,l),
(544,0,l),
(831,700,l),
(808,700,l),
(542,51,l),
(481,700,l),
(459,700,l),
(182,50,l),
(132,700,l),
(108,700,l),
(163,0,l)
);
}
);
userData = {
com.hugojourdan.ColorFlow = {
"0" = 0;
"1" = 0;
"10" = 0;
"11" = 0;
"2" = 0;
"3" = 0;
"4" = 0;
"5" = 1;
"6" = 0;
"7" = 0;
"8" = 0;
"9" = 0;
};
com.hugojourdan.ColorFlow_Color_5 = "5";
};
width = 789;
}
);
metricRight = "=|";
unicode = 87;
},
{
color = 10;
glyphname = X;
kernLeft = KO_X;
kernRight = KO_X;
lastChange = "2024-03-29 20:25:54 +0000";
layers = (
{
layerId = "58bebe4f-9ca5-4d90-881b-c2d59ecd3066";
shapes = (
{
closed = 1;
nodes = (
(20,0,l),
(343,332,l),
(554,0,l),
(581,0,l),
(358,350,l),
(698,700,l),
(671,700,l),
(349,368,l),
(137,700,l),
(110,700,l),
(334,350,l),
(-7,0,l)
);
}
);
userData = {
com.hugojourdan.ColorFlow = {
"0" = 0;
"1" = 0;
"10" = 0;
"11" = 0;
"2" = 0;
"3" = 0;
"4" = 0;
"5" = 1;
"6" = 0;
"7" = 0;
"8" = 0;
"9" = 0;
};
com.hugojourdan.ColorFlow_Color_5 = "5";
};
width = 658;
},
{
associatedMasterId = "58bebe4f-9ca5-4d90-881b-c2d59ecd3066";
layerId = "E6E7929E-3E5E-435E-84F4-739D8724379F";
shapes = (
{
closed = 1;
nodes = (
(153,0,l),
(345,266,l),
(536,0,l),
(665,0,l),
(411,350,l),
(665,700,l),
(536,700,l),
(345,434,l),
(153,700,l),
(24,700,l),
(280,350,l),
(24,0,l)
);
}
);
userData = {
com.hugojourdan.ColorFlow = {
"0" = 0;
"1" = 0;
"10" = 0;
"11" = 0;
"2" = 0;
"3" = 0;
"4" = 0;
"5" = 1;
"6" = 0;
"7" = 0;
"8" = 0;
"9" = 0;
};
com.hugojourdan.ColorFlow_Color_5 = "5";
};
width = 689;
},
{
associatedMasterId = "58bebe4f-9ca5-4d90-881b-c2d59ecd3066";
layerId = "56E86DDE-C713-4F61-A33F-079D2F7AC02C";
shapes = (
{
closed = 1;
nodes = (
(139,0,l),
(294,260,l),
(445,0,l),
(568,0,l),
(359,350,l),
(568,700,l),
(445,700,l),
(294,440,l),
(139,700,l),
(16,700,l),
(228,350,l),
(16,0,l)
);
}
);
userData = {
com.hugojourdan.ColorFlow = {
"0" = 0;
"1" = 0;
"10" = 0;
"11" = 0;
"2" = 0;
"3" = 0;
"4" = 0;
"5" = 1;
"6" = 0;
"7" = 0;
"8" = 0;
"9" = 0;
};
com.hugojourdan.ColorFlow_Color_5 = "5";
};
width = 584.0234;
},
{
associatedMasterId = "58bebe4f-9ca5-4d90-881b-c2d59ecd3066";
layerId = "FAE38EFA-B929-40EC-B584-7C85F87D5CC5";
shapes = (
{
closed = 1;
nodes = (
(161,0,l),
(304,247,l),
(442,0,l),
(589,0,l),
(384,350,l),
(589,700,l),
(442,700,l),
(304,453,l),
(161,700,l),
(13,700,l),
(224,350,l),
(13,0,l)
);
}
);
userData = {
com.hugojourdan.ColorFlow = {
"0" = 0;
"1" = 0;
"10" = 0;
"11" = 0;
"2" = 0;
"3" = 0;
"4" = 0;
"5" = 1;
"6" = 0;
"7" = 0;
"8" = 0;
"9" = 0;
};
com.hugojourdan.ColorFlow_Color_5 = "5";
};
width = 602.37442;
},
{
layerId = "af347eb2-a668-4c91-abbe-f882010a0a43";
shapes = (
{
closed = 1;
nodes = (
(95,0,l),
(348,280,l),
(507,0,l),
(616,0,l),
(415,350,l),
(733,700,l),
(624,700,l),
(371,420,l),
(212,700,l),
(103,700,l),
(306,350,l),
(-14,0,l)
);
}
);
userData = {
com.hugojourdan.ColorFlow = {
"0" = 0;
"1" = 0;
"10" = 0;
"11" = 0;
"2" = 0;
"3" = 0;
"4" = 0;
"5" = 1;
"6" = 0;
"7" = 0;
"8" = 0;
"9" = 0;
};
com.hugojourdan.ColorFlow_Color_5 = "5";
};
width = 686;
},
{
layerId = "edd54720-fbeb-44cd-af84-4ff57ec79b05";
shapes = (
{
closed = 1;
nodes = (
(177,0,l),
(372,224,l),
(481,0,l),
(684,0,l),
(499,350,l),
(801,700,l),
(598,700,l),
(414,476,l),
(294,700,l),
(91,700,l),
(286,350,l),
(-26,0,l)
);
}
);
userData = {
com.hugojourdan.ColorFlow = {
"0" = 0;
"1" = 0;
"10" = 0;
"11" = 0;
"2" = 0;
"3" = 0;
"4" = 0;
"5" = 1;
"6" = 0;
"7" = 0;
"8" = 0;
"9" = 0;
};
com.hugojourdan.ColorFlow_Color_5 = "5";
};
width = 742;
},
{
layerId = "8D5D41BF-E921-4DFA-A794-BFB439395CD4";
shapes = (
{
closed = 1;
nodes = (
(87,0,l),
(301,275,l),
(421,0,l),
(524,0,l),
(368,350,l),
(641,700,l),
(538,700,l),
(326,425,l),
(204,700,l),
(101,700,l),
(260,350,l),
(-16,0,l)
);
}
);
userData = {
com.hugojourdan.ColorFlow = {
"0" = 0;
"1" = 0;
"10" = 0;
"11" = 0;
"2" = 0;
"3" = 0;
"4" = 0;
"5" = 1;
"6" = 0;
"7" = 0;
"8" = 0;
"9" = 0;
};
com.hugojourdan.ColorFlow_Color_5 = "5";
};
width = 592;
},
{
layerId = "126A7EFF-FBED-4747-9AEA-B121032D7D8F";
shapes = (
{
closed = 1;
nodes = (
(169,0,l),
(328,222,l),
(404,0,l),
(596,0,l),
(458,350,l),
(713,700,l),
(521,700,l),
(371,478,l),
(286,700,l),
(92,700,l),
(242,350,l),
(-25,0,l)
);
}
);
userData = {
com.hugojourdan.ColorFlow = {
"0" = 0;
"1" = 0;
"10" = 0;
"11" = 0;
"2" = 0;
"3" = 0;
"4" = 0;
"5" = 1;
"6" = 0;
"7" = 0;
"8" = 0;
"9" = 0;
};
com.hugojourdan.ColorFlow_Color_5 = "5";
};
width = 655;
},
{
layerId = "15C5E54C-51CA-433B-8F99-9031AB3E7AD6";
shapes = (
{
closed = 1;
nodes = (
(12,0,l),
(292,330,l),
(462,0,l),
(487,0,l),
(307,350,l),
(604,700,l),
(579,700,l),
(299,370,l),
(129,700,l),
(104,700,l),
(285,350,l),
(-13,0,l)
);
}
);
userData = {
com.hugojourdan.ColorFlow = {
"0" = 0;
"1" = 0;
"10" = 0;
"11" = 0;
"2" = 0;
"3" = 0;
"4" = 0;
"5" = 1;
"6" = 0;
"7" = 0;
"8" = 0;
"9" = 0;
};
com.hugojourdan.ColorFlow_Color_5 = "5";
};
width = 558;
}
);
unicode = 88;
userData = {
KernOnName = X;
};
},
{
color = 10;
glyphname = Y;
kernLeft = KO_Y;
kernRight = KO_Y;
lastChange = "2024-03-29 20:25:54 +0000";
layers = (
{
anchors = (
{
name = center;
pos = (279,0);
},
{
name = top;
pos = (397,700);
}
);
layerId = "58bebe4f-9ca5-4d90-881b-c2d59ecd3066";
shapes = (
{
closed = 1;
nodes = (
(290,0,l),
(339,294,l),
(686,700,l),
(659,700,l),
(332,315,l),
(133,700,l),
(106,700,l),
(317,294,l),
(268,0,l)
);
}
);
userData = {
com.hugojourdan.ColorFlow = {
"0" = 0;
"1" = 0;
"10" = 0;
"11" = 0;
"2" = 0;
"3" = 0;
"4" = 0;
"5" = 1;
"6" = 0;
"7" = 0;
"8" = 0;
"9" = 0;
};
com.hugojourdan.ColorFlow_Color_5 = "5";
};
width = 641;
},
{
anchors = (
{
name = center;
pos = (340,0);
},
{
name = top;
pos = (339,700);
}
);
associatedMasterId = "58bebe4f-9ca5-4d90-881b-c2d59ecd3066";
layerId = "49727D24-A1A7-4664-A342-13FAE1F264C2";
shapes = (
{
closed = 1;
nodes = (
(398,0,l),
(398,253,l),
(658,700,l),
(530,700,l),
(340,358,l),
(150,700,l),
(21,700,l),
(282,253,l),
(282,0,l)
);
}
);
userData = {
com.hugojourdan.ColorFlow = {
"0" = 0;
"1" = 0;
"10" = 0;
"11" = 0;
"2" = 0;
"3" = 0;
"4" = 0;
"5" = 1;
"6" = 0;
"7" = 0;
"8" = 0;
"9" = 0;
};
com.hugojourdan.ColorFlow_Color_5 = "5";
};
width = 679.07273;
},
{
anchors = (
{
name = center;
pos = (287,0);
},
{
name = top;
pos = (287,700);
}
);
associatedMasterId = "58bebe4f-9ca5-4d90-881b-c2d59ecd3066";
layerId = "5DB756B2-5C5E-4D57-BE3F-3E1CE811955B";
shapes = (
{
closed = 1;
nodes = (
(345,0,l),
(345,256,l),
(561,700,l),
(436,700,l),
(287,369,l),
(138,700,l),
(12,700,l),
(229,256,l),
(229,0,l)
);
}
);
userData = {
com.hugojourdan.ColorFlow = {
"0" = 0;
"1" = 0;
"10" = 0;
"11" = 0;
"2" = 0;
"3" = 0;
"4" = 0;
"5" = 1;
"6" = 0;
"7" = 0;
"8" = 0;
"9" = 0;
};
com.hugojourdan.ColorFlow_Color_5 = "5";
};
width = 573.48443;
},
{
anchors = (
{
name = center;
pos = (297,0);
},
{
name = top;
pos = (296,700);
}
);
associatedMasterId = "58bebe4f-9ca5-4d90-881b-c2d59ecd3066";
layerId = "C02ECF70-D064-4F8B-8461-CC3500810FC9";
shapes = (
{
closed = 1;
nodes = (
(365,0,l),
(365,248,l),
(581.997,700,l),
(435,700,l),
(297,385,l),
(158,700,l),
(10,700,l),
(228,248,l),
(228,0,l)
);
}
);
userData = {
com.hugojourdan.ColorFlow = {
"0" = 0;
"1" = 0;
"10" = 0;
"11" = 0;
"2" = 0;
"3" = 0;
"4" = 0;
"5" = 1;
"6" = 0;
"7" = 0;
"8" = 0;
"9" = 0;
};
com.hugojourdan.ColorFlow_Color_5 = "5";
};
width = 592.31449;
},
{
anchors = (
{
name = center;
pos = (296,0);
},
{
name = top;
pos = (412,700);
}
);
layerId = "af347eb2-a668-4c91-abbe-f882010a0a43";
shapes = (
{
closed = 1;
nodes = (
(344,0,l),
(388,261,l),
(725,700,l),
(617,700,l),
(354,348,l),
(208,700,l),
(100,700,l),
(291,261,l),
(247,0,l)
);
}
);
userData = {
com.hugojourdan.ColorFlow = {
"0" = 0;
"1" = 0;
"10" = 0;
"11" = 0;
"2" = 0;
"3" = 0;
"4" = 0;
"5" = 1;
"6" = 0;
"7" = 0;
"8" = 0;
"9" = 0;
};
com.hugojourdan.ColorFlow_Color_5 = "5";
};
width = 675;
},
{
anchors = (
{
name = center;
pos = (326,0);
},
{
name = top;
pos = (442,700);
}
);
layerId = "edd54720-fbeb-44cd-af84-4ff57ec79b05";
shapes = (
{
closed = 1;
nodes = (
(413,0,l),
(452,230,l),
(795,700,l),
(596,700,l),
(395,411,l),
(289,700,l),
(90,700,l),
(278,230,l),
(239,0,l)
);
}
);
userData = {
com.hugojourdan.ColorFlow = {
"0" = 0;
"1" = 0;
"10" = 0;
"11" = 0;
"2" = 0;
"3" = 0;
"4" = 0;
"5" = 1;
"6" = 0;
"7" = 0;
"8" = 0;
"9" = 0;
};
com.hugojourdan.ColorFlow_Color_5 = "5";
};
width = 734;
},
{
anchors = (
{
name = center;
pos = (250,0);
},
{
name = top;
pos = (367,700);
}
);
layerId = "8D5D41BF-E921-4DFA-A794-BFB439395CD4";
shapes = (
{
closed = 1;
nodes = (
(298,0,l),
(343,265,l),
(635,700,l),
(531,700,l),
(310,358,l),
(203,700,l),
(98,700,l),
(245,265,l),
(201,0,l)
);
}
);
userData = {
com.hugojourdan.ColorFlow = {
"0" = 0;
"1" = 0;
"10" = 0;
"11" = 0;
"2" = 0;
"3" = 0;
"4" = 0;
"5" = 1;
"6" = 0;
"7" = 0;
"8" = 0;
"9" = 0;
};
com.hugojourdan.ColorFlow_Color_5 = "5";
};
width = 583;
},
{
anchors = (
{
name = center;
pos = (283,0);
},
{
name = top;
pos = (399,700);
}
);
layerId = "126A7EFF-FBED-4747-9AEA-B121032D7D8F";
shapes = (
{
closed = 1;
nodes = (
(370,0,l),
(409,232,l),
(707,700,l),
(516,700,l),
(353,417,l),
(283,700,l),
(91,700,l),
(235,232,l),
(196,0,l)
);
}
);
userData = {
com.hugojourdan.ColorFlow = {
"0" = 0;
"1" = 0;
"10" = 0;
"11" = 0;
"2" = 0;
"3" = 0;
"4" = 0;
"5" = 1;
"6" = 0;
"7" = 0;
"8" = 0;
"9" = 0;
};
com.hugojourdan.ColorFlow_Color_5 = "5";
};
width = 648;
},
{
anchors = (
{
name = center;
pos = (231,0);
},
{
name = top;
pos = (349,700);
}
);
layerId = "15C5E54C-51CA-433B-8F99-9031AB3E7AD6";
shapes = (
{
closed = 1;
nodes = (
(242,0,l),
(292,299,l),
(596,700,l),
(570,700,l),
(285,322,l),
(126,700,l),
(100,700,l),
(270,299,l),
(220,0,l)
);
}
);
userData = {
com.hugojourdan.ColorFlow = {
"0" = 0;
"1" = 0;
"10" = 0;
"11" = 0;
"2" = 0;
"3" = 0;
"4" = 0;
"5" = 1;
"6" = 0;
"7" = 0;
"8" = 0;
"9" = 0;
};
com.hugojourdan.ColorFlow_Color_5 = "5";
};
width = 545;
}
);
unicode = 89;
userData = {
KernOnName = Y;
};
},
{
color = 10;
glyphname = Z;
kernLeft = KO_Z;
kernRight = KO_Z;
lastChange = "2024-03-29 20:25:54 +0000";
layers = (
{
anchors = (
{
name = top;
pos = (353,700);
}
);
layerId = "58bebe4f-9ca5-4d90-881b-c2d59ecd3066";
shapes = (
{
closed = 1;
nodes = (
(474,0,l),
(478,20,l),
(26,20,l),
(578,679,l),
(581,700,l),
(125,700,l),
(122,680,l),
(552,680,l),
(0,20,l),
(-4,0,l)
);
}
);
userData = {
com.hugojourdan.ColorFlow = {
"0" = 0;
"1" = 0;
"10" = 0;
"11" = 0;
"2" = 0;
"3" = 0;
"4" = 0;
"5" = 1;
"6" = 0;
"7" = 0;
"8" = 0;
"9" = 0;
};
com.hugojourdan.ColorFlow_Color_5 = "5";
};
width = 554;
},
{
anchors = (
{
name = top;
pos = (290,700);
}
);
associatedMasterId = "58bebe4f-9ca5-4d90-881b-c2d59ecd3066";
layerId = "54C81FDB-E51B-491A-99B7-AA372D892998";
shapes = (
{
closed = 1;
nodes = (
(539,0,l),
(539,97,l),
(177,97,l),
(539,613,l),
(539,700,l),
(40,700,l),
(40,603,l),
(401,603,l),
(40,87,l),
(40,0,l)
);
}
);
userData = {
com.hugojourdan.ColorFlow = {
"0" = 0;
"1" = 0;
"10" = 0;
"11" = 0;
"2" = 0;
"3" = 0;
"4" = 0;
"5" = 1;
"6" = 0;
"7" = 0;
"8" = 0;
"9" = 0;
};
com.hugojourdan.ColorFlow_Color_5 = "5";
};
width = 578.98182;
},
{
anchors = (
{
name = top;
pos = (244,700);
}
);
associatedMasterId = "58bebe4f-9ca5-4d90-881b-c2d59ecd3066";
layerId = "DF14B027-7E54-4BA7-94A4-8397F107E028";
shapes = (
{
closed = 1;
nodes = (
(456,0,l),
(456,97,l),
(160,97,l),
(456,613,l),
(456,700,l),
(30,700,l),
(30,603,l),
(326,603,l),
(30,87,l),
(30,0,l)
);
}
);
userData = {
com.hugojourdan.ColorFlow = {
"0" = 0;
"1" = 0;
"10" = 0;
"11" = 0;
"2" = 0;
"3" = 0;
"4" = 0;
"5" = 1;
"6" = 0;
"7" = 0;
"8" = 0;
"9" = 0;
};
com.hugojourdan.ColorFlow_Color_5 = "5";
};
width = 486.64032;
},
{
anchors = (
{
name = top;
pos = (248,700);
}
);
associatedMasterId = "58bebe4f-9ca5-4d90-881b-c2d59ecd3066";
layerId = "F56A3580-8840-404E-BA46-E433267E16B1";
shapes = (
{
closed = 1;
nodes = (
(468,0,l),
(468,114,l),
(178,114,l),
(468,596,l),
(468,700,l),
(28,700,l),
(28,586,l),
(317,586,l),
(28,104,l),
(28,0,l)
);
}
);
userData = {
com.hugojourdan.ColorFlow = {
"0" = 0;
"1" = 0;
"10" = 0;
"11" = 0;
"2" = 0;
"3" = 0;
"4" = 0;
"5" = 1;
"6" = 0;
"7" = 0;
"8" = 0;
"9" = 0;
};
com.hugojourdan.ColorFlow_Color_5 = "5";
};
width = 496.35424;
},
{
anchors = (
{
name = top;
pos = (363,700);
}
);
layerId = "af347eb2-a668-4c91-abbe-f882010a0a43";
shapes = (
{
closed = 1;
nodes = (
(493,0,l),
(507,81,l),
(128,81,l),
(596,627,l),
(608,700,l),
(118,700,l),
(105,619,l),
(479,619,l),
(11,73,l),
(-1,0,l)
);
}
);
userData = {
com.hugojourdan.ColorFlow = {
"0" = 0;
"1" = 0;
"10" = 0;
"11" = 0;
"2" = 0;
"3" = 0;
"4" = 0;
"5" = 1;
"6" = 0;
"7" = 0;
"8" = 0;
"9" = 0;
};
com.hugojourdan.ColorFlow_Color_5 = "5";
};
width = 575;
},
{
anchors = (
{
name = top;
pos = (378,700);
}
);
layerId = "edd54720-fbeb-44cd-af84-4ff57ec79b05";
shapes = (
{
closed = 1;
nodes = (
(530,0,l),
(555,146,l),
(216,146,l),
(624,563,l),
(647,700,l),
(108,700,l),
(84,554,l),
(420,554,l),
(14,136,l),
(-9,0,l)
);
}
);
userData = {
com.hugojourdan.ColorFlow = {
"0" = 0;
"1" = 0;
"10" = 0;
"11" = 0;
"2" = 0;
"3" = 0;
"4" = 0;
"5" = 1;
"6" = 0;
"7" = 0;
"8" = 0;
"9" = 0;
};
com.hugojourdan.ColorFlow_Color_5 = "5";
};
width = 605;
},
{
anchors = (
{
name = top;
pos = (322,700);
}
);
layerId = "8D5D41BF-E921-4DFA-A794-BFB439395CD4";
shapes = (
{
closed = 1;
nodes = (
(415,0,l),
(429,81,l),
(117,81,l),
(519,627,l),
(531,700,l),
(113,700,l),
(100,619,l),
(408,619,l),
(7,73,l),
(-5,0,l)
);
}
);
userData = {
com.hugojourdan.ColorFlow = {
"0" = 0;
"1" = 0;
"10" = 0;
"11" = 0;
"2" = 0;
"3" = 0;
"4" = 0;
"5" = 1;
"6" = 0;
"7" = 0;
"8" = 0;
"9" = 0;
};
com.hugojourdan.ColorFlow_Color_5 = "5";
};
width = 493;
},
{
anchors = (
{
name = top;
pos = (338,700);
}
);
layerId = "126A7EFF-FBED-4747-9AEA-B121032D7D8F";
shapes = (
{
closed = 1;
nodes = (
(453,0,l),
(478,146,l),
(202,146,l),
(548,563,l),
(571,700,l),
(105,700,l),
(81,554,l),
(355,554,l),
(12,136,l),
(-11,0,l)
);
}
);
userData = {
com.hugojourdan.ColorFlow = {
"0" = 0;
"1" = 0;
"10" = 0;
"11" = 0;
"2" = 0;
"3" = 0;
"4" = 0;
"5" = 1;
"6" = 0;
"7" = 0;
"8" = 0;
"9" = 0;
};
com.hugojourdan.ColorFlow_Color_5 = "5";
};
width = 526;
},
{
anchors = (
{
name = top;
pos = (307,700);
}
);
layerId = "15C5E54C-51CA-433B-8F99-9031AB3E7AD6";
shapes = (
{
closed = 1;
nodes = (
(390,0,l),
(394,20,l),
(18,20,l),
(496,679,l),
(499,700,l),
(116,700,l),
(113,680,l),
(471,680,l),
(-7,20,l),
(-11,0,l)
);
}
);
userData = {
com.hugojourdan.ColorFlow = {
"0" = 0;
"1" = 0;
"10" = 0;
"11" = 0;
"2" = 0;
"3" = 0;
"4" = 0;
"5" = 1;
"6" = 0;
"7" = 0;
"8" = 0;
"9" = 0;
};
com.hugojourdan.ColorFlow_Color_5 = "5";
};
width = 463;
}
);
unicode = 90;
},
{
glyphname = Saltillo;
lastChange = "2024-03-29 20:25:54 +0000";
layers = (
{
layerId = "58bebe4f-9ca5-4d90-881b-c2d59ecd3066";
shapes = (
{
closed = 1;
nodes = (
(103,278,l),
(179,700,l),
(151,700,l),
(81,278,l)
);
}
);
userData = {
com.hugojourdan.ColorFlow = {
"0" = 0;
"1" = 0;
"10" = 0;
"11" = 0;
"2" = 0;
"3" = 0;
"4" = 0;
"5" = 0;
"6" = 0;
"7" = 0;
"8" = 0;
"9" = 0;
};
};
width = 178;
},
{
associatedMasterId = "58bebe4f-9ca5-4d90-881b-c2d59ecd3066";
layerId = "D99A04F0-6033-4D02-A734-F5C6FA2D39ED";
shapes = (
{
closed = 1;
nodes = (
(143,278,l),
(183,700,l),
(57,700,l),
(57,278,l)
);
}
);
userData = {
com.hugojourdan.ColorFlow = {
"0" = 0;
"1" = 0;
"10" = 0;
"11" = 0;
"2" = 0;
"3" = 0;
"4" = 0;
"5" = 0;
"6" = 0;
"7" = 0;
"8" = 0;
"9" = 0;
};
};
width = 226.21818;
},
{
associatedMasterId = "58bebe4f-9ca5-4d90-881b-c2d59ecd3066";
layerId = "4E3422AC-79D3-4184-96F6-56F02934642E";
shapes = (
{
closed = 1;
nodes = (
(132,278,l),
(172,700,l),
(46,700,l),
(46,278,l)
);
}
);
userData = {
com.hugojourdan.ColorFlow = {
"0" = 0;
"1" = 0;
"10" = 0;
"11" = 0;
"2" = 0;
"3" = 0;
"4" = 0;
"5" = 0;
"6" = 0;
"7" = 0;
"8" = 0;
"9" = 0;
};
};
width = 204.11179;
},
{
associatedMasterId = "58bebe4f-9ca5-4d90-881b-c2d59ecd3066";
layerId = "6DB8BDF0-7C0C-45B2-991F-CC50E35795BE";
shapes = (
{
closed = 1;
nodes = (
(139,278,l),
(181,700,l),
(41,700,l),
(41,278,l)
);
}
);
userData = {
com.hugojourdan.ColorFlow = {
"0" = 0;
"1" = 0;
"10" = 0;
"11" = 0;
"2" = 0;
"3" = 0;
"4" = 0;
"5" = 0;
"6" = 0;
"7" = 0;
"8" = 0;
"9" = 0;
};
};
width = 207.47952;
},
{
layerId = "af347eb2-a668-4c91-abbe-f882010a0a43";
shapes = (
{
closed = 1;
nodes = (
(140,278,l),
(244,700,l),
(137,700,l),
(67,278,l)
);
}
);
userData = {
com.hugojourdan.ColorFlow = {
"0" = 0;
"1" = 0;
"10" = 0;
"11" = 0;
"2" = 0;
"3" = 0;
"4" = 0;
"5" = 0;
"6" = 0;
"7" = 0;
"8" = 0;
"9" = 0;
};
};
width = 218;
},
{
layerId = "edd54720-fbeb-44cd-af84-4ff57ec79b05";
shapes = (
{
closed = 1;
nodes = (
(167,278,l),
(280,700,l),
(115,700,l),
(45,278,l)
);
}
);
userData = {
com.hugojourdan.ColorFlow = {
"0" = 0;
"1" = 0;
"10" = 0;
"11" = 0;
"2" = 0;
"3" = 0;
"4" = 0;
"5" = 0;
"6" = 0;
"7" = 0;
"8" = 0;
"9" = 0;
};
};
width = 231;
},
{
layerId = "8D5D41BF-E921-4DFA-A794-BFB439395CD4";
shapes = (
{
closed = 1;
nodes = (
(132,278,l),
(236,700,l),
(129,700,l),
(59,278,l)
);
}
);
userData = {
com.hugojourdan.ColorFlow = {
"0" = 0;
"1" = 0;
"10" = 0;
"11" = 0;
"2" = 0;
"3" = 0;
"4" = 0;
"5" = 0;
"6" = 0;
"7" = 0;
"8" = 0;
"9" = 0;
};
};
width = 204;
},
{
layerId = "126A7EFF-FBED-4747-9AEA-B121032D7D8F";
shapes = (
{
closed = 1;
nodes = (
(163,278,l),
(276,700,l),
(111,700,l),
(41,278,l)
);
}
);
userData = {
com.hugojourdan.ColorFlow = {
"0" = 0;
"1" = 0;
"10" = 0;
"11" = 0;
"2" = 0;
"3" = 0;
"4" = 0;
"5" = 0;
"6" = 0;
"7" = 0;
"8" = 0;
"9" = 0;
};
};
width = 224;
},
{
layerId = "15C5E54C-51CA-433B-8F99-9031AB3E7AD6";
shapes = (
{
closed = 1;
nodes = (
(92,278,l),
(168,700,l),
(140,700,l),
(70,278,l)
);
}
);
userData = {
com.hugojourdan.ColorFlow = {
"0" = 0;
"1" = 0;
"10" = 0;
"11" = 0;
"2" = 0;
"3" = 0;
"4" = 0;
"5" = 0;
"6" = 0;
"7" = 0;
"8" = 0;
"9" = 0;
};
};
width = 155;
}
);
unicode = 42891;
},
{
color = 10;
glyphname = a;
kernLeft = KO_a;
kernRight = KO_a;
lastChange = "2024-03-29 20:25:54 +0000";
layers = (
{
anchors = (
{
name = ogonek;
pos = (397,0);
},
{
name = top;
pos = (297,500);
}
);
layerId = "58bebe4f-9ca5-4d90-881b-c2d59ecd3066";
shapes = (
{
closed = 1;
nodes = (
(278,-7,o),
(358,44,o),
(398,138,c),
(375,0,l),
(397,0,l),
(456,349,ls),
(472,450,o),
(417,507,o),
(300,507,cs),
(194,507,o),
(131,467,o),
(91,389,c),
(110,384,l),
(144,451,o),
(204,487,o),
(299,487,cs),
(403,487,o),
(449,440,o),
(432,341,cs),
(425,295,l),
(244,275,ls),
(108,260,o),
(38,211,o),
(25,128,cs),
(10,41,o),
(64,-7,o),
(173,-7,cs)
);
},
{
closed = 1;
nodes = (
(79,13,o),
(34,55,o),
(47,129,cs),
(59,201,o),
(115,242,o),
(240,255,cs),
(421,274,l),
(414,231,ls),
(391,94,o),
(299,13,o),
(173,13,cs)
);
}
);
userData = {
com.hugojourdan.ColorFlow = {
"0" = 0;
"1" = 0;
"10" = 0;
"11" = 0;
"2" = 0;
"3" = 0;
"4" = 0;
"5" = 1;
"6" = 0;
"7" = 0;
"8" = 0;
"9" = 0;
};
com.hugojourdan.ColorFlow_Color_5 = "5";
};
width = 518;
},
{
anchors = (
{
name = ogonek;
pos = (451,0);
},
{
name = top;
pos = (259,500);
}
);
associatedMasterId = "58bebe4f-9ca5-4d90-881b-c2d59ecd3066";
layerId = "15A756C0-DE5A-43DB-8FED-4B05F80C71BC";
shapes = (
{
closed = 1;
nodes = (
(274,-5,o),
(314,19,o),
(347,61,c),
(356,0,l),
(458,0,l),
(458,334,ls),
(458,435,o),
(393,507,o),
(263,507,cs),
(155,507,o),
(75,456,o),
(50,367,c),
(146,332,l),
(160,385,o),
(204,411,o),
(257,411,cs),
(319,411,o),
(347,379,o),
(347,346,cs),
(347,308,l),
(214,293,ls),
(94,279,o),
(31,220,o),
(31,135,cs),
(31,50,o),
(97,-5,o),
(201,-5,cs)
);
},
{
closed = 1;
nodes = (
(174,85,o),
(147,110,o),
(147,142,cs),
(147,174,o),
(174,198,o),
(224,205,cs),
(347,221,l),
(347,213,ls),
(347,131,o),
(301,85,o),
(217,85,cs)
);
}
);
userData = {
com.hugojourdan.ColorFlow = {
"0" = 0;
"1" = 0;
"10" = 0;
"11" = 0;
"2" = 0;
"3" = 0;
"4" = 0;
"5" = 1;
"6" = 0;
"7" = 0;
"8" = 0;
"9" = 0;
};
com.hugojourdan.ColorFlow_Color_5 = "5";
};
width = 515.89091;
},
{
anchors = (
{
name = ogonek;
pos = (383,0);
},
{
name = top;
pos = (216,500);
}
);
associatedMasterId = "58bebe4f-9ca5-4d90-881b-c2d59ecd3066";
layerId = "224C2672-8AD0-48ED-A767-428331D9D491";
shapes = (
{
closed = 1;
nodes = (
(221,-5,o),
(252,19,o),
(276,61,c),
(285,0,l),
(387,0,l),
(387,334,ls),
(387,435,o),
(330,507,o),
(220,507,cs),
(129,507,o),
(64,456,o),
(41,367,c),
(136,332,l),
(146,385,o),
(176,411,o),
(214,411,cs),
(256,411,o),
(276,379,o),
(276,346,cs),
(276,308,l),
(193,296,ls),
(74,278,o),
(24,220,o),
(24,135,cs),
(24,50,o),
(81,-5,o),
(163,-5,cs)
);
},
{
closed = 1;
nodes = (
(158,85,o),
(137,110,o),
(137,142,cs),
(137,174,o),
(157,198,o),
(207,209,cs),
(276,221,l),
(276,189,ls),
(276,119,o),
(247,85,o),
(188,85,cs)
);
}
);
userData = {
com.hugojourdan.ColorFlow = {
"0" = 0;
"1" = 0;
"10" = 0;
"11" = 0;
"2" = 0;
"3" = 0;
"4" = 0;
"5" = 1;
"6" = 0;
"7" = 0;
"8" = 0;
"9" = 0;
};
com.hugojourdan.ColorFlow_Color_5 = "5";
};
width = 436.16111;
},
{
anchors = (
{
name = ogonek;
pos = (391,0);
},
{
name = top;
pos = (216,500);
}
);
associatedMasterId = "58bebe4f-9ca5-4d90-881b-c2d59ecd3066";
layerId = "72DB3E1E-A66A-487A-89CF-C1FCF885346B";
shapes = (
{
closed = 1;
nodes = (
(213,-6,o),
(242,20,o),
(265,61,c),
(274,0,l),
(393,0,l),
(393,327,ls),
(393,434,o),
(333,507,o),
(219,507,cs),
(127,507,o),
(64,457,o),
(39,368,c),
(148,328,l),
(157,374,o),
(181,398,o),
(214,398,cs),
(248,398,o),
(265,369,o),
(265,341,cs),
(265,306,l),
(184,294,ls),
(68,277,o),
(19,220,o),
(19,135,cs),
(19,48,o),
(79,-6,o),
(156,-6,cs)
);
},
{
closed = 1;
nodes = (
(168,96,o),
(150,118,o),
(150,147,cs),
(150,176,o),
(167,197,o),
(208,207,cs),
(265,217,l),
(265,186,ls),
(265,125,o),
(241,96,o),
(195,96,cs)
);
}
);
userData = {
com.hugojourdan.ColorFlow = {
"0" = 0;
"1" = 0;
"10" = 0;
"11" = 0;
"2" = 0;
"3" = 0;
"4" = 0;
"5" = 1;
"6" = 0;
"7" = 0;
"8" = 0;
"9" = 0;
};
com.hugojourdan.ColorFlow_Color_5 = "5";
};
width = 436.23236;
},
{
anchors = (
{
name = ogonek;
pos = (410,0);
},
{
name = top;
pos = (298,500);
}
);
layerId = "af347eb2-a668-4c91-abbe-f882010a0a43";
shapes = (
{
closed = 1;
nodes = (
(239,-5,o),
(291,24,o),
(330,75,c),
(325,0,l),
(410,0,l),
(467,338,ls),
(483,438,o),
(431,507,o),
(303,507,cs),
(193,507,o),
(117,463,o),
(77,382,c),
(156,358,l),
(182,403,o),
(224,426,o),
(285,426,cs),
(357,426,o),
(383,392,o),
(375,346,cs),
(368,306,l),
(225,290,ls),
(100,276,o),
(28,218,o),
(14,134,cs),
(-1,48,o),
(54,-5,o),
(160,-5,cs)
);
},
{
closed = 1;
nodes = (
(132,71,o),
(105,99,o),
(111,139,cs),
(118,179,o),
(154,206,o),
(219,214,cs),
(356,231,l),
(353,217,ls),
(338,123,o),
(277,71,o),
(184,71,cs)
);
}
);
userData = {
com.hugojourdan.ColorFlow = {
"0" = 0;
"1" = 0;
"10" = 0;
"11" = 0;
"2" = 0;
"3" = 0;
"4" = 0;
"5" = 1;
"6" = 0;
"7" = 0;
"8" = 0;
"9" = 0;
};
com.hugojourdan.ColorFlow_Color_5 = "5";
};
width = 514;
},
{
anchors = (
{
name = ogonek;
pos = (432,0);
},
{
name = top;
pos = (297,500);
}
);
layerId = "edd54720-fbeb-44cd-af84-4ff57ec79b05";
shapes = (
{
closed = 1;
nodes = (
(200,-7,o),
(236,21,o),
(279,62,c),
(279,0,l),
(432,0,l),
(484,312,ls),
(505,433,o),
(442,507,o),
(302,507,cs),
(176,507,o),
(95,449,o),
(64,355,c),
(214,336,l),
(223,362,o),
(248,378,o),
(277,378,cs),
(319,378,o),
(327,353,o),
(323,330,cs),
(319,301,l),
(207,289,ls),
(77,275,o),
(12,219,o),
(-2,136,cs),
(-18,43,o),
(48,-7,o),
(135,-7,cs)
);
},
{
closed = 1;
nodes = (
(184,117,o),
(165,133,o),
(169,156,cs),
(173,179,o),
(193,197,o),
(224,200,cs),
(303,209,l),
(301,199,ls),
(292,145,o),
(259,117,o),
(219,117,cs)
);
}
);
userData = {
com.hugojourdan.ColorFlow = {
"0" = 0;
"1" = 0;
"10" = 0;
"11" = 0;
"2" = 0;
"3" = 0;
"4" = 0;
"5" = 1;
"6" = 0;
"7" = 0;
"8" = 0;
"9" = 0;
};
com.hugojourdan.ColorFlow_Color_5 = "5";
};
width = 513;
},
{
anchors = (
{
name = ogonek;
pos = (343,0);
},
{
name = top;
pos = (260,500);
}
);
layerId = "8D5D41BF-E921-4DFA-A794-BFB439395CD4";
shapes = (
{
closed = 1;
nodes = (
(190,-5,o),
(232,25,o),
(262,74,c),
(257,0,l),
(343,0,l),
(400,338,ls),
(416,438,o),
(374,507,o),
(266,507,cs),
(177,507,o),
(104,462,o),
(73,381,c),
(153,362,l),
(172,404,o),
(205,426,o),
(248,426,cs),
(299,426,o),
(316,392,o),
(308,346,cs),
(301,306,l),
(208,294,ls),
(84,275,o),
(24,218,o),
(10,134,cs),
(-5,48,o),
(41,-5,o),
(126,-5,cs)
);
},
{
closed = 1;
nodes = (
(119,71,o),
(99,99,o),
(105,139,cs),
(112,179,o),
(141,206,o),
(206,218,cs),
(289,231,l),
(283,197,ls),
(269,113,o),
(226,71,o),
(158,71,cs)
);
}
);
userData = {
com.hugojourdan.ColorFlow = {
"0" = 0;
"1" = 0;
"10" = 0;
"11" = 0;
"2" = 0;
"3" = 0;
"4" = 0;
"5" = 1;
"6" = 0;
"7" = 0;
"8" = 0;
"9" = 0;
};
com.hugojourdan.ColorFlow_Color_5 = "5";
};
width = 440;
},
{
anchors = (
{
name = ogonek;
pos = (367,0);
},
{
name = top;
pos = (261,500);
}
);
layerId = "126A7EFF-FBED-4747-9AEA-B121032D7D8F";
shapes = (
{
closed = 1;
nodes = (
(159,-7,o),
(192,21,o),
(218,62,c),
(218,0,l),
(367,0,l),
(419,312,ls),
(440,433,o),
(393,507,o),
(271,507,cs),
(168,507,o),
(89,455,o),
(60,354,c),
(200,341,l),
(208,365,o),
(222,377,o),
(240,377,cs),
(264,377,o),
(268,358,o),
(264,334,cs),
(258,301,l),
(176,290,ls),
(65,274,o),
(11,219,o),
(-3,136,cs),
(-19,43,o),
(38,-7,o),
(104,-7,cs)
);
},
{
closed = 1;
nodes = (
(166,117,o),
(156,131,o),
(160,156,cs),
(164,179,o),
(182,196,o),
(204,202,cs),
(242,209,l),
(237,181,ls),
(231,139,o),
(211,117,o),
(189,117,cs)
);
}
);
userData = {
com.hugojourdan.ColorFlow = {
"0" = 0;
"1" = 0;
"10" = 0;
"11" = 0;
"2" = 0;
"3" = 0;
"4" = 0;
"5" = 1;
"6" = 0;
"7" = 0;
"8" = 0;
"9" = 0;
};
com.hugojourdan.ColorFlow_Color_5 = "5";
};
width = 444;
},
{
anchors = (
{
name = ogonek;
pos = (324,0);
},
{
name = top;
pos = (253,500);
}
);
layerId = "15C5E54C-51CA-433B-8F99-9031AB3E7AD6";
shapes = (
{
closed = 1;
nodes = (
(225,-7,o),
(294,50,o),
(324,130,c),
(302,0,l),
(324,0,l),
(383,349,ls),
(399,450,o),
(355,507,o),
(257,507,cs),
(174,507,o),
(114,467,o),
(81,388,c),
(100,383,l),
(127,451,o),
(181,487,o),
(256,487,cs),
(340,487,o),
(376,441,o),
(359,341,cs),
(352,295,l),
(222,278,ls),
(91,260,o),
(31,211,o),
(18,128,cs),
(3,41,o),
(46,-7,o),
(137,-7,cs)
);
},
{
closed = 1;
nodes = (
(63,13,o),
(27,55,o),
(40,129,cs),
(52,201,o),
(98,241,o),
(218,257,cs),
(348,274,l),
(341,231,ls),
(318,94,o),
(243,13,o),
(138,13,cs)
);
}
);
userData = {
com.hugojourdan.ColorFlow = {
"0" = 0;
"1" = 0;
"10" = 0;
"11" = 0;
"2" = 0;
"3" = 0;
"4" = 0;
"5" = 1;
"6" = 0;
"7" = 0;
"8" = 0;
"9" = 0;
};
com.hugojourdan.ColorFlow_Color_5 = "5";
};
width = 434;
}
);
unicode = 97;
userData = {
KernOnName = a;
};
},
{
color = 10;
glyphname = b;
kernLeft = KO_l;
kernRight = KO_p;
lastChange = "2024-03-29 20:25:54 +0000";
layers = (
{
layerId = "58bebe4f-9ca5-4d90-881b-c2d59ecd3066";
shapes = (
{
closed = 1;
nodes = (
(413,-7,o),
(522,93,o),
(548,250,cs),
(574,406,o),
(499,507,o),
(358,507,cs),
(247,507,o),
(168,445,o),
(127,364,c),
(187,720,l),
(165,720,l),
(44,0,l),
(66,0,l),
(90,140,l),
(103,56,o),
(166,-7,o),
(272,-7,cs)
);
},
{
closed = 1;
nodes = (
(149,13,o),
(83,110,o),
(106,250,cs),
(129,390,o),
(228,487,o),
(355,487,cs),
(485,487,o),
(550,395,o),
(526,250,cs),
(502,104,o),
(405,13,o),
(275,13,cs)
);
}
);
userData = {
com.hugojourdan.ColorFlow = {
"0" = 0;
"1" = 0;
"10" = 0;
"11" = 0;
"2" = 0;
"3" = 0;
"4" = 0;
"5" = 1;
"6" = 0;
"7" = 0;
"8" = 0;
"9" = 0;
};
com.hugojourdan.ColorFlow_Color_5 = "5";
};
width = 601;
},
{
associatedMasterId = "58bebe4f-9ca5-4d90-881b-c2d59ecd3066";
layerId = "CA9EA0CB-BD90-49C8-8E3C-D0D80F4E5025";
shapes = (
{
closed = 1;
nodes = (
(463,-7,o),
(554,95,o),
(554,250,cs),
(554,404,o),
(464,507,o),
(330,507,cs),
(265,507,o),
(212,482,o),
(177,448,c),
(177,720,l),
(66,720,l),
(66,0,l),
(167,0,l),
(174,55,l),
(208,20,o),
(260,-7,o),
(330,-7,cs)
);
},
{
closed = 1;
nodes = (
(231,93,o),
(170,148,o),
(170,250,cs),
(170,351,o),
(231,407,o),
(303,407,cs),
(381,407,o),
(436,343,o),
(436,250,cs),
(436,156,o),
(382,93,o),
(303,93,cs)
);
}
);
userData = {
com.hugojourdan.ColorFlow = {
"0" = 0;
"1" = 0;
"10" = 0;
"11" = 0;
"2" = 0;
"3" = 0;
"4" = 0;
"5" = 1;
"6" = 0;
"7" = 0;
"8" = 0;
"9" = 0;
};
com.hugojourdan.ColorFlow_Color_5 = "5";
};
width = 591.38182;
},
{
associatedMasterId = "58bebe4f-9ca5-4d90-881b-c2d59ecd3066";
layerId = "17102053-7DAC-4D65-8DA5-22BE56C60754";
shapes = (
{
closed = 1;
nodes = (
(404,-7,o),
(468,95,o),
(468,250,cs),
(468,404,o),
(404,507,o),
(283,507,cs),
(230,507,o),
(192,489,o),
(167,462,c),
(167,720,l),
(57,720,l),
(57,0,l),
(158,0,l),
(163,44,l),
(187,15,o),
(226,-7,o),
(283,-7,cs)
);
},
{
closed = 1;
nodes = (
(200,93,o),
(161,148,o),
(161,250,cs),
(161,351,o),
(200,407,o),
(256,407,cs),
(315,407,o),
(349,343,o),
(349,250,cs),
(349,156,o),
(316,93,o),
(256,93,cs)
);
}
);
userData = {
com.hugojourdan.ColorFlow = {
"0" = 0;
"1" = 0;
"10" = 0;
"11" = 0;
"2" = 0;
"3" = 0;
"4" = 0;
"5" = 1;
"6" = 0;
"7" = 0;
"8" = 0;
"9" = 0;
};
com.hugojourdan.ColorFlow_Color_5 = "5";
};
width = 499.65202;
},
{
associatedMasterId = "58bebe4f-9ca5-4d90-881b-c2d59ecd3066";
layerId = "C2F95FDD-D796-45F5-90C3-853F666223AB";
shapes = (
{
closed = 1;
nodes = (
(403,-7,o),
(467,94,o),
(467,250,cs),
(467,406,o),
(404,507,o),
(286,507,cs),
(237,507,o),
(202,491,o),
(180,466,c),
(180,720,l),
(51,720,l),
(51,0,l),
(168,0,l),
(174,46,l),
(195,16,o),
(232,-7,o),
(286,-7,cs)
);
},
{
closed = 1;
nodes = (
(204,111,o),
(173,158,o),
(173,250,cs),
(173,341,o),
(204,389,o),
(252,389,cs),
(302,389,o),
(329,335,o),
(329,250,cs),
(329,165,o),
(302,111,o),
(252,111,cs)
);
}
);
userData = {
com.hugojourdan.ColorFlow = {
"0" = 0;
"1" = 0;
"10" = 0;
"11" = 0;
"2" = 0;
"3" = 0;
"4" = 0;
"5" = 1;
"6" = 0;
"7" = 0;
"8" = 0;
"9" = 0;
};
com.hugojourdan.ColorFlow_Color_5 = "5";
};
width = 495.14146;
},
{
layerId = "af347eb2-a668-4c91-abbe-f882010a0a43";
shapes = (
{
closed = 1;
nodes = (
(419,-7,o),
(527,95,o),
(553,250,cs),
(579,404,o),
(506,507,o),
(370,507,cs),
(296,507,o),
(235,475,o),
(194,433,c),
(242,720,l),
(149,720,l),
(28,0,l),
(113,0,l),
(131,71,l),
(157,27,o),
(207,-7,o),
(284,-7,cs)
);
},
{
closed = 1;
nodes = (
(194,77,o),
(139,140,o),
(157,250,cs),
(175,359,o),
(252,423,o),
(335,423,cs),
(423,423,o),
(471,353,o),
(454,250,cs),
(437,146,o),
(366,77,o),
(277,77,cs)
);
}
);
userData = {
com.hugojourdan.ColorFlow = {
"0" = 0;
"1" = 0;
"10" = 0;
"11" = 0;
"2" = 0;
"3" = 0;
"4" = 0;
"5" = 1;
"6" = 0;
"7" = 0;
"8" = 0;
"9" = 0;
};
com.hugojourdan.ColorFlow_Color_5 = "5";
};
width = 594;
},
{
layerId = "edd54720-fbeb-44cd-af84-4ff57ec79b05";
shapes = (
{
closed = 1;
nodes = (
(416,-7,o),
(525,92,o),
(551,250,cs),
(578,409,o),
(503,507,o),
(378,507,cs),
(326,507,o),
(281,488,o),
(246,460,c),
(290,720,l),
(126,720,l),
(5,0,l),
(153,0,l),
(170,54,l),
(191,20,o),
(238,-7,o),
(292,-7,cs)
);
},
{
closed = 1;
nodes = (
(225,146,o),
(193,182,o),
(204,250,cs),
(215,317,o),
(260,355,o),
(307,355,cs),
(358,355,o),
(385,313,o),
(374,250,cs),
(364,188,o),
(323,146,o),
(272,146,cs)
);
}
);
userData = {
com.hugojourdan.ColorFlow = {
"0" = 0;
"1" = 0;
"10" = 0;
"11" = 0;
"2" = 0;
"3" = 0;
"4" = 0;
"5" = 1;
"6" = 0;
"7" = 0;
"8" = 0;
"9" = 0;
};
com.hugojourdan.ColorFlow_Color_5 = "5";
};
width = 575;
},
{
layerId = "8D5D41BF-E921-4DFA-A794-BFB439395CD4";
shapes = (
{
closed = 1;
nodes = (
(360,-7,o),
(441,95,o),
(467,250,cs),
(493,404,o),
(447,507,o),
(324,507,cs),
(262,507,o),
(218,483,o),
(187,448,c),
(233,720,l),
(141,720,l),
(20,0,l),
(104,0,l),
(118,57,l),
(137,20,o),
(174,-7,o),
(238,-7,cs)
);
},
{
closed = 1;
nodes = (
(162,77,o),
(130,140,o),
(148,250,cs),
(166,359,o),
(220,423,o),
(288,423,cs),
(358,423,o),
(385,353,o),
(368,250,cs),
(351,146,o),
(301,77,o),
(230,77,cs)
);
}
);
userData = {
com.hugojourdan.ColorFlow = {
"0" = 0;
"1" = 0;
"10" = 0;
"11" = 0;
"2" = 0;
"3" = 0;
"4" = 0;
"5" = 1;
"6" = 0;
"7" = 0;
"8" = 0;
"9" = 0;
};
com.hugojourdan.ColorFlow_Color_5 = "5";
};
width = 506;
},
{
layerId = "126A7EFF-FBED-4747-9AEA-B121032D7D8F";
shapes = (
{
closed = 1;
nodes = (
(360,-7,o),
(442,92,o),
(468,250,cs),
(495,409,o),
(447,507,o),
(334,507,cs),
(294,507,o),
(265,494,o),
(242,474,c),
(284,720,l),
(120,720,l),
(-1,0,l),
(147,0,l),
(162,50,l),
(172,18,o),
(203,-7,o),
(248,-7,cs)
);
},
{
closed = 1;
nodes = (
(198,146,o),
(185,176,o),
(197,250,cs),
(210,323,o),
(233,355,o),
(263,355,cs),
(294,355,o),
(303,319,o),
(292,250,cs),
(281,182,o),
(259,146,o),
(228,146,cs)
);
}
);
userData = {
com.hugojourdan.ColorFlow = {
"0" = 0;
"1" = 0;
"10" = 0;
"11" = 0;
"2" = 0;
"3" = 0;
"4" = 0;
"5" = 1;
"6" = 0;
"7" = 0;
"8" = 0;
"9" = 0;
};
com.hugojourdan.ColorFlow_Color_5 = "5";
};
width = 491;
},
{
layerId = "15C5E54C-51CA-433B-8F99-9031AB3E7AD6";
shapes = (
{
closed = 1;
nodes = (
(351,-7,o),
(432,93,o),
(458,250,cs),
(484,406,o),
(437,507,o),
(307,507,cs),
(215,507,o),
(155,456,o),
(119,387,c),
(175,720,l),
(153,720,l),
(32,0,l),
(54,0,l),
(73,114,l),
(86,44,o),
(134,-7,o),
(221,-7,cs)
);
},
{
closed = 1;
nodes = (
(111,13,o),
(71,110,o),
(94,250,cs),
(117,390,o),
(190,487,o),
(304,487,cs),
(419,487,o),
(460,395,o),
(436,250,cs),
(412,104,o),
(339,13,o),
(224,13,cs)
);
}
);
userData = {
com.hugojourdan.ColorFlow = {
"0" = 0;
"1" = 0;
"10" = 0;
"11" = 0;
"2" = 0;
"3" = 0;
"4" = 0;
"5" = 1;
"6" = 0;
"7" = 0;
"8" = 0;
"9" = 0;
};
com.hugojourdan.ColorFlow_Color_5 = "5";
};
width = 506;
}
);
unicode = 98;
},
{
color = 10;
glyphname = c;
kernLeft = KO_e;
kernRight = KO_c;
lastChange = "2024-03-29 20:25:54 +0000";
layers = (
{
anchors = (
{
name = _centercent;
pos = (292,250);
},
{
name = bottom;
pos = (249,0);
},
{
name = center;
pos = (292,250);
},
{
name = top;
pos = (330,500);
}
);
layerId = "58bebe4f-9ca5-4d90-881b-c2d59ecd3066";
shapes = (
{
closed = 1;
nodes = (
(347,-7,o),
(430,41,o),
(483,128,c),
(463,133,l),
(414,55,o),
(340,13,o),
(251,13,cs),
(119,13,o),
(51,105,o),
(75,249,cs),
(99,393,o),
(200,487,o),
(330,487,cs),
(422,487,o),
(487,440,o),
(501,365,c),
(521,371,l),
(505,455,o),
(434,507,o),
(333,507,cs),
(190,507,o),
(79,404,o),
(53,249,cs),
(27,94,o),
(104,-7,o),
(248,-7,cs)
);
}
);
userData = {
com.hugojourdan.ColorFlow = {
"0" = 0;
"1" = 0;
"10" = 0;
"11" = 0;
"2" = 0;
"3" = 0;
"4" = 0;
"5" = 1;
"6" = 0;
"7" = 0;
"8" = 0;
"9" = 0;
};
com.hugojourdan.ColorFlow_Color_5 = "5";
};
width = 541;
},
{
anchors = (
{
name = _centercent;
pos = (279,250);
},
{
name = bottom;
pos = (273,5);
},
{
name = center;
pos = (279,250);
},
{
name = top;
pos = (273,500);
}
);
associatedMasterId = "58bebe4f-9ca5-4d90-881b-c2d59ecd3066";
layerId = "9144E3A9-1112-491A-B361-FD7F4D41DFED";
shapes = (
{
closed = 1;
nodes = (
(380,-7,o),
(468,45,o),
(505,125,c),
(407,159,l),
(386,118,o),
(341,92,o),
(287,92,cs),
(205,92,o),
(154,152,o),
(154,249,cs),
(154,346,o),
(205,408,o),
(286,408,cs),
(339,408,o),
(386,380,o),
(403,339,c),
(503,373,l),
(469,456,o),
(384,507,o),
(282,507,cs),
(136,507,o),
(35,401,o),
(35,248,cs),
(35,97,o),
(135,-7,o),
(279,-7,cs)
);
}
);
userData = {
com.hugojourdan.ColorFlow = {
"0" = 0;
"1" = 0;
"10" = 0;
"11" = 0;
"2" = 0;
"3" = 0;
"4" = 0;
"5" = 1;
"6" = 0;
"7" = 0;
"8" = 0;
"9" = 0;
};
com.hugojourdan.ColorFlow_Color_5 = "5";
};
width = 528.85455;
},
{
anchors = (
{
name = _centercent;
pos = (234,250);
},
{
name = bottom;
pos = (230,5);
},
{
name = center;
pos = (234,250);
},
{
name = top;
pos = (230,500);
}
);
associatedMasterId = "58bebe4f-9ca5-4d90-881b-c2d59ecd3066";
layerId = "59186D5C-D03E-40F4-8F6A-4534F5C7ECBF";
shapes = (
{
closed = 1;
nodes = (
(328,-7,o),
(397,45,o),
(426,125,c),
(327,159,l),
(311,118,o),
(287,92,o),
(242,92,cs),
(175,92,o),
(149,152,o),
(149,249,cs),
(149,346,o),
(175,408,o),
(242,408,cs),
(286,408,o),
(312,380,o),
(325,339,c),
(425,373,l),
(397,456,o),
(330,507,o),
(236,507,cs),
(102,507,o),
(31,401,o),
(31,248,cs),
(31,97,o),
(102,-7,o),
(235,-7,cs)
);
}
);
userData = {
com.hugojourdan.ColorFlow = {
"0" = 0;
"1" = 0;
"10" = 0;
"11" = 0;
"2" = 0;
"3" = 0;
"4" = 0;
"5" = 1;
"6" = 0;
"7" = 0;
"8" = 0;
"9" = 0;
};
com.hugojourdan.ColorFlow_Color_5 = "5";
};
width = 442.52475;
},
{
anchors = (
{
name = _centercent;
pos = (233,250);
},
{
name = bottom;
pos = (228,7);
},
{
name = center;
pos = (233,250);
},
{
name = top;
pos = (228,500);
}
);
associatedMasterId = "58bebe4f-9ca5-4d90-881b-c2d59ecd3066";
layerId = "1C7FA35F-7428-420A-93DA-54ACD1ACF201";
shapes = (
{
closed = 1;
nodes = (
(330,-6,o),
(401,49,o),
(428,136,c),
(312,170,l),
(299,132,o),
(278,109,o),
(241,109,cs),
(185,109,o),
(163,164,o),
(163,249,cs),
(163,334,o),
(186,391,o),
(241,391,cs),
(278,391,o),
(300,366,o),
(310,328,c),
(427,362,l),
(399,452,o),
(331,507,o),
(233,507,cs),
(100,507,o),
(26,401,o),
(26,248,cs),
(26,96,o),
(100,-8,o),
(233,-7,cs)
);
}
);
userData = {
com.hugojourdan.ColorFlow = {
"0" = 0;
"1" = 0;
"10" = 0;
"11" = 0;
"2" = 0;
"3" = 0;
"4" = 0;
"5" = 1;
"6" = 0;
"7" = 0;
"8" = 0;
"9" = 0;
};
com.hugojourdan.ColorFlow_Color_5 = "5";
};
width = 442.26873;
},
{
anchors = (
{
name = _centercent;
pos = (281,250);
},
{
name = bottom;
pos = (239,0);
},
{
name = center;
pos = (281,250);
},
{
name = top;
pos = (318,500);
}
);
layerId = "af347eb2-a668-4c91-abbe-f882010a0a43";
shapes = (
{
closed = 1;
nodes = (
(349,-7,o),
(444,45,o),
(488,131,c),
(407,153,l),
(375,105,o),
(320,76,o),
(259,76,cs),
(167,76,o),
(120,143,o),
(138,249,cs),
(156,355,o),
(225,424,o),
(316,424,cs),
(377,424,o),
(424,393,o),
(435,345,c),
(525,367,l),
(514,453,o),
(437,507,o),
(326,507,cs),
(182,507,o),
(64,402,o),
(39,248,cs),
(13,96,o),
(94,-7,o),
(238,-7,cs)
);
}
);
userData = {
com.hugojourdan.ColorFlow = {
"0" = 0;
"1" = 0;
"10" = 0;
"11" = 0;
"2" = 0;
"3" = 0;
"4" = 0;
"5" = 1;
"6" = 0;
"7" = 0;
"8" = 0;
"9" = 0;
};
com.hugojourdan.ColorFlow_Color_5 = "5";
};
width = 536;
},
{
anchors = (
{
name = _centercent;
pos = (275,250);
},
{
name = bottom;
pos = (230,0);
},
{
name = center;
pos = (275,250);
},
{
name = top;
pos = (307,500);
}
);
layerId = "edd54720-fbeb-44cd-af84-4ff57ec79b05";
shapes = (
{
closed = 1;
nodes = (
(354,-5,o),
(466,68,o),
(504,180,c),
(349,200,l),
(327,163,o),
(298,142,o),
(264,142,cs),
(214,142,o),
(185,186,o),
(196,249,cs),
(206,312,o),
(251,358,o),
(301,358,cs),
(335,358,o),
(358,336,o),
(364,301,c),
(527,320,l),
(522,435,o),
(439,507,o),
(314,507,cs),
(166,507,o),
(47,402,o),
(22,249,cs),
(-4,95,o),
(81,-9,o),
(229,-7,cs)
);
}
);
userData = {
com.hugojourdan.ColorFlow = {
"0" = 0;
"1" = 0;
"10" = 0;
"11" = 0;
"2" = 0;
"3" = 0;
"4" = 0;
"5" = 1;
"6" = 0;
"7" = 0;
"8" = 0;
"9" = 0;
};
com.hugojourdan.ColorFlow_Color_5 = "5";
};
width = 533;
},
{
anchors = (
{
name = _centercent;
pos = (238,250);
},
{
name = bottom;
pos = (197,0);
},
{
name = center;
pos = (238,250);
},
{
name = top;
pos = (277,500);
}
);
layerId = "8D5D41BF-E921-4DFA-A794-BFB439395CD4";
shapes = (
{
closed = 1;
nodes = (
(296,-7,o),
(371,44,o),
(409,127,c),
(327,148,l),
(302,103,o),
(268,76,o),
(216,76,cs),
(139,76,o),
(118,143,o),
(136,249,cs),
(154,355,o),
(197,424,o),
(274,424,cs),
(325,424,o),
(352,395,o),
(358,350,c),
(448,371,l),
(441,455,o),
(384,507,o),
(283,507,cs),
(151,507,o),
(62,402,o),
(37,248,cs),
(11,96,o),
(64,-7,o),
(196,-7,cs)
);
}
);
userData = {
com.hugojourdan.ColorFlow = {
"0" = 0;
"1" = 0;
"10" = 0;
"11" = 0;
"2" = 0;
"3" = 0;
"4" = 0;
"5" = 1;
"6" = 0;
"7" = 0;
"8" = 0;
"9" = 0;
};
com.hugojourdan.ColorFlow_Color_5 = "5";
};
width = 454;
},
{
anchors = (
{
name = _centercent;
pos = (234,250);
},
{
name = bottom;
pos = (192,0);
},
{
name = center;
pos = (234,250);
},
{
name = top;
pos = (270,500);
}
);
layerId = "126A7EFF-FBED-4747-9AEA-B121032D7D8F";
shapes = (
{
closed = 1;
nodes = (
(307,-5,o),
(403,70,o),
(431,185,c),
(281,199,l),
(267,163,o),
(251,142,o),
(227,142,cs),
(194,142,o),
(184,186,o),
(195,249,cs),
(205,312,o),
(231,358,o),
(264,358,cs),
(288,358,o),
(298,337,o),
(297,302,c),
(453,315,l),
(458,433,o),
(389,507,o),
(275,507,cs),
(144,507,o),
(46,402,o),
(21,249,cs),
(-5,95,o),
(59,-9,o),
(191,-7,cs)
);
}
);
userData = {
com.hugojourdan.ColorFlow = {
"0" = 0;
"1" = 0;
"10" = 0;
"11" = 0;
"2" = 0;
"3" = 0;
"4" = 0;
"5" = 1;
"6" = 0;
"7" = 0;
"8" = 0;
"9" = 0;
};
com.hugojourdan.ColorFlow_Color_5 = "5";
};
width = 460;
},
{
anchors = (
{
name = _centercent;
pos = (245,250);
},
{
name = bottom;
pos = (204,0);
},
{
name = center;
pos = (245,250);
},
{
name = top;
pos = (286,500);
}
);
layerId = "15C5E54C-51CA-433B-8F99-9031AB3E7AD6";
shapes = (
{
closed = 1;
nodes = (
(291,-7,o),
(356,41,o),
(402,128,c),
(383,132,l),
(339,55,o),
(283,13,o),
(206,13,cs),
(88,13,o),
(46,105,o),
(70,249,cs),
(94,393,o),
(169,487,o),
(285,487,cs),
(364,487,o),
(411,441,o),
(421,366,c),
(441,372,l),
(430,456,o),
(378,507,o),
(288,507,cs),
(157,507,o),
(74,404,o),
(48,249,cs),
(22,94,o),
(71,-7,o),
(203,-7,cs)
);
}
);
userData = {
com.hugojourdan.ColorFlow = {
"0" = 0;
"1" = 0;
"10" = 0;
"11" = 0;
"2" = 0;
"3" = 0;
"4" = 0;
"5" = 1;
"6" = 0;
"7" = 0;
"8" = 0;
"9" = 0;
};
com.hugojourdan.ColorFlow_Color_5 = "5";
};
width = 453;
}
);
unicode = 99;
userData = {
KernOnName = c;
};
},
